<svg xmlns="http://www.w3.org/2000/svg" xmlns:xlink="http://www.w3.org/1999/xlink" width="129" height="129" viewBox="0 0 129 129">
  <defs>
    <clipPath id="clip-path">
      <rect id="Rectángulo_320396" data-name="Rectángulo 320396" width="87" height="87" fill="none"/>
    </clipPath>
  </defs>
  <g id="Grupo_930117" data-name="Grupo 930117" transform="translate(-812 -3615.289)">
    <g id="Elipse_7683" data-name="Elipse 7683" transform="translate(812 3615.289)" fill="#f6f6f6" stroke="#fd9927" stroke-width="2">
      <circle cx="64.5" cy="64.5" r="64.5" stroke="none"/>
      <circle cx="64.5" cy="64.5" r="63.5" fill="none"/>
    </g>
    <g id="Grupo_930055" data-name="Grupo 930055" transform="translate(833 3636)">
      <g id="Grupo_930054" data-name="Grupo 930054" clip-path="url(#clip-path)">
        <path id="Trazado_741102" data-name="Trazado 741102" d="M63.165,23.69A39.475,39.475,0,1,1,23.69,63.165,39.475,39.475,0,0,1,63.165,23.69" transform="translate(-19.665 -19.665)" fill="#ededed"/>
        <path id="Trazado_741103" data-name="Trazado 741103" d="M48.364,90.869A42.5,42.5,0,0,1,18.308,18.31a42.5,42.5,0,1,1,60.11,60.106A42.216,42.216,0,0,1,48.364,90.869Zm0-78.14A35.636,35.636,0,1,0,84,48.364,35.676,35.676,0,0,0,48.364,12.728" transform="translate(-4.864 -4.864)" fill="#f40808"/>
        <path id="Trazado_741104" data-name="Trazado 741104" d="M77.052,40.42a36.632,36.632,0,1,0,36.632,36.632A36.674,36.674,0,0,0,77.052,40.42m0,71.272a34.64,34.64,0,1,1,34.64-34.64A34.679,34.679,0,0,1,77.052,111.692Z" transform="translate(-33.552 -33.552)"/>
        <path id="Trazado_741105" data-name="Trazado 741105" d="M74.259,12.741A43.5,43.5,0,0,0,12.741,74.259,43.5,43.5,0,0,0,74.259,12.741Zm-1.409,60.11a41.508,41.508,0,0,1-58.7-58.7,41.508,41.508,0,1,1,58.7,58.7Z"/>
        <path id="Trazado_741106" data-name="Trazado 741106" d="M145.936,144.5a26.681,26.681,0,0,0,13.189-5.144h10.93a26.681,26.681,0,0,0,13.189,5.144v16.3c0,10.516-10.676,19.353-18.654,21.49-7.978-2.138-18.654-10.974-18.654-21.49Z" transform="translate(-121.138 -115.678)" fill="#ccc" fill-rule="evenodd"/>
        <path id="Trazado_741107" data-name="Trazado 741107" d="M161.342,159.587v14a13.617,13.617,0,0,0,.472,3.514c1.8,6.755,8.92,13.179,15.563,15.25a26.687,26.687,0,0,0,11.191-7.511c2.754-3.105,4.846-7.015,4.846-11.254v-14a29.865,29.865,0,0,1-11.392-4.823h-9.287A29.865,29.865,0,0,1,161.342,159.587Z" transform="translate(-133.926 -128.466)" fill="#e6e6e6" fill-rule="evenodd"/>
        <path id="Trazado_741108" data-name="Trazado 741108" d="M193.832,194.081a11.061,11.061,0,1,1,0,15.643,11.061,11.061,0,0,1,0-15.643" transform="translate(-158.206 -158.413)" fill="#92d2fe" fill-rule="evenodd"/>
        <path id="Trazado_741109" data-name="Trazado 741109" d="M178.1,141.03a27.8,27.8,0,0,1-12.6-5.063H155.136a27.813,27.813,0,0,1-12.6,5.063v15.507c0,10.084,10.43,18.5,17.782,20.585,7.352-2.083,17.782-10.5,17.782-20.585Zm1.745-.791v16.3a18.09,18.09,0,0,1-1.881,7.872,25.377,25.377,0,0,1-4.7,6.622,29.335,29.335,0,0,1-12.719,7.839.885.885,0,0,1-.226.03.869.869,0,0,1-.226-.03,29.335,29.335,0,0,1-12.719-7.839,25.379,25.379,0,0,1-4.7-6.622,18.09,18.09,0,0,1-1.881-7.872v-16.3a.872.872,0,0,1,.8-.87,26.1,26.1,0,0,0,12.752-4.985.871.871,0,0,1,.506-.163h10.932a.871.871,0,0,1,.506.163,26.1,26.1,0,0,0,12.748,4.985.873.873,0,0,1,.807.87m-19.527,4.475a10.19,10.19,0,1,1-10.192,10.19A10.2,10.2,0,0,1,160.322,144.714Zm0-1.745A11.935,11.935,0,1,1,148.385,154.9a11.95,11.95,0,0,1,11.937-11.935m-2.079,14.71,7.479-7.477a.873.873,0,0,1,1.235,1.234l-8.171,8.171a.874.874,0,0,1-.617.256h-.053a.881.881,0,0,1-.634-.33l-3.861-4.89a.873.873,0,0,1,1.371-1.082Z" transform="translate(-116.871 -111.415)" fill-rule="evenodd"/>
      </g>
    </g>
  </g>
</svg>
