<svg xmlns="http://www.w3.org/2000/svg" xmlns:xlink="http://www.w3.org/1999/xlink" width="129" height="129" viewBox="0 0 129 129">
  <defs>
    <clipPath id="clip-path">
      <rect id="Rectángulo_320397" data-name="Rectángulo 320397" width="87" height="87" fill="none"/>
    </clipPath>
  </defs>
  <g id="Grupo_930118" data-name="Grupo 930118" transform="translate(-542 -3823.434)">
    <g id="Elipse_7683" data-name="Elipse 7683" transform="translate(542 3823.434)" fill="#f6f6f6" stroke="#fd9927" stroke-width="2">
      <circle cx="64.5" cy="64.5" r="64.5" stroke="none"/>
      <circle cx="64.5" cy="64.5" r="63.5" fill="none"/>
    </g>
    <g id="Grupo_930057" data-name="Grupo 930057" transform="translate(563 3844)">
      <g id="Grupo_930056" data-name="Grupo 930056" clip-path="url(#clip-path)">
        <path id="Trazado_741110" data-name="Trazado 741110" d="M63.165,23.69A39.475,39.475,0,1,1,23.69,63.165,39.475,39.475,0,0,1,63.165,23.69" transform="translate(-19.665 -19.665)" fill="#ededed"/>
        <path id="Trazado_741111" data-name="Trazado 741111" d="M48.364,90.869A42.5,42.5,0,0,1,18.308,18.31a42.5,42.5,0,1,1,60.11,60.106A42.216,42.216,0,0,1,48.364,90.869Zm0-78.14A35.636,35.636,0,1,0,84,48.364,35.676,35.676,0,0,0,48.364,12.728" transform="translate(-4.864 -4.864)" fill="#f40808"/>
        <path id="Trazado_741112" data-name="Trazado 741112" d="M77.052,40.42a36.632,36.632,0,1,0,36.632,36.632A36.674,36.674,0,0,0,77.052,40.42m0,71.272a34.64,34.64,0,1,1,34.64-34.64A34.679,34.679,0,0,1,77.052,111.692Z" transform="translate(-33.552 -33.552)"/>
        <path id="Trazado_741113" data-name="Trazado 741113" d="M74.259,12.741A43.5,43.5,0,0,0,12.741,74.259,43.5,43.5,0,0,0,74.259,12.741Zm-1.409,60.11a41.508,41.508,0,0,1-58.7-58.7,41.508,41.508,0,1,1,58.7,58.7Z"/>
        <path id="Trazado_741114" data-name="Trazado 741114" d="M157.05,140.628a7.069,7.069,0,0,0,2.113.316,7.286,7.286,0,0,0,7.286-7.286,7.2,7.2,0,0,0-.526-2.712l-4.331,4.331-3.238-.81-.81-3.238,4.331-4.331a7.2,7.2,0,0,0-2.712-.526,7.286,7.286,0,0,0-7.286,7.286,7.063,7.063,0,0,0,.316,2.113l-20.061,20.061a7.074,7.074,0,0,0-2.113-.316,7.286,7.286,0,0,0-7.286,7.286,7.2,7.2,0,0,0,.526,2.712l4.331-4.331,3.238.81.81,3.238-4.331,4.331a7.2,7.2,0,0,0,2.712.526A7.286,7.286,0,0,0,137.3,162.8a7.067,7.067,0,0,0-.316-2.113Z" transform="translate(-101.877 -104.899)" fill="#e7eaef"/>
        <path id="Trazado_741115" data-name="Trazado 741115" d="M188.109,153.29l-1.142,1.142a8.1,8.1,0,0,1-8.047,7.237,7.93,7.93,0,0,1-1.87-.219l-19.43,19.43a8.1,8.1,0,0,1-7.019,9.925l-1.142,1.142a7.2,7.2,0,0,0,2.744.486,7.286,7.286,0,0,0,7.286-7.286,7.063,7.063,0,0,0-.316-2.113l20.061-20.061a7.073,7.073,0,0,0,2.113.316A7.286,7.286,0,0,0,188.635,156,7.2,7.2,0,0,0,188.109,153.29Z" transform="translate(-124.063 -127.243)" fill="#d8dbe0"/>
        <path id="Trazado_741116" data-name="Trazado 741116" d="M229.367,220.045a3.433,3.433,0,0,1-5.861,2.429L196.58,195.547l4.857-4.857,26.926,26.926A3.432,3.432,0,0,1,229.367,220.045Z" transform="translate(-163.177 -158.288)" fill="#fcb860"/>
        <path id="Trazado_741117" data-name="Trazado 741117" d="M357.581,348.259a3.432,3.432,0,0,0-1-2.429l-.68-.68a4.61,4.61,0,0,1,.065.68,4.258,4.258,0,0,1-4.242,4.242,4.852,4.852,0,0,1-.68-.065l.68.68a3.433,3.433,0,0,0,5.861-2.429" transform="translate(-291.391 -286.501)" fill="#fcaa52"/>
        <path id="Trazado_741118" data-name="Trazado 741118" d="M144.856,133.657l2.429,2.429L140,143.372l-1.214-1.214a1.717,1.717,0,0,0-2.429,2.429l-6.476-6.477a1.717,1.717,0,0,0,2.429-2.429l-.4-.4,5.667-5.667a10.3,10.3,0,0,1,7.1-3.238,11.362,11.362,0,0,1,8.274,4.048C147.285,127.99,142.427,131.228,144.856,133.657Z" transform="translate(-107.81 -104.898)" fill="#565d69"/>
        <path id="Trazado_741119" data-name="Trazado 741119" d="M122.24,200.358l-2.1,2.1a1.619,1.619,0,0,1-2.283,0l-5-5a1.619,1.619,0,0,1,0-2.283l2.1-2.1Z" transform="translate(-93.29 -160.265)" fill="#4e5460"/>
        <path id="Trazado_741120" data-name="Trazado 741120" d="M155.112,159.7l-16.24-16.232,5.894-5.886a7.94,7.94,0,0,0,1.87.219,8.1,8.1,0,0,0,8.1-8.1,7.992,7.992,0,0,0-.583-3.02.81.81,0,0,0-1.328-.267l-4.048,4.048-2.323-.575-.575-2.324,4.048-4.007a.81.81,0,0,0-.267-1.328,8.177,8.177,0,0,0-6.622.267.81.81,0,1,0,.729,1.441,6.549,6.549,0,0,1,4.048-.567l-3.368,3.368a.809.809,0,0,0-.21.81l.81,3.238a.81.81,0,0,0,.591.591l3.238.81a.81.81,0,0,0,.81-.211l3.368-3.368a6.272,6.272,0,0,1,.065,1.093,6.477,6.477,0,0,1-8.347,6.2.81.81,0,0,0-.81.194l-6.226,6.226-3.716-3.716,6.226-6.217a.81.81,0,0,0,.194-.81,6.477,6.477,0,0,1,1.166-5.926.812.812,0,0,0-1.263-1.02,8.1,8.1,0,0,0-1.8,5.068,7.932,7.932,0,0,0,.219,1.87l-5.886,5.894-4.121-4.121.648-.64a.81.81,0,0,0,0-1.145l0,0-2.429-2.429a.931.931,0,0,1-.243-1.294l.024-.034c.81-1.19,3.918-2.1,7.424-.591a.812.812,0,0,0,.955-1.247,12.212,12.212,0,0,0-8.921-4.355,10.994,10.994,0,0,0-7.675,3.473l-5.667,5.667a.809.809,0,0,0,0,1.145l0,0,.4.4a.907.907,0,1,1-1.279,1.279l-.4-.4a.81.81,0,0,0-1.145,0l0,0-2.089,2.1a2.429,2.429,0,0,0,0,3.433l5,5a2.429,2.429,0,0,0,3.432,0l2.1-2.089a.81.81,0,0,0,0-1.145l0,0-.4-.4a.907.907,0,0,1,1.279-1.279l1.214,1.214a.81.81,0,0,0,1.145,0l0,0,.639-.648,4.121,4.121-7.513,7.5a7.941,7.941,0,0,0-1.87-.219,8.1,8.1,0,0,0-8.1,8.1,7.959,7.959,0,0,0,.583,3.02.809.809,0,0,0,1.328.267l4.048-4.048,2.324.575.575,2.324-4.048,4.048a.81.81,0,0,0,.267,1.328,7.992,7.992,0,0,0,3.02.583,8.1,8.1,0,0,0,7.877-9.974l7.5-7.5,11.569,11.577a.81.81,0,0,0,1.145,0l0,0a.81.81,0,0,0,0-1.145l0,0L123.9,138.2l3.716-3.716,26.351,26.36a2.623,2.623,0,0,1-3.708,3.708l-2.234-2.234a.813.813,0,0,0-1.15,1.15l2.234,2.234a4.25,4.25,0,0,0,6.007-6.007Zm-31.225-3.538a.81.81,0,0,0-.194.81,6.476,6.476,0,0,1-6.2,8.355,6.267,6.267,0,0,1-1.174-.105l3.368-3.368a.809.809,0,0,0,.211-.81l-.81-3.238a.809.809,0,0,0-.591-.591l-3.238-.81a.81.81,0,0,0-.81.211l-3.327,3.408a7.1,7.1,0,0,1-.105-1.174,6.476,6.476,0,0,1,8.347-6.2.81.81,0,0,0,.81-.194l7.845-7.845,3.716,3.716Zm-8.249-13.6a.81.81,0,0,1-1.145,0l0,0-5-5a.81.81,0,0,1,0-1.145l0,0,1.522-1.522,6.145,6.145Zm5.262-4.93a2.542,2.542,0,0,0-3.578,0,2.431,2.431,0,0,0-.518.769l-3.141-3.149a2.526,2.526,0,0,0,.915-3.926l5.108-5.1a8.816,8.816,0,0,1,11.715-1.376c-2.745-.251-5.052.664-5.991,2.048a2.542,2.542,0,0,0,.413,3.384l1.862,1.854-6.145,6.145Z" transform="translate(-89.351 -100.943)"/>
        <path id="Trazado_741121" data-name="Trazado 741121" d="M327.8,349.365l-2.424-2.424-1.154,1.145,2.429,2.429Z" transform="translate(-269.126 -287.988)"/>
        <path id="Trazado_741122" data-name="Trazado 741122" d="M300.94,130.005a16.229,16.229,0,0,1,2.162-1.716l-.729-1.441a18.349,18.349,0,0,0-2.7,2.137c-.463.634,1.263,1.02,1.263,1.02" transform="translate(-248.69 -105.294)"/>
      </g>
    </g>
  </g>
</svg>
