<svg xmlns="http://www.w3.org/2000/svg" width="40.336" height="138.931" viewBox="0 0 40.336 138.931">
  <g id="Grupo_930099" data-name="Grupo 930099" transform="translate(-444.903 -59.357)">
    <rect id="Rectángulo_320406" data-name="Rectángulo 320406" width="35.701" height="1.38" transform="translate(444.903 196.908)" fill="#27355c"/>
    <rect id="Rectángulo_320407" data-name="Rectángulo 320407" width="20.606" height="1.379" transform="translate(459.128 192.317)" fill="#27355c"/>
    <path id="Trazado_741347" data-name="Trazado 741347" d="M406.855,125.118a5.953,5.953,0,1,1,5.951,5.953,5.954,5.954,0,0,1-5.951-5.953m2.654,0a3.3,3.3,0,1,0,3.3-3.3,3.3,3.3,0,0,0-3.3,3.3" transform="translate(66.479 19.472)" fill="#64b4d7"/>
    <path id="Trazado_741350" data-name="Trazado 741350" d="M414.546,56.636l-2.359-.008.029-5.606,2.357.008Z" transform="translate(67.351 8.336)" fill="#1c2745"/>
    <rect id="Rectángulo_320424" data-name="Rectángulo 320424" width="5.607" height="2.358" transform="translate(479.498 73.312) rotate(-89.745)" fill="#1c2745"/>
    <rect id="Rectángulo_320425" data-name="Rectángulo 320425" width="5.607" height="2.359" transform="translate(479.458 81.662) rotate(-89.802)" fill="#1c2745"/>
    <rect id="Rectángulo_320426" data-name="Rectángulo 320426" width="5.606" height="2.359" transform="translate(479.408 90.01) rotate(-89.661)" fill="#1c2745"/>
    <rect id="Rectángulo_320427" data-name="Rectángulo 320427" width="5.607" height="2.359" transform="translate(479.372 98.363) rotate(-89.746)" fill="#1c2745"/>
    <rect id="Rectángulo_320428" data-name="Rectángulo 320428" width="5.606" height="2.359" transform="translate(479.324 106.711) rotate(-89.661)" fill="#1c2745"/>
    <rect id="Rectángulo_320429" data-name="Rectángulo 320429" width="5.606" height="2.359" transform="translate(479.288 115.062) rotate(-89.746)" fill="#1c2745"/>
  </g>
</svg>
