<svg xmlns="http://www.w3.org/2000/svg" width="519" height="331.923" viewBox="0 0 519 331.923">
  <g id="Grupo_930095" data-name="Grupo 930095" transform="translate(0 0)">
    <g id="Grupo_930105" data-name="Grupo 930105">
      <path id="Trazado_741233" data-name="Trazado 741233" d="M347.185,96.734A19.706,19.706,0,1,1,328.349,76.2a19.668,19.668,0,0,1,18.835,20.539" transform="translate(50.293 12.447)" fill="#cbe9f4"/>
      <path id="Trazado_741236" data-name="Trazado 741236" d="M118.827,189.134A19.706,19.706,0,1,1,99.993,168.6a19.666,19.666,0,0,1,18.834,20.539" transform="translate(12.98 27.545)" fill="#cbe9f4"/>
      <path id="Trazado_741238" data-name="Trazado 741238" d="M140.907,193.281a39.051,39.051,0,1,1-37.336-40.718,39.036,39.036,0,0,1,37.336,40.718" transform="translate(10.268 24.923)" fill="#cbe9f4"/>
      <path id="Trazado_741239" data-name="Trazado 741239" d="M258.64,264.945c11.575-9.44,13.834-27.966,5.061-41.363-7.077-10.807-19.173-14.972-29.659-11.236a48.259,48.259,0,0,0-2.854-5.018c-13-19.866-37.438-24.623-54.58-10.628-8.4,6.854-13.481,16.939-14.957,27.78a17.314,17.314,0,0,0-11.889,3.966c-8.543,6.972-10.217,20.647-3.733,30.545s18.659,12.279,27.2,5.306c.168-.135.307-.283.463-.422,13.608,14.783,34.7,17.233,50,4.75a38.933,38.933,0,0,0,4.249-4.054c9.085,7.358,21.46,7.92,30.7.375" transform="translate(23.216 30.828)" fill="#d9f3f7"/>
      <path id="Trazado_741240" data-name="Trazado 741240" d="M184.651,282.393c16.172-13.2,18.93-39.713,6.166-59.206-10.294-15.726-27.543-22.07-42.317-17.026a74.568,74.568,0,0,0-4.17-7.286c-18.915-28.9-53.677-36.47-77.641-16.909-11.736,9.581-18.7,23.9-20.521,39.409a23.561,23.561,0,0,0-16.756,5.332c-11.945,9.746-13.981,29.318-4.552,43.718s26.752,18.186,38.689,8.438c.234-.187.426-.393.645-.589,19.649,21.625,66.927,6.46,88.307-10.988,2.137-1.744-13.2,15.673-11.38,13.632,13.057,10.836,30.616,12.018,43.532,1.476" transform="translate(3.093 27.957)" fill="#d9f3f7"/>
      <path id="Trazado_741241" data-name="Trazado 741241" d="M380.877,278.258c16.172-13.2,18.93-39.712,6.166-59.205-10.295-15.726-27.545-22.07-42.317-17.026a74.054,74.054,0,0,0-4.17-7.285c-18.916-28.9-53.677-36.471-77.641-16.908-11.736,9.578-18.7,23.9-20.52,39.407a23.57,23.57,0,0,0-16.758,5.332c-11.946,9.747-13.982,29.316-4.551,43.719s26.751,18.184,38.688,8.438c.234-.19.425-.4.646-.591,19.647,21.628,66.924,6.463,88.3-10.987,2.138-1.744-13.2,15.673-11.379,13.632,13.058,10.837,30.616,12.018,43.532,1.475" transform="translate(35.156 27.282)" fill="#bcdade"/>
      <path id="Trazado_741242" data-name="Trazado 741242" d="M443.006,278.342c11.228-9.156,13.417-27.126,4.91-40.121-6.865-10.485-18.6-14.525-28.77-10.9a46.579,46.579,0,0,0-2.77-4.868c-12.609-19.271-36.314-23.885-52.943-10.31-8.146,6.648-13.077,16.433-14.508,26.948a16.782,16.782,0,0,0-11.532,3.847c-8.287,6.765-9.911,20.027-3.623,29.628s18.1,11.911,26.381,5.149c.164-.13.3-.275.45-.41,13.2,14.34,33.663,16.718,48.5,4.606a37.574,37.574,0,0,0,4.122-3.932c8.814,7.139,20.817,7.683,29.781.363" transform="translate(53.912 33.39)" fill="#d9f3f7"/>
      <path id="Trazado_741243" data-name="Trazado 741243" d="M234.075,2.95l-.554-1.844a31.368,31.368,0,0,1,4.31-1.1l.294,1.91a27.794,27.794,0,0,0-4.051,1.032" transform="translate(38.157 0)" fill="#ffb502"/>
      <path id="Trazado_741244" data-name="Trazado 741244" d="M229.294,5.336,228.316,3.7s.969-.584,1.964-1.125c1.011-.493,2.043-.952,2.043-.952l.691,1.794s-.953.422-1.894.875c-.925.5-1.825,1.047-1.825,1.047" transform="translate(37.306 0.265)" fill="#ffb502"/>
      <path id="Trazado_741245" data-name="Trazado 741245" d="M225.18,8.9l-1.341-1.322a26.089,26.089,0,0,1,3.377-3.089l1.115,1.548A22.949,22.949,0,0,0,225.18,8.9" transform="translate(36.574 0.733)" fill="#ffb502"/>
      <path id="Trazado_741246" data-name="Trazado 741246" d="M222.2,13.59,220.59,12.7a3.482,3.482,0,0,1,.3-.679c.209-.383.493-.9.769-1.41a10.444,10.444,0,0,1,.86-1.358c.254-.356.422-.6.422-.6l1.45,1.189s-.154.226-.389.555a8.466,8.466,0,0,0-.8,1.26c-.257.472-.519.956-.712,1.311a3.709,3.709,0,0,0-.285.624" transform="translate(36.044 1.414)" fill="#ffb502"/>
      <path id="Trazado_741247" data-name="Trazado 741247" d="M220.747,19.033l-1.766-.418a31.731,31.731,0,0,1,.873-4.141l.143-.5,1.686.746-.136.467a29.023,29.023,0,0,0-.8,3.849" transform="translate(35.781 2.283)" fill="#ffb502"/>
      <path id="Trazado_741248" data-name="Trazado 741248" d="M220.107,24.761l-1.8-.193s.106-1.147.214-2.308.25-2.307.25-2.307l1.79.256s-.126,1.13-.245,2.267-.213,2.285-.213,2.285" transform="translate(35.672 3.26)" fill="#ffb502"/>
      <path id="Trazado_741249" data-name="Trazado 741249" d="M219.672,30.625l-1.8-.148.329-4.613,1.8.169Z" transform="translate(35.6 4.226)" fill="#ffb502"/>
      <path id="Trazado_741250" data-name="Trazado 741250" d="M219.279,36.519l-1.794-.15.3-4.6,1.8.149Z" transform="translate(35.537 5.191)" fill="#ffb502"/>
      <path id="Trazado_741251" data-name="Trazado 741251" d="M218.851,42.5l-1.785-.34.337-4.508,1.794.156Z" transform="translate(35.468 6.153)" fill="#ffb502"/>
      <path id="Trazado_741252" data-name="Trazado 741252" d="M218.292,48.671l-1.725-.848.407-4.427,1.766.51Z" transform="translate(35.386 7.091)" fill="#ffb502"/>
      <path id="Trazado_741253" data-name="Trazado 741253" d="M217.552,54.8l-1.637-1.336.532-4.407,1.7,1.011s-.138,1.183-.283,2.377l-.313,2.355" transform="translate(35.28 8.016)" fill="#ffb502"/>
      <path id="Trazado_741254" data-name="Trazado 741254" d="M216.539,60.842l-1.51-1.771s.2-1.089.392-2.18c.164-1.1.336-2.2.336-2.2l1.6,1.484s-.187,1.173-.382,2.336c-.209,1.163-.434,2.326-.434,2.326" transform="translate(35.135 8.937)" fill="#ffb502"/>
      <path id="Trazado_741255" data-name="Trazado 741255" d="M215.159,66.735,213.821,64.6s.261-1.075.526-2.146c.232-1.084.469-2.169.469-2.169l1.454,1.894s-.264,1.148-.521,2.291c-.3,1.125-.59,2.263-.59,2.263" transform="translate(34.938 9.851)" fill="#ffb502"/>
      <path id="Trazado_741256" data-name="Trazado 741256" d="M213.221,72.363l-1.127-2.409s.421-1.019.754-2.065c.377-1.037.672-2.107.672-2.107l1.263,2.234s-.323,1.118-.734,2.19c-.373,1.1-.828,2.158-.828,2.158" transform="translate(34.656 10.749)" fill="#ffb502"/>
      <path id="Trazado_741257" data-name="Trazado 741257" d="M210.466,77.519l-.876-2.62,1.119-1.864c.48-.982.968-1.961.968-1.961l1.046,2.489-1.051,2.029c-.6.967-1.206,1.928-1.206,1.928" transform="translate(34.247 11.613)" fill="#ffb502"/>
      <path id="Trazado_741258" data-name="Trazado 741258" d="M206.406,81.5l-.579-2.779s.846-.64,1.654-1.329c.735-.786,1.5-1.539,1.464-1.566l.785,2.68a5.541,5.541,0,0,1-.478.519c-.3.3-.693.7-1.081,1.095-.869.712-1.765,1.38-1.765,1.38" transform="translate(33.632 12.39)" fill="#ffb502"/>
      <path id="Trazado_741259" data-name="Trazado 741259" d="M201.045,82.972l-.234-2.855a15.785,15.785,0,0,0,2.057-.285c1-.282,1.975-.66,1.975-.66l.468,2.807s-1.035.392-2.093.679a20.078,20.078,0,0,1-2.173.313" transform="translate(32.812 12.937)" fill="#ffb502"/>
      <path id="Trazado_741260" data-name="Trazado 741260" d="M195.549,81.742l.118-2.838s.966.407,1.937.805c1.02.212,2.037.427,2.037.427l.116,2.843s-1.077-.207-2.157-.43c-1.03-.4-2.051-.807-2.051-.807" transform="translate(31.952 12.893)" fill="#ffb502"/>
      <path id="Trazado_741261" data-name="Trazado 741261" d="M191.144,78.1l.428-2.728s.692.824,1.446,1.6c.4.355.8.712,1.1.971a6.628,6.628,0,0,0,.513.427l-.233,2.812s-.22-.162-.54-.439-.746-.639-1.173-1c-.8-.792-1.545-1.639-1.546-1.644" transform="translate(31.233 12.315)" fill="#ffb502"/>
      <path id="Trazado_741262" data-name="Trazado 741262" d="M187.874,73.262l.7-2.571s.492.977,1.08,1.9a20.283,20.283,0,0,0,1.183,1.834l-.52,2.689a21.76,21.76,0,0,1-1.269-1.9c-.635-.938-1.17-1.953-1.17-1.953" transform="translate(30.698 11.551)" fill="#ffb502"/>
      <path id="Trazado_741263" data-name="Trazado 741263" d="M185.277,67.916l.945-2.333s.433,1.017.867,2.03c.464,1,.921,2,.921,2l-.776,2.5s-.5-1.038-1.009-2.074-.948-2.119-.948-2.119" transform="translate(30.274 10.716)" fill="#ffb502"/>
      <path id="Trazado_741264" data-name="Trazado 741264" d="M183.056,62.295l1.173-1.984s.378,1.033.754,2.073c.4,1.03.8,2.056.8,2.056l-1.026,2.228s-.434-1.084-.87-2.17c-.411-1.105-.829-2.2-.829-2.2" transform="translate(29.911 9.855)" fill="#ffb502"/>
      <path id="Trazado_741265" data-name="Trazado 741265" d="M181.014,56.519l1.369-1.547,1.45,4.174-1.239,1.849Z" transform="translate(29.577 8.982)" fill="#ffb502"/>
      <path id="Trazado_741266" data-name="Trazado 741266" d="M179.01,50.7l1.544-1.076,1.453,4.177-1.429,1.393Z" transform="translate(29.25 8.108)" fill="#ffb502"/>
      <path id="Trazado_741267" data-name="Trazado 741267" d="M176.929,44.994l1.659-.745s.407,1.07.82,2.135c.385,1.04.764,2.076.764,2.076l-1.6.912s-.408-1.118-.821-2.231c-.408-1.08-.82-2.146-.82-2.146" transform="translate(28.91 7.23)" fill="#ffb502"/>
      <path id="Trazado_741268" data-name="Trazado 741268" d="M174.669,39.666l1.605-.857s.484,1.052.957,2.106c.448,1.067.892,2.134.892,2.134l-1.647.766s-.441-1.046-.882-2.1c-.464-1.025-.926-2.052-.926-2.052" transform="translate(28.541 6.341)" fill="#ffb502"/>
      <path id="Trazado_741269" data-name="Trazado 741269" d="M171.991,34.623l1.515-1.049s.585,1,1.167,2c.529,1.027,1.062,2.056,1.062,2.056l-1.587.91s-.515-.994-1.027-1.993c-.564-.962-1.13-1.92-1.13-1.92" transform="translate(28.103 5.486)" fill="#ffb502"/>
      <path id="Trazado_741270" data-name="Trazado 741270" d="M168.7,30.121l1.295-1.338s.735.9,1.465,1.79a13.246,13.246,0,0,1,.944,1.279c.248.364.414.6.414.6l-1.459,1.131s-.156-.22-.39-.569a12.226,12.226,0,0,0-.89-1.208L168.7,30.121" transform="translate(27.565 4.703)" fill="#ffb502"/>
      <path id="Trazado_741271" data-name="Trazado 741271" d="M164.533,26.725l.857-1.7a24.88,24.88,0,0,1,3.69,2.762L167.9,29.241a21.8,21.8,0,0,0-3.365-2.515" transform="translate(26.884 4.089)" fill="#ffb502"/>
      <path id="Trazado_741272" data-name="Trazado 741272" d="M159.605,24.954l.234-1.908s1.115.25,2.221.5a8.136,8.136,0,0,1,1.482.512c.392.164.661.269.661.269l-.674,1.793s-.235-.1-.6-.245a6.713,6.713,0,0,0-1.332-.46c-1-.234-2-.464-2-.464" transform="translate(26.079 3.766)" fill="#ffb502"/>
      <path id="Trazado_741273" data-name="Trazado 741273" d="M154.437,25.162l-.378-1.893a22.533,22.533,0,0,1,4.486-.348l-.036,1.929s-.252-.015-.64-.044c-.389.029-.905.07-1.418.118s-1.025.08-1.412.115c-.28.04-.628.129-.6.123" transform="translate(25.173 3.738)" fill="#ffb502"/>
      <path id="Trazado_741274" data-name="Trazado 741274" d="M149.857,27.531l-1.1-1.537a12.69,12.69,0,0,1,1.932-1.316,9.766,9.766,0,0,1,2.143-.969l.508,1.856a8.227,8.227,0,0,0-1.8.82,11.218,11.218,0,0,0-1.678,1.146" transform="translate(24.306 3.874)" fill="#ffb502"/>
      <path id="Trazado_741275" data-name="Trazado 741275" d="M146.646,31.916l-1.581-.948.335-.657c.232-.377.55-.883.856-1.381a21.986,21.986,0,0,1,1.431-1.889l1.308,1.334a19.291,19.291,0,0,0-1.266,1.682c-.289.453-.568.906-.781,1.251-.183.364-.3.608-.3.608" transform="translate(23.703 4.418)" fill="#ffb502"/>
      <path id="Trazado_741276" data-name="Trazado 741276" d="M144.671,37.218l-1.724-.557a21.224,21.224,0,0,1,.681-2.241c.346-1.117.819-2.2.819-2.2l1.65.795a21.689,21.689,0,0,0-.769,2.07,21.689,21.689,0,0,0-.656,2.136" transform="translate(23.357 5.264)" fill="#ffb502"/>
      <path id="Trazado_741277" data-name="Trazado 741277" d="M143.461,42.87l-1.773-.359s.171-1.146.418-2.291c.208-1.144.485-2.277.485-2.277l1.746.471s-.259,1.1-.472,2.214c-.228,1.112-.4,2.242-.4,2.242" transform="translate(23.152 6.2)" fill="#ffb502"/>
      <path id="Trazado_741278" data-name="Trazado 741278" d="M142.637,48.654l-1.79-.262.622-4.594,1.781.313Z" transform="translate(23.014 7.157)" fill="#ffb502"/>
      <path id="Trazado_741279" data-name="Trazado 741279" d="M141.96,54.508l-1.79-.248.519-4.588,1.792.252Z" transform="translate(22.903 8.116)" fill="#ffb502"/>
      <path id="Trazado_741280" data-name="Trazado 741280" d="M141.232,60.386l-1.783-.3.576-4.552,1.788.254Z" transform="translate(22.786 9.075)" fill="#ffb502"/>
      <path id="Trazado_741281" data-name="Trazado 741281" d="M140.276,66.261l-1.761-.41s.2-1.12.41-2.236c.18-1.13.359-2.257.359-2.257l1.778.323s-.184,1.144-.368,2.292c-.212,1.141-.418,2.287-.418,2.287" transform="translate(22.633 10.026)" fill="#ffb502"/>
      <path id="Trazado_741282" data-name="Trazado 741282" d="M138.841,72.066l-1.709-.618s.312-1.078.621-2.162c.266-1.1.533-2.2.533-2.2l1.753.462s-.277,1.132-.55,2.269c-.325,1.122-.648,2.244-.648,2.244" transform="translate(22.407 10.963)" fill="#ffb502"/>
      <path id="Trazado_741283" data-name="Trazado 741283" d="M136.55,77.628l-1.559-.976s.485-.995.959-1.979c.418-1.03.831-2.056.831-2.056l1.679.722s-.436,1.089-.878,2.176c-.515,1.055-1.031,2.113-1.031,2.113" transform="translate(22.057 11.865)" fill="#ffb502"/>
      <path id="Trazado_741284" data-name="Trazado 741284" d="M133.061,82.4l-1.319-1.327,1.431-1.7,1.268-1.718,1.471,1.12-1.36,1.857Z" transform="translate(21.526 12.689)" fill="#ffb502"/>
      <path id="Trazado_741285" data-name="Trazado 741285" d="M128.846,86.413l-1.079-1.552s.846-.655,1.625-1.4,1.552-1.524,1.552-1.519l1.254,1.393s-.789.812-1.624,1.59-1.729,1.484-1.729,1.484" transform="translate(20.877 13.39)" fill="#ffb502"/>
      <path id="Trazado_741286" data-name="Trazado 741286" d="M123.656,89.141l-.5-1.864a11.872,11.872,0,0,0,1.888-.753c.917-.461,1.8-1.024,1.8-1.024l.945,1.651s-.968.62-1.992,1.139a15,15,0,0,1-2.149.85" transform="translate(20.124 13.971)" fill="#ffb502"/>
      <path id="Trazado_741287" data-name="Trazado 741287" d="M117.669,88.664l.653-1.794a9.891,9.891,0,0,0,1.878.534,9.715,9.715,0,0,0,1.953.042l.166,1.927a11.016,11.016,0,0,1-2.357-.05,11.316,11.316,0,0,1-2.293-.658" transform="translate(19.227 14.194)" fill="#ffb502"/>
      <path id="Trazado_741288" data-name="Trazado 741288" d="M113.018,84.735l1.4-1.209a14.447,14.447,0,0,0,1.391,1.6,11.906,11.906,0,0,0,1.568,1.331l-.98,1.614a13.966,13.966,0,0,1-1.82-1.538,16.806,16.806,0,0,1-1.559-1.8" transform="translate(18.467 13.648)" fill="#ffb502"/>
      <path id="Trazado_741289" data-name="Trazado 741289" d="M110.091,79.407l1.646-.779a29.88,29.88,0,0,0,1.979,3.938l-1.509,1.049a32.8,32.8,0,0,1-2.116-4.208" transform="translate(17.988 12.848)" fill="#ffb502"/>
      <path id="Trazado_741290" data-name="Trazado 741290" d="M108.236,73.654l1.743-.491s.264,1.1.588,2.181.688,2.137.688,2.137l-1.685.667s-.385-1.108-.724-2.233-.61-2.262-.61-2.262" transform="translate(17.686 11.955)" fill="#ffb502"/>
      <path id="Trazado_741291" data-name="Trazado 741291" d="M107.146,67.715l1.79-.251s.134,1.126.323,2.244.4,2.226.4,2.226l-1.76.407s-.2-1.158-.421-2.309c-.2-1.155-.335-2.316-.335-2.316" transform="translate(17.507 11.023)" fill="#ffb502"/>
      <path id="Trazado_741292" data-name="Trazado 741292" d="M178.56,276.4c9.34-7.615,11.4-22.193,4.623-32.547-5.469-8.353-15.024-11.4-23.416-8.283a35.928,35.928,0,0,0-2.2-3.885c-10.047-15.353-29.406-18.645-43.237-7.354A35.378,35.378,0,0,0,102.041,246.4a14.389,14.389,0,0,0-9.508,3.328c-6.893,5.625-8.423,16.384-3.412,24.035s14.656,9.3,21.545,3.674c.136-.108.249-.228.373-.34,10.606,11.354,27.341,12.9,39.682,2.821a32.547,32.547,0,0,0,3.438-3.256,19.164,19.164,0,0,0,24.4-.262" transform="translate(14.08 35.558)" fill="#9aeef8"/>
      <path id="Trazado_741293" data-name="Trazado 741293" d="M385.833,275.461c9.917-8.088,11.85-23.96,4.336-35.437-6.061-9.259-16.427-12.828-25.409-9.628a41.907,41.907,0,0,0-2.445-4.3c-11.138-17.021-32.076-21.1-46.763-9.1a36.864,36.864,0,0,0-12.814,23.8,14.84,14.84,0,0,0-10.186,3.4c-7.32,5.973-8.755,17.689-3.2,26.168s15.985,10.518,23.3,4.548c.145-.115.264-.243.4-.362,11.66,12.666,29.735,14.763,42.841,4.068a33.822,33.822,0,0,0,3.64-3.472c7.784,6.3,18.384,6.785,26.3.32" transform="translate(46.727 34.331)" fill="#9aeef8"/>
      <path id="Trazado_741294" data-name="Trazado 741294" d="M519,267.169c0,9.754-116.18,17.66-259.5,17.66S0,276.922,0,267.169s116.182-17.662,259.5-17.662S519,257.414,519,267.169" transform="translate(0 47.095)" fill="#4cc9d9"/>
      <path id="Trazado_741295" data-name="Trazado 741295" d="M41.341,92.825l1.065-.995,4.246,4.5a3.367,3.367,0,0,0,4.735.154L55.011,93.1a4.813,4.813,0,0,1,6.814.244l2.794,3.006a3.367,3.367,0,0,0,4.787.138l3.168-3.047a4.812,4.812,0,0,1,7.018.375l1.732,2.055a3.368,3.368,0,0,0,5.1.054l3.843-4.385,1.09.96-3.838,4.388A4.812,4.812,0,0,1,80.21,96.8l-1.721-2.056a3.368,3.368,0,0,0-4.906-.258l-3.176,3.045a4.8,4.8,0,0,1-6.855-.192l-2.79-3a3.366,3.366,0,0,0-2.344-1.07,3.323,3.323,0,0,0-2.409.9l-3.624,3.38a4.827,4.827,0,0,1-6.786-.216Z" transform="translate(6.755 14.957)" fill="#464f72"/>
      <path id="Trazado_741298" data-name="Trazado 741298" d="M218.043,206.007l-23.648-98.171,81.779.679-24.434,97.767-4.16-1.044,23.1-92.488-70.832-.586L222.2,205.007Z" transform="translate(31.764 17.62)" fill="#464f72"/>
      <rect id="Rectángulo_320405" data-name="Rectángulo 320405" width="70.309" height="108.438" transform="translate(212.754 292.301) rotate(-89.526)" fill="#fff"/>
      <path id="Trazado_741299" data-name="Trazado 741299" d="M303.284,206.653a5.7,5.7,0,0,1-5.758,5.645l-119.337-.989a5.7,5.7,0,0,1,.092-11.4l119.336,1a5.706,5.706,0,0,1,5.667,5.749" transform="translate(28.192 32.664)" fill="#c1e4fa"/>
      <path id="Trazado_741300" data-name="Trazado 741300" d="M303.166,220.7a5.707,5.707,0,0,1-5.761,5.645l-119.325-.991a5.7,5.7,0,1,1,.092-11.4l119.343.992a5.694,5.694,0,0,1,5.652,5.75" transform="translate(28.174 34.961)" fill="#c1e4fa"/>
      <path id="Trazado_741301" data-name="Trazado 741301" d="M303.048,234.736a5.692,5.692,0,0,1-5.753,5.652L177.959,239.4a5.7,5.7,0,0,1,.1-11.4l119.323.987a5.7,5.7,0,0,1,5.665,5.751" transform="translate(28.156 37.255)" fill="#c1e4fa"/>
      <path id="Trazado_741302" data-name="Trazado 741302" d="M277.122,253.186a8.379,8.379,0,0,1-8.417,8.3l-67.33-.557a8.359,8.359,0,0,1,.138-16.717l67.325.561a8.358,8.358,0,0,1,8.285,8.409" transform="translate(31.551 39.904)" fill="#9aeef8"/>
      <path id="Trazado_741303" data-name="Trazado 741303" d="M303.407,192.6a5.723,5.723,0,0,1-5.765,5.651l-119.33-.992a5.7,5.7,0,0,1,.093-11.4l119.331.991a5.7,5.7,0,0,1,5.67,5.747" transform="translate(28.213 30.37)" fill="#c1e4fa"/>
      <path id="Trazado_741304" data-name="Trazado 741304" d="M65.2,143.81c.975-1.258,4.979-3.839,8.964-1.7,5.328,2.863,12.137,13.143,20.475,12.871,8.371-.283,11-5.269,13.2-8.372s1.612-5.388,3.1-7.051,3.385.173,1.054,6.01c-1.112,2.794-4.977,17.244-14.858,19.41C84.2,167.82,59.481,151.31,65.2,143.81" transform="translate(10.516 22.706)" fill="#fbc6b4"/>
      <path id="Trazado_741305" data-name="Trazado 741305" d="M66.462,140.9s-4.982,4.367,1.31,11.961S77.857,162.9,77.857,162.9s5.959-2.479,10.825-11.35c0,0-16.094-17.8-22.221-10.642" transform="translate(10.554 22.746)" fill="#eda503"/>
      <path id="Trazado_741306" data-name="Trazado 741306" d="M49.038,156.329c3.7,13.655,1.656,23.253,0,28.454,3.856,1.239,1.559,3.3,1.455,3.563-5.451,11.311,28.425,4.608,34.376-4.548,2.049-3.147.087-7.144.456-13.192.131-1.357.164-2.734.181-4.081a75.941,75.941,0,0,0-1.122-16.353c-2.661-12.479-14.4-13.087-21.538-12.091-3.245.448-7.474,1-10.725,2.909l-.016.026c-3.785,2.293-5.815,5.161-3.068,15.313" transform="translate(7.805 22.51)" fill="#ffb502"/>
      <path id="Trazado_741307" data-name="Trazado 741307" d="M57.255,149.65c1.464,6.2,6.7,25.117-8.4,34.577,0,0,24.992,18.3,39.289,2.465,0,0-2.876-27-6.872-37.728-1.147-3.082-4.193-12.544-9.679-11.174,0,0,9.641,15.186,5.242,19.2s-8.552.639-10.494-2.381c-3.112-4.862-6.431-16.1-6.431-16.1l-6.073.913a68.106,68.106,0,0,1,3.413,10.232" transform="translate(7.984 22.493)" fill="#3b3caa"/>
      <path id="Trazado_741308" data-name="Trazado 741308" d="M60.309,130.261s3.2,5.029-.2,8.383c-3.5,3.434,12.593,9.5,11.812,6.408-1-3.987-3.374-6.119-2-11.023Z" transform="translate(9.74 21.284)" fill="#f7b2a0"/>
      <path id="Trazado_741309" data-name="Trazado 741309" d="M67.866,120.735c3.872,2.8,9.4,16.6,6.2,20.211-1.419,1.573-8.1.854-13-4.892-2.022-2.345-4.728-6.915-2.749-12.1.9-2.356,5.067-6.475,9.556-3.218" transform="translate(9.415 19.531)" fill="#fbc6b4"/>
      <path id="Trazado_741310" data-name="Trazado 741310" d="M71.895,122.2c.988,1.694.824,2.131-4.465,3.647s-6.253,1.274-5.54,2.482c2.1,3.58-1.843,3.331.715,7.571,2.539,4.258-2.335,2.1-4.794-1.326-.485-.695-3.22-4.02-1.318-9.954,2.212-6.935,11.736-8.63,15.4-2.42" transform="translate(9.122 19.34)" fill="#1d1b3a"/>
      <path id="Trazado_741311" data-name="Trazado 741311" d="M60.427,131.3s16.362-4.622,15.6-9.725c-.47-3.142-9.968-1.908-9.968-1.908Z" transform="translate(9.874 19.514)" fill="#eda503"/>
      <path id="Trazado_741312" data-name="Trazado 741312" d="M72.053,122.471c-1.31,4.921-5.171,7.628-15.2,10.831,0,0-5.428-9.726,1.607-14.876,6.209-4.535,14.425.9,13.592,4.045" transform="translate(8.963 19.067)" fill="#ffb502"/>
      <path id="Trazado_741313" data-name="Trazado 741313" d="M51.2,139.951c1.453-.473,5.011-.133,6.947,3.718,2.6,5.155,2.3,16.915,8.967,21.259,6.69,4.355,11.471,1.9,14.9.679s4.2-3.318,6.275-3.815,2.559,2-2.462,5.278c-2.4,1.568-13.322,10.753-22.23,7.041-11.677-4.858-20.962-31.44-12.395-34.161" transform="translate(7.82 22.841)" fill="#fbc6b4"/>
      <path id="Trazado_741314" data-name="Trazado 741314" d="M52.609,139.312s-6.293.7-5.518,10.081c.766,9.368,2.392,13.345,2.392,13.345s6.016,1.323,14.672-2.945c0,0-2.848-22.717-11.546-20.482" transform="translate(7.684 22.738)" fill="#eda503"/>
      <path id="Trazado_741315" data-name="Trazado 741315" d="M41.949,227.209c-3.391,13.272-7.369,41.61-.85,41.771s10.146-1.824,6.4-2.874-3.908-1.471-3.793-2.523c1.615-13.688,23.015-35.031,24.833-51.3.612-5.555,1.035-10.637,1.323-15.1,2.434,11.916.643,24.564.855,28.745.69,14.874,3.868,42.991,11,43.048,7.593.054,11.323-2.05,6.472-3.053-4.2-.886-4.02-1.082-3.942-2.12,1.018-15.019,8.3-42.786,9.7-60.628,1.612-20.591-49.035,12.426-51.988,24.03" transform="translate(6.144 32.118)" fill="#fbc6b4"/>
      <path id="Trazado_741316" data-name="Trazado 741316" d="M72.078,255.9s5.662,2.247,9.162,0c0,0,6.382.862,2.374,2.413-4.025,1.561-11.775,2.846-11.536-2.413" transform="translate(11.776 41.814)" fill="#ffb502"/>
      <path id="Trazado_741317" data-name="Trazado 741317" d="M38.231,256.339s5.669,2.235,9.161,0c0,0,6.386.87,2.361,2.414S38,261.6,38.231,256.339" transform="translate(6.246 41.885)" fill="#ffb502"/>
      <path id="Trazado_741318" data-name="Trazado 741318" d="M89.14,172.178c-12.979,8.66-31.131,7.778-38.2,6.408-1.91,15.442-13.513,73.379-14.822,81.33,5.7,1.889,7.592,2.287,9.241,2.287,27.516-35.486,24.355-50.7,24.647-55.165,1.038,5.152-2.361,30.4,3.58,55.165,1.991,1.286,8.023,2.957,12.339,0,.216-1.583,8.292-30.023,8.116-52.285-.121-15.175-2.658-25.591-4.9-37.74" transform="translate(5.902 28.134)" fill="#3b3caa"/>
      <path id="Trazado_741319" data-name="Trazado 741319" d="M49.685,190.431a12.813,12.813,0,0,0,8.791-10.616l-1.071-.081a11.52,11.52,0,0,1-8.046,9.68Z" transform="translate(8.065 29.368)" fill="#fff"/>
      <path id="Trazado_741320" data-name="Trazado 741320" d="M83.344,188.724l.329-1.024a11.68,11.68,0,0,1-8.05-9.679l-1.07.081a12.8,12.8,0,0,0,8.791,10.622" transform="translate(12.182 29.088)" fill="#fff"/>
      <path id="Trazado_741321" data-name="Trazado 741321" d="M328.9,138.931c-.1-1.51-1.885-5.67-6.163-6.1-5.718-.583-16.546,3.9-22.967-.75-6.444-4.673-5.862-9.994-5.951-13.614s1.594-5.108,1.308-7.2c-.279-2.113-2.762-1.667-4.029,4.179-.61,2.789-5.247,16.226,1.388,23.185,8.689,9.125,36.93,9.258,36.413.307" transform="translate(47.215 17.991)" fill="#fbc6b4"/>
      <path id="Trazado_741322" data-name="Trazado 741322" d="M326.993,133.064s1.6,6.093-7.392,8.729-13.278,2.534-13.278,2.534-3.375-5.114-2.5-14.695c0,0,22.146-5.459,23.167,3.432" transform="translate(49.621 20.911)" fill="#eda503"/>
      <path id="Trazado_741323" data-name="Trazado 741323" d="M339.744,126.12l-.02-.027c-3.424-1.042-7.456-.617-10.552-.311-6.822.653-17.541,3.8-17.244,15.929a72.23,72.23,0,0,0,2.578,15.363c.309,1.242.646,2.507,1.068,3.73,1.672,5.513.742,9.635,3.333,12.1,7.523,7.147,42.694,7.331,35.161-1.924-.155-.219-2.064-3.4.149-4.928-2.677-4.445-3.662-10.213-5.257-14.029a30.684,30.684,0,0,1-1.2-3.527,31.209,31.209,0,0,1-1.109-9.547c.236-8.191-2.9-11.54-6.9-12.826" transform="translate(50.967 20.495)" fill="#ffb502"/>
      <path id="Trazado_741324" data-name="Trazado 741324" d="M313.885,204.08c7.895,5.56,20.051,11.085,24.721,15.63.743.724.9,1.092-.971,4-1.9,2.889,1.789,2.293,6.082-1.469s-15.934-22.6-26.431-30.564c-9.178-6.966-12.582,5.951-3.4,12.4" transform="translate(50.403 30.992)" fill="#fbc6b4"/>
      <path id="Trazado_741325" data-name="Trazado 741325" d="M339.951,214.505s-2.435,4.855-6.172,5.147c0,0-3.782,4.225-.12,3.12s9.7-4.491,6.292-8.267" transform="translate(54.258 35.05)" fill="#ffb502"/>
      <path id="Trazado_741326" data-name="Trazado 741326" d="M336.423,135.26c.021,6.05-1.061,15.577,13.74,19.945,0,0-17.407,32.589-34.117,21.116,0,0-3.3-25.592-1.98-36.4.38-3.1,1.061-11.533,7.44-12.494,0,0-6.516,16.195-1.567,18.938s8.05-1.3,9.175-4.526c1.8-5.177,5.848-16.4,5.848-16.4l3.949.517a19.929,19.929,0,0,0-2.487,9.3" transform="translate(51.267 20.497)" fill="#0b5999"/>
      <path id="Trazado_741327" data-name="Trazado 741327" d="M331.271,117.667s-2.92,4.857.4,7.956c3.412,3.18-11.727,9.335-11.059,6.38.847-3.811,3.059-5.9,1.625-10.524Z" transform="translate(52.383 19.227)" fill="#f7b2a0"/>
      <path id="Trazado_741328" data-name="Trazado 741328" d="M324.523,108.781c-3.61,2.76-8.524,16-5.391,19.354,1.386,1.457,7.714.615,12.235-4.974,1.863-2.274,4.322-6.683,2.316-11.562-.919-2.21-4.976-6.028-9.161-2.819" transform="translate(51.982 17.573)" fill="#fbc6b4"/>
      <path id="Trazado_741329" data-name="Trazado 741329" d="M320.662,110.26c-.9,1.633-.733,2.044,4.329,3.351,5.051,1.324,5.976,1.063,5.325,2.228-1.907,3.446,1.829,3.114-.492,7.21s2.266,1.943,4.521-1.381c.442-.669,2.955-3.9,1-9.486-2.267-6.535-11.361-7.911-14.687-1.921" transform="translate(52.327 17.393)" fill="#1d1b3a"/>
      <path id="Trazado_741330" data-name="Trazado 741330" d="M328.2,117.657s-12.195-3.021-11.6-7.9c.371-3,9.426-2.052,9.426-2.052Z" transform="translate(51.729 17.576)" fill="#eda503"/>
      <path id="Trazado_741331" data-name="Trazado 741331" d="M320.2,111.233c1.368,4.652,4.815,6.729,15.179,9.193,0,0,4.916-9.379-1.891-14.1-6.009-4.156-14.159,1.937-13.288,4.9" transform="translate(52.31 17.144)" fill="#ffb502"/>
      <path id="Trazado_741332" data-name="Trazado 741332" d="M321.587,163.8s-25.464,14.772-28.439,23.631,44.593,36.984,44.593,36.984,5.566-5.544,3-10.6c-9.631-18.968-13.153-25.04-13.153-25.04l23.6-19.653Z" transform="translate(47.878 26.764)" fill="#0b5999"/>
      <path id="Trazado_741333" data-name="Trazado 741333" d="M338.164,212.322c2.911,9.207,9.221,20.976,10.18,27.417.151,1.028.057,1.42-3.2,2.594-3.255,1.152.033,2.909,5.73,2.525s1.04-27.633-2.478-40.336c-3.069-11.1-13.608-2.893-10.23,7.8" transform="translate(55.147 32.554)" fill="#fbc6b4"/>
      <path id="Trazado_741334" data-name="Trazado 741334" d="M352.551,235.98s-4.885,2.392-8.033.349c0,0-5.567,1.07-1.986,2.406s10.44,2.315,10.019-2.755" transform="translate(55.773 38.559)" fill="#ffb502"/>
      <path id="Trazado_741335" data-name="Trazado 741335" d="M347.7,151.025a121.916,121.916,0,0,1,8.476,26.115c3.876,18.557.339,64.11.339,64.11s.806,1.459-10.549.037c-3.06-.391-17.168-62.438-17.168-62.438l3.773-17.37Z" transform="translate(53.726 24.677)" fill="#0b5999"/>
      <path id="Trazado_741336" data-name="Trazado 741336" d="M350.667,240.659c4.8-31.854-7.777-81.363-7.9-81.861l-.612.157c.128.5,12.671,49.881,7.89,81.611Z" transform="translate(55.907 25.947)" fill="#fff"/>
      <path id="Trazado_741337" data-name="Trazado 741337" d="M345.986,131.786c-.57-1.336-3.027-3.68-7-2.671-5.319,1.34-13.573,8.874-20.846,6.791-7.293-2.094-8.5-7.056-9.76-10.275s-.234-5.091-1.169-6.88c-.939-1.809-3.026-.6-2.258,5.049.369,2.7.568,16.265,8.78,20.351,10.759,5.36,35.628-4.519,32.251-12.365" transform="translate(49.802 19.276)" fill="#fbc6b4"/>
      <path id="Trazado_741338" data-name="Trazado 741338" d="M343.051,129.024s3.418,4.949-3.805,10.236c-7.2,5.276-11.076,6.591-11.076,6.591s-4.69-3.5-7.011-12.373c0,0,18.083-12.095,21.892-4.453" transform="translate(52.477 20.669)" fill="#eda503"/>
      <path id="Trazado_741339" data-name="Trazado 741339" d="M342.394,272.71l2.336-.945L301.879,166.121h25.093L370.21,272.71l2.341-.945L328.673,163.6h-30.54Z" transform="translate(48.714 26.732)" fill="#464f72"/>
      <rect id="Rectángulo_320408" data-name="Rectángulo 320408" width="27.818" height="2.522" transform="translate(367.982 237.821)" fill="#464f72"/>
      <rect id="Rectángulo_320409" data-name="Rectángulo 320409" width="27.819" height="2.522" transform="translate(373.553 250.859)" fill="#464f72"/>
      <rect id="Rectángulo_320410" data-name="Rectángulo 320410" width="27.819" height="2.525" transform="translate(378.368 264.026)" fill="#464f72"/>
      <rect id="Rectángulo_320411" data-name="Rectángulo 320411" width="27.818" height="2.522" transform="translate(384.405 277.453)" fill="#464f72"/>
      <rect id="Rectángulo_320412" data-name="Rectángulo 320412" width="82.123" height="2.526" transform="translate(331.036 298.525) rotate(-69.417)" fill="#464f72"/>
      <rect id="Rectángulo_320413" data-name="Rectángulo 320413" width="82.123" height="2.527" transform="matrix(0.351, -0.936, 0.936, 0.351, 359.906, 300.538)" fill="#464f72"/>
      <rect id="Rectángulo_320414" data-name="Rectángulo 320414" width="55.206" height="8.884" transform="translate(281.719 123.667)" fill="#64b4d7"/>
      <rect id="Rectángulo_320415" data-name="Rectángulo 320415" width="11.365" height="8.884" transform="translate(281.719 123.667)" fill="#4ca1bf"/>
      <path id="Trazado_741340" data-name="Trazado 741340" d="M306.5,118.974H234.65l2.434-8.837h66.978Z" transform="translate(38.341 17.996)" fill="#4dd0e1"/>
      <rect id="Rectángulo_320416" data-name="Rectángulo 320416" width="52.973" height="62.805" transform="translate(291.866 136.97)" fill="#c1e4fa"/>
      <rect id="Rectángulo_320417" data-name="Rectángulo 320417" width="23.646" height="62.805" transform="translate(272.991 136.97)" fill="#4dd0e1"/>
      <path id="Trazado_741341" data-name="Trazado 741341" d="M258.3,118.974l-1.827-8.837H237.084l-2.434,8.837Z" transform="translate(38.341 17.996)" fill="#3c93aa"/>
      <rect id="Rectángulo_320418" data-name="Rectángulo 320418" width="16.644" height="9.951" transform="translate(276.441 144.772)" fill="#848fb7"/>
      <rect id="Rectángulo_320419" data-name="Rectángulo 320419" width="12.532" height="1.219" transform="translate(278.497 146.041)" fill="#464f72"/>
      <rect id="Rectángulo_320420" data-name="Rectángulo 320420" width="12.532" height="1.219" transform="translate(278.497 148.173)" fill="#464f72"/>
      <rect id="Rectángulo_320421" data-name="Rectángulo 320421" width="12.532" height="1.22" transform="translate(278.497 150.354)" fill="#464f72"/>
      <rect id="Rectángulo_320422" data-name="Rectángulo 320422" width="12.532" height="1.223" transform="translate(278.497 152.485)" fill="#464f72"/>
      <path id="Trazado_741342" data-name="Trazado 741342" d="M292.6,135.239a14.314,14.314,0,1,1-14.314-14.312A14.314,14.314,0,0,1,292.6,135.239" transform="translate(43.132 19.759)" fill="#3c93aa"/>
      <path id="Trazado_741343" data-name="Trazado 741343" d="M290.328,134.96A12.323,12.323,0,1,1,278,122.638a12.323,12.323,0,0,1,12.324,12.322" transform="translate(43.412 20.039)" fill="#64b4d7"/>
      <rect id="Rectángulo_320423" data-name="Rectángulo 320423" width="29.882" height="3.404" transform="translate(307.043 171.469)" fill="#3c93aa"/>
      <path id="Trazado_741344" data-name="Trazado 741344" d="M287.1,171.066H268.966l9.071-18.136Z" transform="translate(43.948 24.988)" fill="#6d76a1"/>
      <path id="Trazado_741345" data-name="Trazado 741345" d="M270.476,169.465l7.314-14.246,7.313,14.246Z" transform="translate(44.195 25.362)" fill="#ffcf03"/>
      <path id="Trazado_741346" data-name="Trazado 741346" d="M275.5,167.831l-.138-6.431,1.659,2.238.45-5.662.028,7.378-1.341-1.86Z" transform="translate(44.994 25.813)" fill="#6d76a1"/>
      <path id="Trazado_741348" data-name="Trazado 741348" d="M0,237.93a4.689,4.689,0,1,0,4.7-4.692A4.7,4.7,0,0,0,0,237.93" transform="translate(0 38.111)" fill="#c1e4fa"/>
      <path id="Trazado_741349" data-name="Trazado 741349" d="M6.233,188.856c-.487-.647-.689-2.855-1.5-2.87s-1.021,2.251-1.605,2.808-2.905.69-2.872,1.5,2.324.96,2.812,1.608.688,2.906,1.5,2.868.961-2.319,1.608-2.806,2.908-.689,2.87-1.5-2.322-.955-2.81-1.605" transform="translate(0.041 30.39)" fill="#ffb502"/>
      <path id="Trazado_741351" data-name="Trazado 741351" d="M153.488,141.632l-17.463-17.991L119.069,141.62l-1.559-1.466L136,120.545l19.02,19.6Z" transform="translate(19.201 19.697)" fill="#464f72"/>
      <path id="Trazado_741352" data-name="Trazado 741352" d="M153.488,168.13l-17.463-17.988-16.957,17.977-1.559-1.467L136,147.046l19.02,19.594Z" transform="translate(19.201 24.027)" fill="#464f72"/>
      <path id="Trazado_741353" data-name="Trazado 741353" d="M153.488,197.279l-17.463-17.99-16.957,17.977L117.51,195.8,136,176.192l19.02,19.6Z" transform="translate(19.201 28.789)" fill="#464f72"/>
      <path id="Trazado_741354" data-name="Trazado 741354" d="M145.193,282.891H125.435l4.447-182.747h10.865Z" transform="translate(20.496 16.363)" fill="#6d76a1"/>
      <path id="Trazado_741355" data-name="Trazado 741355" d="M139.559,277.37H129.68L131.9,100.144h5.432Z" transform="translate(21.189 16.363)" fill="#464f72"/>
      <path id="Trazado_741356" data-name="Trazado 741356" d="M159.452,260.652H116.075l4.45-10.01H155Z" transform="translate(18.966 40.954)" fill="#6d76a1"/>
      <rect id="Rectángulo_320430" data-name="Rectángulo 320430" width="19.758" height="11.251" transform="translate(145.93 109.99)" fill="#464f72"/>
      <rect id="Rectángulo_320431" data-name="Rectángulo 320431" width="68.593" height="6.202" transform="translate(122.433 157.482)" fill="#464f72"/>
      <rect id="Rectángulo_320432" data-name="Rectángulo 320432" width="68.593" height="6.203" transform="translate(122.433 222.222)" fill="#464f72"/>
      <rect id="Rectángulo_320433" data-name="Rectángulo 320433" width="89.399" height="6.202" transform="translate(110.514 188.31)" fill="#464f72"/>
      <rect id="Rectángulo_320434" data-name="Rectángulo 320434" width="2.728" height="15.138" transform="translate(122.433 157.483)" fill="#6d76a1"/>
      <rect id="Rectángulo_320435" data-name="Rectángulo 320435" width="2.727" height="15.138" transform="translate(188.298 157.483)" fill="#6d76a1"/>
      <rect id="Rectángulo_320436" data-name="Rectángulo 320436" width="5.203" height="10.019" transform="translate(121.304 166.52)" fill="#64b4d7"/>
      <rect id="Rectángulo_320437" data-name="Rectángulo 320437" width="2.728" height="15.137" transform="translate(110.572 188.31)" fill="#6d76a1"/>
      <rect id="Rectángulo_320438" data-name="Rectángulo 320438" width="5.203" height="10.018" transform="translate(109.443 197.351)" fill="#64b4d7"/>
      <rect id="Rectángulo_320439" data-name="Rectángulo 320439" width="2.729" height="15.137" transform="translate(189.443 222.221)" fill="#6d76a1"/>
      <rect id="Rectángulo_320440" data-name="Rectángulo 320440" width="5.204" height="10.019" transform="translate(188.315 231.258)" fill="#64b4d7"/>
      <rect id="Rectángulo_320441" data-name="Rectángulo 320441" width="2.728" height="15.137" transform="translate(122.433 222.221)" fill="#6d76a1"/>
      <rect id="Rectángulo_320442" data-name="Rectángulo 320442" width="5.203" height="10.019" transform="translate(121.304 231.258)" fill="#64b4d7"/>
      <rect id="Rectángulo_320443" data-name="Rectángulo 320443" width="2.727" height="15.137" transform="translate(197.19 188.31)" fill="#6d76a1"/>
      <rect id="Rectángulo_320444" data-name="Rectángulo 320444" width="5.203" height="10.018" transform="translate(196.061 197.351)" fill="#64b4d7"/>
      <rect id="Rectángulo_320445" data-name="Rectángulo 320445" width="5.203" height="10.019" transform="translate(187.059 166.52)" fill="#64b4d7"/>
    </g>
  </g>
</svg>
