<svg xmlns="http://www.w3.org/2000/svg" xmlns:xlink="http://www.w3.org/1999/xlink" width="130.325" height="196.274" viewBox="0 0 130.325 196.274">
  <defs>
    <clipPath id="clip-path">
      <rect id="Rectángulo_320468" data-name="Rectángulo 320468" width="130.325" height="196.274" transform="translate(0 0)" fill="none"/>
    </clipPath>
  </defs>
  <g id="Grupo_930097" data-name="Grupo 930097" transform="translate(0 -0.003)">
    <g id="Grupo_930096" data-name="Grupo 930096" transform="translate(0 0.003)" clip-path="url(#clip-path)">
      <path id="Trazado_741357" data-name="Trazado 741357" d="M120.924,317.137H9.4a9.4,9.4,0,0,1-9.4-9.4V147.765a9.4,9.4,0,0,1,9.4-9.4H120.924a9.4,9.4,0,0,1,9.4,9.4V307.736a9.4,9.4,0,0,1-9.4,9.4" transform="translate(0 -120.863)" fill="#4dd0e1"/>
      <rect id="Rectángulo_320447" data-name="Rectángulo 320447" width="107.267" height="155.819" transform="translate(11.778 24.706)" fill="#f6f5f5"/>
      <path id="Trazado_741358" data-name="Trazado 741358" d="M200.378,195.329c.034,60.761,1.995,134.042-4.83,150.267-30.062,2.929-65.262,3.869-102.439,4.044L107.24,195.8Z" transform="translate(-81.332 -170.622)" fill="#e4e4e4"/>
      <path id="Trazado_741359" data-name="Trazado 741359" d="M149.734,340.734c-46.856,7.5-78.173,7.894-103.572,6.008,3.292-35.038,4.611-93.245,5.938-151.358l56.463.125,51.1,3.373c.745,60.316.826,116.03-9.93,141.851" transform="translate(-40.323 -170.671)" fill="#fff"/>
      <rect id="Rectángulo_320448" data-name="Rectángulo 320448" width="8.598" height="56.445" transform="translate(36.224 47.671) rotate(-88.652)" fill="#0b5999"/>
      <rect id="Rectángulo_320449" data-name="Rectángulo 320449" width="3.935" height="50.913" transform="matrix(0.024, -1, 1, 0.024, 52.742, 64.174)" fill="#0b5999"/>
      <rect id="Rectángulo_320450" data-name="Rectángulo 320450" width="3.935" height="34.606" transform="matrix(0.024, -1, 1, 0.024, 52.54, 72.752)" fill="#d3dfff"/>
      <rect id="Rectángulo_320451" data-name="Rectángulo 320451" width="12.053" height="12.053" transform="translate(24.463 71.859) rotate(-88.652)" fill="#fff"/>
      <path id="Trazado_741369" data-name="Trazado 741369" d="M0,0H12.053V12.053H0Z" transform="translate(24.463 71.859) rotate(-88.652)" fill="#fd9927" stroke="#708cd5" stroke-width="1"/>
      <path id="Trazado_741360" data-name="Trazado 741360" d="M211.005,448.668c.372,1.424,1.059,7.39,4.047,5.722a9.1,9.1,0,0,0,1.788-1.987l2.779-3.155,5.559-6.311c.475-.539-1.622-1.891-2.218-1.215l-4.941,5.61-2.471,2.8c-.571.649-1.893,2.741-2.741,2.927l1.383.447c.326.267-.28-1.628-.293-1.679l-.689-2.64c-.19-.727-2.484-1.6-2.2-.524" transform="translate(-184.295 -385.688)" fill="#0b5999"/>
      <rect id="Rectángulo_320453" data-name="Rectángulo 320453" width="3.935" height="41.926" transform="translate(52.226 86.08) rotate(-88.652)" fill="#0b5999"/>
      <rect id="Rectángulo_320454" data-name="Rectángulo 320454" width="3.935" height="50.913" transform="matrix(0.024, -1, 1, 0.024, 52.025, 94.658)" fill="#d3dfff"/>
      <rect id="Rectángulo_320455" data-name="Rectángulo 320455" width="12.053" height="12.053" transform="translate(23.948 93.766) rotate(-88.652)" fill="#fff"/>
      <rect id="Rectángulo_320456" data-name="Rectángulo 320456" width="12.053" height="12.053" transform="translate(23.948 93.766) rotate(-88.652)" fill="#fd9927" stroke="#708cd5" stroke-miterlimit="10" stroke-width="1"/>
      <path id="Trazado_741361" data-name="Trazado 741361" d="M206.866,624.546c.372,1.424,1.059,7.39,4.047,5.722a9.1,9.1,0,0,0,1.788-1.987l2.779-3.155,5.559-6.311c.475-.539-1.622-1.891-2.218-1.214l-4.941,5.61-2.471,2.8c-.571.649-1.893,2.742-2.741,2.927l1.383.447c.326.267-.28-1.628-.293-1.679l-.689-2.64c-.19-.727-2.484-1.6-2.2-.524" transform="translate(-180.679 -539.319)" fill="#0b5999"/>
      <rect id="Rectángulo_320457" data-name="Rectángulo 320457" width="3.935" height="50.913" transform="matrix(0.024, -1, 1, 0.024, 51.711, 107.987)" fill="#0b5999"/>
      <rect id="Rectángulo_320458" data-name="Rectángulo 320458" width="3.935" height="22.769" transform="matrix(0.024, -1, 1, 0.024, 51.509, 116.565)" fill="#d3dfff"/>
      <rect id="Rectángulo_320459" data-name="Rectángulo 320459" width="12.053" height="12.053" transform="translate(23.432 115.673) rotate(-88.652)" fill="#fff"/>
      <rect id="Rectángulo_320460" data-name="Rectángulo 320460" width="12.053" height="12.053" transform="translate(23.432 115.673) rotate(-88.652)" fill="#fd9927" stroke="#708cd5" stroke-miterlimit="10" stroke-width="1"/>
      <path id="Trazado_741362" data-name="Trazado 741362" d="M204.083,798.968c.372,1.424,1.059,7.39,4.047,5.722a9.1,9.1,0,0,0,1.788-1.987l2.779-3.155,5.559-6.311c.475-.539-1.622-1.891-2.218-1.215l-4.941,5.61-2.471,2.8c-.571.649-1.893,2.742-2.741,2.927l1.383.447c.326.267-.28-1.628-.293-1.679l-.689-2.64c-.19-.727-2.484-1.6-2.2-.524" transform="translate(-178.248 -691.679)" fill="#0b5999"/>
      <rect id="Rectángulo_320461" data-name="Rectángulo 320461" width="3.935" height="50.913" transform="matrix(0.024, -1, 1, 0.024, 51.195, 129.894)" fill="#0b5999"/>
      <rect id="Rectángulo_320462" data-name="Rectángulo 320462" width="3.935" height="40.219" transform="translate(50.993 138.472) rotate(-88.652)" fill="#d3dfff"/>
      <rect id="Rectángulo_320463" data-name="Rectángulo 320463" width="12.053" height="12.053" transform="translate(22.916 137.579) rotate(-88.652)" fill="#fff"/>
      <rect id="Rectángulo_320464" data-name="Rectángulo 320464" width="12.053" height="12.053" transform="translate(22.916 137.579) rotate(-88.652)" fill="#fd9927" stroke="#708cd5" stroke-miterlimit="10" stroke-width="1"/>
      <path id="Trazado_741363" data-name="Trazado 741363" d="M200.033,971.022c.372,1.424,1.059,7.39,4.047,5.722a9.1,9.1,0,0,0,1.788-1.987l2.779-3.156,5.559-6.311c.475-.539-1.622-1.891-2.218-1.215l-4.941,5.61-2.471,2.8c-.571.649-1.893,2.741-2.741,2.927l1.383.447c.326.267-.28-1.628-.293-1.679l-.689-2.64c-.19-.727-2.484-1.6-2.2-.524" transform="translate(-174.71 -841.97)" fill="#0b5999"/>
      <rect id="Rectángulo_320465" data-name="Rectángulo 320465" width="3.935" height="20.182" transform="matrix(0.024, -1, 1, 0.024, 50.684, 151.635)" fill="#0b5999"/>
      <path id="Trazado_741364" data-name="Trazado 741364" d="M450.092,1236.716l-50.9-1.2-.093,3.934c19.692.462,44.766,1.385,49.882.6a4.417,4.417,0,0,0,1.11-3.336" transform="translate(-348.619 -1079.239)" fill="#d3dfff"/>
      <rect id="Rectángulo_320466" data-name="Rectángulo 320466" width="12.053" height="12.053" transform="translate(22.573 159.324) rotate(-88.652)" fill="#fff"/>
      <rect id="Rectángulo_320467" data-name="Rectángulo 320467" width="12.053" height="12.053" transform="translate(22.573 159.324) rotate(-88.652)" fill="#fd9927" stroke="#708cd5" stroke-miterlimit="10" stroke-width="1"/>
      <path id="Trazado_741365" data-name="Trazado 741365" d="M196.019,1141.571c.372,1.424,1.059,7.39,4.047,5.722a9.1,9.1,0,0,0,1.788-1.987l2.779-3.156,5.558-6.311c.475-.539-1.622-1.891-2.218-1.214l-4.941,5.61-2.471,2.8c-.571.649-1.893,2.742-2.741,2.927l1.383.447c.326.267-.28-1.628-.293-1.679l-.689-2.64c-.19-.727-2.484-1.6-2.2-.524" transform="translate(-171.204 -990.947)" fill="#0b5999"/>
      <path id="Trazado_741366" data-name="Trazado 741366" d="M372.478,18.586V30.612H324.159V18.586a6.942,6.942,0,0,1,2.034-4.913,5.734,5.734,0,0,1,.491-.44,6.9,6.9,0,0,1,4.422-1.594,8.182,8.182,0,0,0,3.552-.809,8.52,8.52,0,0,0,1.336-.8,8.176,8.176,0,0,0,2.965-4.2A8.211,8.211,0,0,1,346.811,0h3.015a8.211,8.211,0,0,1,7.852,5.818,8.177,8.177,0,0,0,2.965,4.2,8.522,8.522,0,0,0,1.336.8,8.182,8.182,0,0,0,3.552.809,6.956,6.956,0,0,1,6.947,6.947" transform="translate(-283.157 -0.002)" fill="#feca2e"/>
      <path id="Trazado_741367" data-name="Trazado 741367" d="M349.32,195.323v8.94H293.159v-8.94h3.921v5.9H345.4v-5.9Z" transform="translate(-256.078 -170.617)" fill="#e4e4e4"/>
      <path id="Trazado_741368" data-name="Trazado 741368" d="M489.854,28.866a4.291,4.291,0,1,1-4.286-4.073,4.184,4.184,0,0,1,4.286,4.073" transform="translate(-420.405 -21.657)" fill="#fff"/>
    </g>
  </g>
</svg>
