<svg xmlns="http://www.w3.org/2000/svg" width="177.102" height="176.81" viewBox="0 0 177.102 176.81">
  <g id="Grupo_930106" data-name="Grupo 930106" transform="translate(-555.231 -400.191)">
    <path id="Trazado_741370" data-name="Trazado 741370" d="M405.692,94.485a26.678,26.678,0,0,1-8.255-22.875C398.2,66.633,412.2,57.97,412.2,57.97L391.319,35.278S381.527,48.559,376.514,48.9a25.007,25.007,0,0,1-20.988-9.776c-2.965-4.071.867-20.079.867-20.079l-30.842-1.332s2.422,16.3-.862,20.078a21.386,21.386,0,0,1-19.282,6.564c-4.93-.981-12.914-15.373-12.914-15.373l-23.63,19.841S281.654,59.194,281.79,64.2a28.354,28.354,0,0,1-11.343,22.749c-4.1,2.931-20.1-1.116-20.1-1.116l-1.724,30.821s16.3-2.236,20.036,1.1a26.723,26.723,0,0,1,8.264,22.886c-.764,4.97-14.781,13.628-14.781,13.628l20.884,22.686s9.786-13.256,14.808-13.609a25.15,25.15,0,0,1,21,9.774c2.962,4.074-.85,20.072-.85,20.072l30.821,1.331s-2.435-16.295.846-20.076a21.483,21.483,0,0,1,19.317-6.56c4.91,1,12.911,15.382,12.911,15.382L405.5,163.421s-12.78-10.368-12.933-15.384a28.421,28.421,0,0,1,11.344-22.751c4.1-2.9,20.11,1.142,20.11,1.142l1.707-30.817s-16.285,2.208-20.035-1.126m-70.7,62a51.107,51.107,0,1,1,53.265-48.852,51.1,51.1,0,0,1-53.265,48.852" transform="translate(306.606 382.477)" fill="#cbe9f4"/>
    <path id="Trazado_741371" data-name="Trazado 741371" d="M369.264,100.881a39.051,39.051,0,1,1-37.336-40.718,39.035,39.035,0,0,1,37.336,40.718" transform="translate(313.563 389.407)" fill="#cbe9f4"/>
  </g>
</svg>
