<svg xmlns="http://www.w3.org/2000/svg" xmlns:xlink="http://www.w3.org/1999/xlink" width="129" height="129" viewBox="0 0 129 129">
  <defs>
    <clipPath id="clip-path">
      <rect id="Rect치ngulo_320367" data-name="Rect치ngulo 320367" width="87" height="87" fill="none"/>
    </clipPath>
    <clipPath id="clip-path-3">
      <rect id="Rect치ngulo_320365" data-name="Rect치ngulo 320365" width="27.444" height="56.517" fill="none"/>
    </clipPath>
  </defs>
  <g id="Grupo_930111" data-name="Grupo 930111" transform="translate(-812 -3011)">
    <g id="Elipse_7683" data-name="Elipse 7683" transform="translate(812 3011)" fill="#f6f6f6" stroke="#fd9927" stroke-width="2">
      <circle cx="64.5" cy="64.5" r="64.5" stroke="none"/>
      <circle cx="64.5" cy="64.5" r="63.5" fill="none"/>
    </g>
    <g id="Grupo_930022" data-name="Grupo 930022" transform="translate(833 3032)">
      <g id="Grupo_930021" data-name="Grupo 930021" clip-path="url(#clip-path)">
        <g id="Grupo_930020" data-name="Grupo 930020">
          <g id="Grupo_930019" data-name="Grupo 930019" clip-path="url(#clip-path)">
            <path id="Trazado_740999" data-name="Trazado 740999" d="M63.165,23.69A39.475,39.475,0,1,1,23.69,63.165,39.475,39.475,0,0,1,63.165,23.69" transform="translate(-19.665 -19.665)" fill="#ededed"/>
            <path id="Trazado_741000" data-name="Trazado 741000" d="M48.364,90.869A42.5,42.5,0,0,1,18.308,18.31a42.5,42.5,0,1,1,60.11,60.106A42.216,42.216,0,0,1,48.364,90.869Zm0-78.14A35.636,35.636,0,1,0,84,48.364,35.676,35.676,0,0,0,48.364,12.728" transform="translate(-4.864 -4.864)" fill="#f40808"/>
            <path id="Trazado_741001" data-name="Trazado 741001" d="M77.052,40.42a36.632,36.632,0,1,0,36.632,36.632A36.674,36.674,0,0,0,77.052,40.42m0,71.272a34.64,34.64,0,1,1,34.64-34.64A34.679,34.679,0,0,1,77.052,111.692Z" transform="translate(-33.552 -33.552)"/>
            <path id="Trazado_741002" data-name="Trazado 741002" d="M74.259,12.741A43.5,43.5,0,0,0,12.741,74.259,43.5,43.5,0,0,0,74.259,12.741Zm-1.409,60.11a41.508,41.508,0,0,1-58.7-58.7,41.508,41.508,0,1,1,58.7,58.7Z"/>
            <path id="Trazado_741003" data-name="Trazado 741003" d="M199.126,120.155,190.061,133.3h6.809a1.312,1.312,0,0,1,.938,2.229l-23.072,23.616a1.312,1.312,0,0,1-2.126-1.474l8.171-17.423h-5.408a1.312,1.312,0,0,1-1.151-1.941l6.029-11.024H172.4a1.312,1.312,0,0,1-1.164-1.918L182.5,103.743a1.312,1.312,0,0,1,1.163-.706H198.63a1.312,1.312,0,0,1,1.1,2.034l-8.59,13.028h6.911a1.312,1.312,0,0,1,1.08,2.056" transform="translate(-142.018 -85.529)" fill="#ffce29"/>
            <path id="Trazado_741004" data-name="Trazado 741004" d="M197.2,101.322H182.241a1.6,1.6,0,0,0-1.422.863L169.556,123.81a1.6,1.6,0,0,0,1.422,2.344h7.357l-5.793,10.593a1.6,1.6,0,0,0,1.407,2.372H178.9l-7.976,17.008a1.6,1.6,0,0,0,2.6,1.8l23.072-23.616a1.6,1.6,0,0,0-1.147-2.724h-6.254l8.75-12.692a1.6,1.6,0,0,0-1.32-2.513H190.25l8.293-12.576A1.6,1.6,0,0,0,197.2,101.322Zm.852,2.165-8.59,13.028a.292.292,0,0,0,.243.452h6.912a1.02,1.02,0,0,1,.84,1.6L188.4,131.715a.292.292,0,0,0,.24.457h6.809a1.021,1.021,0,0,1,.73,1.734L173.1,157.521a1.02,1.02,0,0,1-1.654-1.146l8.171-17.423a.292.292,0,0,0-.264-.415h-5.407a1.02,1.02,0,0,1-.9-1.51L179.081,126a.291.291,0,0,0-.256-.431h-7.848a1.021,1.021,0,0,1-.905-1.492l11.263-21.625a1.017,1.017,0,0,1,.905-.549H197.2A1.02,1.02,0,0,1,198.056,103.487Z" transform="translate(-140.593 -84.105)" fill="none" stroke="#000" stroke-miterlimit="10" stroke-width="2"/>
            <g id="Grupo_930018" data-name="Grupo 930018" transform="translate(30.482 17.508)" opacity="0.08">
              <g id="Grupo_930017" data-name="Grupo 930017">
                <g id="Grupo_930016" data-name="Grupo 930016" clip-path="url(#clip-path-3)">
                  <path id="Trazado_741005" data-name="Trazado 741005" d="M204.694,283.388,181.625,307a1.32,1.32,0,0,1-2.237-.673L201.8,283.388a1.312,1.312,0,0,0-.938-2.231h2.892a1.314,1.314,0,0,1,.938,2.231" transform="translate(-179.388 -250.891)"/>
                  <path id="Trazado_741006" data-name="Trazado 741006" d="M284.378,193.728l-9.067,13.149a1.519,1.519,0,0,1-1.25-2.381l7.425-10.768a1.313,1.313,0,0,0-1.082-2.056H283.3a1.313,1.313,0,0,1,1.082,2.056" transform="translate(-257.749 -176.611)"/>
                  <path id="Trazado_741007" data-name="Trazado 741007" d="M289.853,105.07,281.261,118.1h-.071a1.519,1.519,0,0,1-1.268-2.355l7.039-10.674a1.309,1.309,0,0,0-1.094-2.032h2.892A1.309,1.309,0,0,1,289.853,105.07Z" transform="translate(-262.629 -103.038)"/>
                </g>
              </g>
            </g>
            <path id="Trazado_741008" data-name="Trazado 741008" d="M92.817,146.722,145.941,93.6l-6.372-6.372L85.732,141.062Z" transform="translate(-71.165 -72.403)" fill="#f40808"/>
            <path id="Trazado_741009" data-name="Trazado 741009" d="M132.314,183.319l51-51,.834,3.557-47.7,47.7Z" transform="translate(-109.831 -109.832)"/>
            <path id="Trazado_741010" data-name="Trazado 741010" d="M84.314,135.273l50.154-50.324,3,1.394L85.814,137.991Z" transform="translate(-69.987 -70.514)"/>
          </g>
        </g>
      </g>
    </g>
  </g>
</svg>
