<svg xmlns="http://www.w3.org/2000/svg" xmlns:xlink="http://www.w3.org/1999/xlink" width="129" height="129" viewBox="0 0 129 129">
  <defs>
    <clipPath id="clip-path">
      <rect id="Rectángulo_320368" data-name="Rectángulo 320368" width="87" height="87" fill="none"/>
    </clipPath>
  </defs>
  <g id="Grupo_930113" data-name="Grupo 930113" transform="translate(-812 -3210)">
    <g id="Elipse_7683" data-name="Elipse 7683" transform="translate(812 3210)" fill="#f6f6f6" stroke="#fd9927" stroke-width="2">
      <circle cx="64.5" cy="64.5" r="64.5" stroke="none"/>
      <circle cx="64.5" cy="64.5" r="63.5" fill="none"/>
    </g>
    <g id="Grupo_930024" data-name="Grupo 930024" transform="translate(833 3231)">
      <g id="Grupo_930023" data-name="Grupo 930023" clip-path="url(#clip-path)">
        <path id="Trazado_741011" data-name="Trazado 741011" d="M63.165,23.69A39.475,39.475,0,1,1,23.69,63.165,39.475,39.475,0,0,1,63.165,23.69" transform="translate(-19.665 -19.665)" fill="#ededed"/>
        <path id="Trazado_741012" data-name="Trazado 741012" d="M48.364,90.869A42.5,42.5,0,0,1,18.308,18.31a42.5,42.5,0,1,1,60.11,60.106A42.216,42.216,0,0,1,48.364,90.869Zm0-78.14A35.636,35.636,0,1,0,84,48.364,35.676,35.676,0,0,0,48.364,12.728" transform="translate(-4.864 -4.864)" fill="#f40808"/>
        <path id="Trazado_741013" data-name="Trazado 741013" d="M77.052,40.42a36.632,36.632,0,1,0,36.632,36.632A36.674,36.674,0,0,0,77.052,40.42m0,71.272a34.64,34.64,0,1,1,34.64-34.64A34.679,34.679,0,0,1,77.052,111.692Z" transform="translate(-33.552 -33.552)"/>
        <path id="Trazado_741014" data-name="Trazado 741014" d="M74.259,12.741A43.5,43.5,0,0,0,12.741,74.259,43.5,43.5,0,0,0,74.259,12.741Zm-1.409,60.11a41.508,41.508,0,0,1-58.7-58.7,41.508,41.508,0,1,1,58.7,58.7Z"/>
        <path id="Trazado_741015" data-name="Trazado 741015" d="M104.4,182.7c.358,2.964,5.65,4.866,11.555,4.153s10.593-3.819,10.235-6.783a.832.832,0,0,1,.865-.931c6.357.375,14.376-2.824,13.884-6.9-.251-2.076-3.066-3.762-7.006-4.2a.823.823,0,0,1-.442-1.443c4.6-3.907.124-7.677-6.689-7.849-1.347-.034-.465-1.614-.619-2.891-.583-4.828-9-7.951-18.378-6.819-9.545,1.152-17.516,6.507-16.1,11.657a.823.823,0,0,1-.689,1.033c-5.816.745-10.432,3.841-10.079,6.763.31,2.572,4.407,4.421,9.529,4.3a.824.824,0,0,1,.576,1.428c-5.674,5.205,4.306,9.245,12.337,7.059,1.169-.335,1.012,1.367,1.019,1.419Z" transform="translate(-67.168 -123.523)" fill="#82c7eb" fill-rule="evenodd"/>
        <path id="Trazado_741016" data-name="Trazado 741016" d="M85.112,222.006l-6.9,2.351L75.4,229.3l2.669,3.454,6.862,1.954-.735,3.8,1.953,3.011,6.973,2.338,5.127-.884,3.247,3.848,6.287,1.825,8.68-1.313s-15.748.708-15.782-6.708c0,0-17.171,1.542-12.467-7.24,0,0-16.01-4.019-3.107-11.379" transform="translate(-62.591 -184.282)" fill="#4794b5"/>
        <path id="Trazado_741017" data-name="Trazado 741017" d="M108.268,180.417c-6.911.834-12.713-1.529-13.358-5.4-10.285,1.987-17.8-3.227-14.09-8.683-13.094-.771-12.341-11.919,1.237-14.18-.708-5.907,7.05-11.537,17.665-12.818,11.143-1.345,21.033,2.839,20.207,9.745,7.546.544,11.414,5.133,7.91,9.506,11.06,2.263,8.232,12.418-4.824,13.994a22.414,22.414,0,0,1-3.07.161c-.359,3.627-5.215,6.892-11.678,7.672Zm-12.677-7.223c1.092-.132.9,1.21.925,1.438.358,2.964,5.65,4.866,11.555,4.153s10.593-3.819,10.235-6.783a.832.832,0,0,1,.865-.931c6.357.375,14.376-2.824,13.884-6.9-.25-2.076-3.066-3.762-7.006-4.2a.823.823,0,0,1-.442-1.443c4.6-3.908.124-7.677-6.689-7.85-1.347-.034-.465-1.614-.619-2.891-.582-4.828-9-7.951-18.378-6.819-9.545,1.152-17.516,6.507-16.1,11.657a.823.823,0,0,1-.688,1.033c-5.816.745-10.432,3.841-10.079,6.763.31,2.572,4.407,4.421,9.529,4.3a.824.824,0,0,1,.576,1.428c-5.674,5.206,4.305,9.245,12.337,7.059a.55.55,0,0,1,.093-.019Z" transform="translate(-59.287 -115.455)" fill-rule="evenodd"/>
        <path id="Trazado_741018" data-name="Trazado 741018" d="M92.817,146.722,145.941,93.6l-6.372-6.372L85.732,141.062Z" transform="translate(-71.165 -72.403)" fill="#f40808"/>
        <path id="Trazado_741019" data-name="Trazado 741019" d="M132.314,183.319l51-51,.834,3.557-47.7,47.7Z" transform="translate(-109.831 -109.832)"/>
        <path id="Trazado_741020" data-name="Trazado 741020" d="M84.314,135.273l50.154-50.324,3,1.394L85.814,137.991Z" transform="translate(-69.987 -70.514)"/>
      </g>
    </g>
  </g>
</svg>
