<svg xmlns="http://www.w3.org/2000/svg" xmlns:xlink="http://www.w3.org/1999/xlink" width="129" height="129" viewBox="0 0 129 129">
  <defs>
    <clipPath id="clip-path">
      <rect id="Rectángulo_320357" data-name="Rectángulo 320357" width="87" height="87" fill="none"/>
    </clipPath>
    <clipPath id="clip-path-3">
      <rect id="Rectángulo_320351" data-name="Rectángulo 320351" width="29.563" height="42.606" fill="none"/>
    </clipPath>
    <clipPath id="clip-path-4">
      <rect id="Rectángulo_320354" data-name="Rectángulo 320354" width="3.265" height="20.868" fill="none"/>
    </clipPath>
    <clipPath id="clip-path-5">
      <rect id="Rectángulo_320352" data-name="Rectángulo 320352" width="3.015" height="13.914" fill="none"/>
    </clipPath>
    <clipPath id="clip-path-6">
      <rect id="Rectángulo_320353" data-name="Rectángulo 320353" width="2.726" height="5.913" fill="none"/>
    </clipPath>
    <clipPath id="clip-path-7">
      <rect id="Rectángulo_320355" data-name="Rectángulo 320355" width="31.302" height="2.609" fill="none"/>
    </clipPath>
  </defs>
  <g id="Grupo_930110" data-name="Grupo 930110" transform="translate(-273 -3011)">
    <g id="Elipse_7683" data-name="Elipse 7683" transform="translate(273 3011)" fill="#f6f6f6" stroke="#fd9927" stroke-width="2">
      <circle cx="64.5" cy="64.5" r="64.5" stroke="none"/>
      <circle cx="64.5" cy="64.5" r="63.5" fill="none"/>
    </g>
    <g id="Grupo_930000" data-name="Grupo 930000" transform="translate(294 3032)">
      <g id="Grupo_929999" data-name="Grupo 929999" clip-path="url(#clip-path)">
        <g id="Grupo_929998" data-name="Grupo 929998">
          <g id="Grupo_929997" data-name="Grupo 929997" clip-path="url(#clip-path)">
            <path id="Trazado_740941" data-name="Trazado 740941" d="M63.165,23.69A39.475,39.475,0,1,1,23.69,63.165,39.475,39.475,0,0,1,63.165,23.69" transform="translate(-19.665 -19.665)" fill="#ededed"/>
            <path id="Trazado_740942" data-name="Trazado 740942" d="M48.364,90.869A42.5,42.5,0,0,1,18.308,18.31a42.5,42.5,0,1,1,60.11,60.106A42.216,42.216,0,0,1,48.364,90.869Zm0-78.14A35.636,35.636,0,1,0,84,48.364,35.676,35.676,0,0,0,48.364,12.728" transform="translate(-4.864 -4.864)" fill="#f40808"/>
            <path id="Trazado_740943" data-name="Trazado 740943" d="M77.052,40.42a36.632,36.632,0,1,0,36.632,36.632A36.674,36.674,0,0,0,77.052,40.42m0,71.272a34.64,34.64,0,1,1,34.64-34.64A34.679,34.679,0,0,1,77.052,111.692Z" transform="translate(-33.552 -33.552)"/>
            <path id="Trazado_740944" data-name="Trazado 740944" d="M74.259,12.741A43.5,43.5,0,0,0,12.741,74.259,43.5,43.5,0,0,0,74.259,12.741Zm-1.409,60.11a41.508,41.508,0,0,1-58.7-58.7,41.508,41.508,0,1,1,58.7,58.7Z"/>
            <path id="Trazado_740945" data-name="Trazado 740945" d="M185.287,129.251l-1.739,48.692H170.506V147.511c0-4.347-2.608-4.347-2.608-4.347s-2.608,0-2.608,4.347v30.433H152.246l-1.739-48.692Z" transform="translate(-124.933 -107.288)" fill="#1f5389"/>
            <g id="Grupo_929984" data-name="Grupo 929984" transform="translate(30.791 21.963)" opacity="0.5" style="isolation: isolate">
              <g id="Grupo_929983" data-name="Grupo 929983">
                <g id="Grupo_929982" data-name="Grupo 929982" clip-path="url(#clip-path-3)">
                  <path id="Trazado_740946" data-name="Trazado 740946" d="M193.085,140.555h2.982a3.4,3.4,0,0,1,3.4,3.4v22.248a5.657,5.657,0,0,0,5.656,5.652h4.126l1.522-42.606H181.209V166.3a5.558,5.558,0,0,0,5.557,5.557h4.008V142.866A2.311,2.311,0,0,1,193.085,140.555Z" transform="translate(-181.209 -129.251)" fill="#4c75a1"/>
                </g>
              </g>
            </g>
            <path id="Trazado_740947" data-name="Trazado 740947" d="M304.02,129.251v.869a10.438,10.438,0,0,0,8.3,10.216l.4-11.085Z" transform="translate(-252.36 -107.288)" fill="#173e67"/>
            <path id="Trazado_740948" data-name="Trazado 740948" d="M164.261,201.955l.543,1.652a14.707,14.707,0,0,0,2.772-1.242l-.869-1.5a12.994,12.994,0,0,1-2.445,1.095" transform="translate(-136.349 -166.729)" fill="#173e67"/>
            <path id="Trazado_740949" data-name="Trazado 740949" d="M188.245,184.371l1.087,1.357a14.836,14.836,0,0,0,2.3-2.3l-1.357-1.088a13.19,13.19,0,0,1-2.03,2.03" transform="translate(-156.258 -151.357)" fill="#173e67"/>
            <path id="Trazado_740950" data-name="Trazado 740950" d="M206.764,160.8l1.505.87a14.727,14.727,0,0,0,1.242-2.773l-1.652-.543a12.963,12.963,0,0,1-1.095,2.446" transform="translate(-171.63 -131.445)" fill="#173e67"/>
            <path id="Trazado_740951" data-name="Trazado 740951" d="M215.912,130.12a13.152,13.152,0,0,1-.229,2.447l1.709.323a14.975,14.975,0,0,0,.259-2.77v-.869h-1.739Z" transform="translate(-179.034 -107.288)" fill="#173e67"/>
            <path id="Trazado_740952" data-name="Trazado 740952" d="M322.8,200.859l-.87,1.505a14.7,14.7,0,0,0,2.773,1.242l.543-1.652a12.983,12.983,0,0,1-2.446-1.095" transform="translate(-267.227 -166.729)" fill="#173e67"/>
            <path id="Trazado_740953" data-name="Trazado 740953" d="M298.873,182.341l-1.357,1.088a14.835,14.835,0,0,0,2.3,2.3l1.087-1.357a13.183,13.183,0,0,1-2.03-2.03" transform="translate(-246.962 -151.357)" fill="#173e67"/>
            <path id="Trazado_740954" data-name="Trazado 740954" d="M284.42,158.357l-1.652.543a14.719,14.719,0,0,0,1.242,2.772l1.5-.87a12.973,12.973,0,0,1-1.095-2.445" transform="translate(-234.72 -131.449)" fill="#173e67"/>
            <path id="Trazado_740955" data-name="Trazado 740955" d="M280.173,130.12v-.869h-1.739v.869a14.99,14.99,0,0,0,.261,2.77l1.709-.323a13.165,13.165,0,0,1-.23-2.447" transform="translate(-231.122 -107.288)" fill="#173e67"/>
            <path id="Trazado_740956" data-name="Trazado 740956" d="M268.2,398.819h13.043c.1-1.8.124-3.478.124-3.478H268.2Z" transform="translate(-222.627 -328.164)" fill="#4c75a1"/>
            <path id="Trazado_740957" data-name="Trazado 740957" d="M173.176,395.34H160.009l.124,3.478h13.043Z" transform="translate(-132.82 -328.163)" fill="#4c75a1"/>
            <g id="Grupo_929993" data-name="Grupo 929993" transform="translate(56.314 42.396)" opacity="0.5">
              <g id="Grupo_929992" data-name="Grupo 929992">
                <g id="Grupo_929991" data-name="Grupo 929991" clip-path="url(#clip-path-4)">
                  <g id="Grupo_929987" data-name="Grupo 929987" transform="translate(0 6.954)" opacity="0.5">
                    <g id="Grupo_929986" data-name="Grupo 929986">
                      <g id="Grupo_929985" data-name="Grupo 929985" clip-path="url(#clip-path-5)">
                        <path id="Trazado_740958" data-name="Trazado 740958" d="M332.72,304.344h-.05a1.3,1.3,0,0,1-1.257-1.35h0l.4-11.3a1.291,1.291,0,0,1,1.321-1.259h.032a1.3,1.3,0,0,1,1.256,1.35l-.4,11.3a1.3,1.3,0,0,1-1.3,1.258" transform="translate(-331.412 -290.43)" fill="#7091b4"/>
                      </g>
                    </g>
                  </g>
                  <g id="Grupo_929990" data-name="Grupo 929990" transform="translate(0.539)" opacity="0.5">
                    <g id="Grupo_929989" data-name="Grupo 929989">
                      <g id="Grupo_929988" data-name="Grupo 929988" clip-path="url(#clip-path-6)">
                        <path id="Trazado_740959" data-name="Trazado 740959" d="M335.889,255.416h-.047a1.3,1.3,0,0,1-1.257-1.35l.116-3.3a1.305,1.305,0,0,1,2.608.092l-.116,3.3A1.3,1.3,0,0,1,335.889,255.416Z" transform="translate(-334.584 -249.503)" fill="#7091b4"/>
                      </g>
                    </g>
                  </g>
                </g>
              </g>
            </g>
            <path id="Trazado_740960" data-name="Trazado 740960" d="M146.259,108.782h34.78a.87.87,0,0,1,.869.869v1.739a.87.87,0,0,1-.869.869h-34.78a.87.87,0,0,1-.87-.869v-1.739a.87.87,0,0,1,.87-.869" transform="translate(-120.684 -90.298)" fill="#1f5389"/>
            <path id="Trazado_740961" data-name="Trazado 740961" d="M242.614,129.251v9.565a3.478,3.478,0,0,0,3.478-3.478v-6.087Z" transform="translate(-201.389 -107.288)" fill="#4c75a1"/>
            <path id="Trazado_740962" data-name="Trazado 740962" d="M150.9,140.336a10.439,10.439,0,0,0,8.3-10.216v-.869h-8.7Z" transform="translate(-124.933 -107.288)" fill="#173e67"/>
            <g id="Grupo_929996" data-name="Grupo 929996" transform="translate(29.922 18.484)" opacity="0.5" style="isolation: isolate">
              <g id="Grupo_929995" data-name="Grupo 929995">
                <g id="Grupo_929994" data-name="Grupo 929994" clip-path="url(#clip-path-7)">
                  <path id="Trazado_740963" data-name="Trazado 740963" d="M206.525,108.782H176.092v.648a1.962,1.962,0,0,0,1.961,1.961h29.342v-1.739a.87.87,0,0,0-.869-.869" transform="translate(-176.092 -108.782)" fill="#4c75a1"/>
                </g>
              </g>
            </g>
            <path id="Trazado_740964" data-name="Trazado 740964" d="M180.791,103.665h-34.78a1.739,1.739,0,0,0-1.739,1.739v1.739a1.739,1.739,0,0,0,.892,1.51l1.717,48.084a.869.869,0,0,0,.869.838h13.043a.869.869,0,0,0,.869-.869V126.272c0-3.3,1.578-3.469,1.72-3.478.18.009,1.757.18,1.758,3.478V156.7a.869.869,0,0,0,.869.869h13.043a.87.87,0,0,0,.87-.838l1.716-48.084a1.739,1.739,0,0,0,.892-1.51V105.4a1.739,1.739,0,0,0-1.739-1.739m-34.78,1.739h34.78v1.739h-34.78Zm33.879,3.478-.325,9.089a9.6,9.6,0,0,1-6.6-9.089Zm-15.62,5.217a2.614,2.614,0,0,1-1.739,2.46v-7.677h1.739Zm-10.434-5.217a9.6,9.6,0,0,1-6.6,9.089l-.325-9.089Zm-5.247,46.953-.063-1.739h11.4v1.739Zm14.812-34.78c-.035,0-3.478.06-3.478,5.217v26.085H148.465L147.3,119.766a11.345,11.345,0,0,0,8.274-10.885h1.739a13.149,13.149,0,0,1-.229,2.447l1.709.324a14.991,14.991,0,0,0,.259-2.77h1.739v8.7a.87.87,0,0,0,.869.87,4.353,4.353,0,0,0,4.348-4.348v-5.217h1.739a14.99,14.99,0,0,0,.261,2.77l1.709-.324a13.165,13.165,0,0,1-.23-2.447h1.739a11.345,11.345,0,0,0,8.274,10.885l-1.163,32.591H166.879V126.272c0-5.157-3.443-5.217-3.478-5.217m3.478,34.78V154.1h11.4l-.063,1.739Z" transform="translate(-119.757 -86.05)"/>
            <path id="Trazado_740965" data-name="Trazado 740965" d="M168.261,201.955l.543,1.652a14.707,14.707,0,0,0,2.772-1.242l-.869-1.5a12.994,12.994,0,0,1-2.445,1.095" transform="translate(-139.67 -166.729)"/>
            <path id="Trazado_740966" data-name="Trazado 740966" d="M192.245,184.371l1.087,1.357a14.836,14.836,0,0,0,2.3-2.3l-1.357-1.088a13.19,13.19,0,0,1-2.03,2.03" transform="translate(-159.578 -151.357)"/>
            <path id="Trazado_740967" data-name="Trazado 740967" d="M210.764,160.8l1.505.87a14.727,14.727,0,0,0,1.242-2.773l-1.652-.543a12.963,12.963,0,0,1-1.095,2.446" transform="translate(-174.951 -131.445)"/>
            <path id="Trazado_740968" data-name="Trazado 740968" d="M329.245,201.955a12.993,12.993,0,0,1-2.445-1.095l-.87,1.5a14.71,14.71,0,0,0,2.773,1.242Z" transform="translate(-270.547 -166.729)"/>
            <path id="Trazado_740969" data-name="Trazado 740969" d="M303.817,185.729l1.087-1.357a13.183,13.183,0,0,1-2.03-2.03l-1.357,1.088a14.828,14.828,0,0,0,2.3,2.3" transform="translate(-250.282 -151.357)"/>
            <path id="Trazado_740970" data-name="Trazado 740970" d="M289.515,160.806a12.966,12.966,0,0,1-1.095-2.444l-1.652.543a14.727,14.727,0,0,0,1.242,2.771Z" transform="translate(-238.04 -131.453)"/>
          </g>
        </g>
      </g>
    </g>
  </g>
</svg>
