<svg xmlns="http://www.w3.org/2000/svg" xmlns:xlink="http://www.w3.org/1999/xlink" width="129" height="129" viewBox="0 0 129 129">
  <defs>
    <clipPath id="clip-path">
      <rect id="Rectángulo_320343" data-name="Rectángulo 320343" width="87" height="87" fill="none"/>
    </clipPath>
  </defs>
  <g id="Grupo_930108" data-name="Grupo 930108" transform="translate(-273 -2812)">
    <g id="Elipse_7683" data-name="Elipse 7683" transform="translate(273 2812)" fill="#f6f6f6" stroke="#fd9927" stroke-width="2">
      <circle cx="64.5" cy="64.5" r="64.5" stroke="none"/>
      <circle cx="64.5" cy="64.5" r="63.5" fill="none"/>
    </g>
    <g id="Grupo_929965" data-name="Grupo 929965" transform="translate(294 2833)">
      <g id="Grupo_929964" data-name="Grupo 929964" clip-path="url(#clip-path)">
        <path id="Trazado_740886" data-name="Trazado 740886" d="M63.17,23.69A39.48,39.48,0,1,1,23.69,63.17,39.48,39.48,0,0,1,63.17,23.69" transform="translate(-19.664 -19.664)" fill="#ededed"/>
        <path id="Trazado_740887" data-name="Trazado 740887" d="M48.37,90.881A42.51,42.51,0,0,1,18.31,18.312,42.509,42.509,0,1,1,78.429,78.427,42.222,42.222,0,0,1,48.37,90.881Zm0-78.151A35.641,35.641,0,1,0,84.011,48.37,35.681,35.681,0,0,0,48.37,12.729" transform="translate(-4.864 -4.864)" fill="#f40808"/>
        <path id="Trazado_740888" data-name="Trazado 740888" d="M77.057,40.42a36.637,36.637,0,1,0,36.637,36.637A36.679,36.679,0,0,0,77.057,40.42m0,71.282A34.645,34.645,0,1,1,111.7,77.057,34.684,34.684,0,0,1,77.057,111.7Z" transform="translate(-33.551 -33.551)"/>
        <path id="Trazado_740889" data-name="Trazado 740889" d="M74.27,12.743A43.506,43.506,0,0,0,12.743,74.27,43.506,43.506,0,0,0,74.27,12.743ZM72.861,72.861a41.514,41.514,0,0,1-58.71-58.71,41.514,41.514,0,1,1,58.71,58.71Z"/>
        <path id="Trazado_740890" data-name="Trazado 740890" d="M201.454,147.852V135.521H183.82v28.856h37.673v-1.6a10.42,10.42,0,0,0-9.589-10.386l-6.763-.541a4.008,4.008,0,0,1-3.687-3.995" transform="translate(-152.581 -112.49)" fill="#ffc855"/>
        <path id="Trazado_740891" data-name="Trazado 740891" d="M202.416,168.239l-6.761-.541a2.417,2.417,0,0,1-2.216-2.4V154.142a3.206,3.206,0,0,0,1.6-2.776V148.16a3.206,3.206,0,0,0-3.206-3.206H183.82v27.253h26.555a11.993,11.993,0,0,0-7.959-3.968" transform="translate(-152.581 -120.32)" fill="#ffa73c"/>
        <path id="Trazado_740892" data-name="Trazado 740892" d="M179.1,305.314h39.276v4.809H195.134l-1.6-1.6h-3.206v1.6H179.1Z" transform="translate(-148.666 -253.427)" fill="#4c659b"/>
        <path id="Trazado_740893" data-name="Trazado 740893" d="M206.461,305.314H179.1v4.809h11.222v-1.6h3.206l1.6,1.6h13.98a12.093,12.093,0,0,0-2.654-4.809" transform="translate(-148.666 -253.427)" fill="#405587"/>
        <path id="Trazado_740894" data-name="Trazado 740894" d="M175.99,97.789h17.634a1.6,1.6,0,0,1,1.6,1.6V102.6a1.6,1.6,0,0,1-1.6,1.6H175.99a1.6,1.6,0,0,1-1.6-1.6V99.392a1.6,1.6,0,0,1,1.6-1.6" transform="translate(-144.751 -81.17)" fill="#ffc855"/>
        <path id="Trazado_740895" data-name="Trazado 740895" d="M190.139,111.939h15.229a1.6,1.6,0,0,1,1.6,1.6v.8a1.6,1.6,0,0,1-1.6,1.6H188.536v-2.4a1.6,1.6,0,0,1,1.6-1.6" transform="translate(-156.495 -92.915)" fill="#ffb44d"/>
        <path id="Trazado_740896" data-name="Trazado 740896" d="M201.454,138.727h-5.611a4.008,4.008,0,0,0-4.008,4.008v.8a4.008,4.008,0,0,1-4.008,4.008H183.82V135.521h17.634Z" transform="translate(-152.581 -112.49)" fill="#fa8c46"/>
        <path id="Trazado_740897" data-name="Trazado 740897" d="M191.836,151.366v-.8a3.994,3.994,0,0,1,2.862-3.821,3.2,3.2,0,0,0-2.862-1.79H183.82v10.42h4.008a4.008,4.008,0,0,0,4.008-4.008" transform="translate(-152.581 -120.32)" fill="#f5782d"/>
        <path id="Trazado_740898" data-name="Trazado 740898" d="M183.82,248.716h3.206a4.809,4.809,0,0,1,4.809,4.809v4.809H183.82Z" transform="translate(-152.581 -206.448)" fill="#ffa050"/>
        <path id="Trazado_740899" data-name="Trazado 740899" d="M329.351,234.77c-2.939,2.939-4.037,7.111-4.037,11.267v.721H338.94v-1.6a10.42,10.42,0,0,0-9.589-10.386" transform="translate(-270.028 -194.872)" fill="#fa8c46"/>
        <path id="Trazado_740900" data-name="Trazado 740900" d="M325.361,292.99c-.027.457-.047.915-.047,1.373v.721h2.509A12.229,12.229,0,0,0,325.361,292.99Z" transform="translate(-270.028 -243.198)" fill="#f5782d"/>
        <path id="Trazado_740901" data-name="Trazado 740901" d="M198.771,248.716h-.8v9.619h5.611v-4.809a4.809,4.809,0,0,0-4.809-4.809" transform="translate(-164.326 -206.448)" fill="#fa8c46"/>
        <path id="Trazado_740902" data-name="Trazado 740902" d="M144.857,204.45V192.119H127.223v28.856H164.9v-1.6a10.42,10.42,0,0,0-9.589-10.386l-6.763-.541A4.008,4.008,0,0,1,144.857,204.45Z" transform="translate(-105.602 -159.469)" fill="#ffe164"/>
        <path id="Trazado_740903" data-name="Trazado 740903" d="M156.6,204.45V192.119H141.372v28.856H176.64v-1.6a10.42,10.42,0,0,0-9.589-10.386l-6.763-.541A4.008,4.008,0,0,1,156.6,204.45Z" transform="translate(-117.346 -159.469)" fill="#ffc855"/>
        <path id="Trazado_740904" data-name="Trazado 740904" d="M122.506,361.912h39.276v4.809H138.537l-1.6-1.6h-3.206v1.6H122.506Z" transform="translate(-101.686 -300.406)" fill="#5a71a5"/>
        <path id="Trazado_740905" data-name="Trazado 740905" d="M136.655,361.912h36.871v4.809H150.282l-1.6-1.6h-3.206v1.6h-8.817Z" transform="translate(-113.431 -300.406)" fill="#4c659b"/>
        <path id="Trazado_740906" data-name="Trazado 740906" d="M119.392,154.387h17.634a1.6,1.6,0,0,1,1.6,1.6V159.2a1.6,1.6,0,0,1-1.6,1.6H119.392a1.6,1.6,0,0,1-1.6-1.6V155.99a1.6,1.6,0,0,1,1.6-1.6" transform="translate(-97.771 -128.15)" fill="#ffc855"/>
        <path id="Trazado_740907" data-name="Trazado 740907" d="M147.476,177.666l-6.763-.541a4.008,4.008,0,0,1-3.687-4V160.8a1.6,1.6,0,0,0,1.6-1.6V155.99a1.6,1.6,0,0,0-1.6-1.6H119.392a1.6,1.6,0,0,0-1.6,1.6V159.2a1.6,1.6,0,0,0,1.6,1.6v28.856h37.673v-1.6a10.42,10.42,0,0,0-9.589-10.386" transform="translate(-97.771 -128.15)" fill="#ffc855"/>
        <path id="Trazado_740908" data-name="Trazado 740908" d="M133.542,168.536h15.229a1.6,1.6,0,0,1,1.6,1.6v.8a1.6,1.6,0,0,1-1.6,1.6H131.939v-2.4a1.6,1.6,0,0,1,1.6-1.6" transform="translate(-109.516 -139.894)" fill="#ffb44d"/>
        <path id="Trazado_740909" data-name="Trazado 740909" d="M144.857,195.325h-5.611a4.008,4.008,0,0,0-4.008,4.008v.8a4.008,4.008,0,0,1-4.008,4.008h-4.008V192.119h17.634Z" transform="translate(-105.602 -159.469)" fill="#ffa050"/>
        <path id="Trazado_740910" data-name="Trazado 740910" d="M127.222,305.314h3.206a4.809,4.809,0,0,1,4.809,4.809v4.809h-8.016Z" transform="translate(-105.601 -253.427)" fill="#ffa050"/>
        <path id="Trazado_740911" data-name="Trazado 740911" d="M272.753,291.367c-2.939,2.939-4.037,7.111-4.037,11.267v.721h13.626v-1.6a10.42,10.42,0,0,0-9.589-10.386" transform="translate(-223.049 -241.85)" fill="#fa8c46"/>
        <path id="Trazado_740912" data-name="Trazado 740912" d="M146.983,200.134v-.8a4.008,4.008,0,0,1,4.008-4.008H156.6v-3.206H141.372v12.023h1.6a4.008,4.008,0,0,0,4.008-4.008" transform="translate(-117.346 -159.469)" fill="#fa8c46"/>
        <path id="Trazado_740913" data-name="Trazado 740913" d="M142.173,305.314h-.8v9.619h5.611v-4.809a4.809,4.809,0,0,0-4.809-4.809" transform="translate(-117.346 -253.427)" fill="#fa8c46"/>
        <path id="Trazado_740914" data-name="Trazado 740914" d="M164.549,129.52h-.2v-1a11.08,11.08,0,0,0-10.139-10.981L147.448,117a3.424,3.424,0,0,1-3.135-3.4V101.773a2.2,2.2,0,0,0,1.6-2.11V96.456a2.206,2.206,0,0,0-2.2-2.2H126.075a2.206,2.206,0,0,0-2.2,2.2v3.206a2.2,2.2,0,0,0,1.6,2.11v2.1h-9.017a2.206,2.206,0,0,0-2.2,2.2v3.206a2.2,2.2,0,0,0,1.6,2.111v27.747h-.2a.6.6,0,0,0-.6.6v4.809a.6.6,0,0,0,.6.6h11.222a.6.6,0,0,0,.6-.6v-1h2.356l1.428,1.427a.6.6,0,0,0,.425.176H154.93a.6.6,0,0,0,.6-.6V139.74a.6.6,0,0,0-.6-.6h-.2v-1a10.882,10.882,0,0,0-.329-2.607h10.147a.6.6,0,0,0,.6-.6v-4.808A.6.6,0,0,0,164.549,129.52Zm-10.161-10.752a9.866,9.866,0,0,1,8.758,9.75v1H150.722v-.12C150.722,126.283,151.371,121.945,154.388,118.768ZM119.662,129.52h-2.605v-6.011h3.407a4.615,4.615,0,0,0,4.609-4.609v-.8a3.411,3.411,0,0,1,3.407-3.407h5.01v8.524a4.634,4.634,0,0,0,4.242,4.594l5.553.444c-2.765,3.372-3.382,7.645-3.382,10.765v.12H125.073V134.93a5.417,5.417,0,0,0-5.41-5.41m4.208,5.41v4.208h-6.813v-8.416h2.605a4.213,4.213,0,0,1,4.208,4.208m-6.813-12.624V111.485h16.432v2h-5.01a4.615,4.615,0,0,0-4.609,4.609v.8a3.411,3.411,0,0,1-3.407,3.407ZM141.1,139.018c0-3.117.648-7.454,3.665-10.632a9.866,9.866,0,0,1,8.758,9.75v1H141.1Zm6.245-20.827,5.553.444a16.638,16.638,0,0,0-3.374,10.164,10.889,10.889,0,0,0-4.938-1.643l-6.761-.541a3.424,3.424,0,0,1-3.135-3.4V111.392a2.2,2.2,0,0,0,1.6-2.111v-3.206a2.194,2.194,0,0,0-.043-.426,3.317,3.317,0,0,1,1.844-.576h5.01V113.6a4.634,4.634,0,0,0,4.242,4.594m-13.259-14.32h-7.414v-2h16.432v2H138.1a4.488,4.488,0,0,0-2.4.705,2.192,2.192,0,0,0-1.6-.705m-9.017-4.208V96.456a1,1,0,0,1,1-1h17.634a1,1,0,0,1,1,1v3.206a1,1,0,0,1-1,1H126.075a1,1,0,0,1-1-1m-9.619,9.618v-3.206a1,1,0,0,1,1-1H134.09a1,1,0,0,1,1,1v3.206a1,1,0,0,1-1,1H116.456a1,1,0,0,1-1-1m38.875,34.667h-2.118v-1a.6.6,0,0,0-1.2,0v1H148.89v-1a.6.6,0,0,0-1.2,0v1h-2.119v-1a.6.6,0,0,0-1.2,0v1h-2.118v-1a.6.6,0,0,0-1.2,0v1h-2.119v-1a.6.6,0,0,0-1.2,0v1h-2.118v-1a.6.6,0,0,0-1.2,0v1h-2.47l-1.428-1.427a.6.6,0,0,0-.425-.176h-3.206a.6.6,0,0,0-.6.6v1h-2.538v-1a.6.6,0,0,0-1.2,0v1H120v-1a.6.6,0,0,0-1.2,0v1h-2.538v-3.607h38.073Zm9.619-9.619h-2.119v-1a.6.6,0,0,0-1.2,0v1h-2.119v-1a.6.6,0,0,0-1.2,0v1h-3.274a11.132,11.132,0,0,0-2.2-3.607h12.117Z" transform="translate(-94.835 -78.234)"/>
      </g>
    </g>
  </g>
</svg>
