<svg xmlns="http://www.w3.org/2000/svg" xmlns:xlink="http://www.w3.org/1999/xlink" width="129" height="129" viewBox="0 0 129 129">
  <defs>
    <clipPath id="clip-path">
      <rect id="Rectángulo_320350" data-name="Rectángulo 320350" width="87" height="87" fill="none"/>
    </clipPath>
    <clipPath id="clip-path-3">
      <rect id="Rectángulo_320344" data-name="Rectángulo 320344" width="4.394" height="41.152" fill="none"/>
    </clipPath>
    <clipPath id="clip-path-6">
      <rect id="Rectángulo_320348" data-name="Rectángulo 320348" width="48.757" height="9.549" fill="none"/>
    </clipPath>
  </defs>
  <g id="Grupo_930109" data-name="Grupo 930109" transform="translate(-812 -2812)">
    <g id="Elipse_7683" data-name="Elipse 7683" transform="translate(812 2812)" fill="#f6f6f6" stroke="#fd9927" stroke-width="2">
      <circle cx="64.5" cy="64.5" r="64.5" stroke="none"/>
      <circle cx="64.5" cy="64.5" r="63.5" fill="none"/>
    </g>
    <g id="Grupo_929981" data-name="Grupo 929981" transform="translate(833 2833)">
      <g id="Grupo_929980" data-name="Grupo 929980" clip-path="url(#clip-path)">
        <g id="Grupo_929979" data-name="Grupo 929979">
          <g id="Grupo_929978" data-name="Grupo 929978" clip-path="url(#clip-path)">
            <path id="Trazado_740915" data-name="Trazado 740915" d="M63.165,23.69A39.475,39.475,0,1,1,23.69,63.165,39.475,39.475,0,0,1,63.165,23.69" transform="translate(-19.665 -19.665)" fill="#ededed"/>
            <path id="Trazado_740916" data-name="Trazado 740916" d="M48.364,90.869A42.5,42.5,0,0,1,18.308,18.31a42.5,42.5,0,1,1,60.11,60.106A42.216,42.216,0,0,1,48.364,90.869Zm0-78.14A35.636,35.636,0,1,0,84,48.364,35.676,35.676,0,0,0,48.364,12.728" transform="translate(-4.864 -4.864)" fill="#f40808"/>
            <path id="Trazado_740917" data-name="Trazado 740917" d="M77.052,40.42a36.632,36.632,0,1,0,36.632,36.632A36.674,36.674,0,0,0,77.052,40.42m0,71.272a34.64,34.64,0,1,1,34.64-34.64A34.679,34.679,0,0,1,77.052,111.692Z" transform="translate(-33.552 -33.552)"/>
            <path id="Trazado_740918" data-name="Trazado 740918" d="M74.259,12.741A43.5,43.5,0,0,0,12.741,74.259,43.5,43.5,0,0,0,74.259,12.741Zm-1.409,60.11a41.508,41.508,0,0,1-58.7-58.7,41.508,41.508,0,1,1,58.7,58.7Z"/>
            <path id="Trazado_740919" data-name="Trazado 740919" d="M153.545,151.49l0,36.467a4.134,4.134,0,0,1-.635,2.2l-1.563,2.486-1.564-2.485a4.136,4.136,0,0,1-.635-2.2l0-36.467Z" transform="translate(-123.804 -125.749)" fill="#acbadf"/>
            <g id="Grupo_929968" data-name="Grupo 929968" transform="translate(25.348 25.741)" opacity="0.12" style="isolation: isolate">
              <g id="Grupo_929967" data-name="Grupo 929967">
                <g id="Grupo_929966" data-name="Grupo 929966" clip-path="url(#clip-path-3)">
                  <path id="Trazado_740920" data-name="Trazado 740920" d="M152.937,190.158l-1.565,2.485-1.564-2.482a4.1,4.1,0,0,1-.631-2.2V185.7a23.812,23.812,0,0,0,3.048-8.49c.861-5.493-.222-21.219-2.739-25.724h4.085v36.467A4.16,4.16,0,0,1,152.937,190.158Z" transform="translate(-149.177 -151.49)"/>
                </g>
              </g>
            </g>
            <path id="Trazado_740921" data-name="Trazado 740921" d="M247.317,151.49l0,36.467a4.134,4.134,0,0,1-.635,2.2l-1.563,2.486-1.564-2.485a4.136,4.136,0,0,1-.635-2.2l0-36.467Z" transform="translate(-201.643 -125.749)" fill="#acbadf"/>
            <g id="Grupo_929971" data-name="Grupo 929971" transform="translate(41.282 25.741)" opacity="0.12" style="isolation: isolate">
              <g id="Grupo_929970" data-name="Grupo 929970">
                <g id="Grupo_929969" data-name="Grupo 929969" clip-path="url(#clip-path-3)">
                  <path id="Trazado_740922" data-name="Trazado 740922" d="M246.709,190.158l-1.565,2.485-1.564-2.482a4.1,4.1,0,0,1-.631-2.2V185.7a23.812,23.812,0,0,0,3.048-8.49c.861-5.493-.222-21.219-2.739-25.724h4.085v36.467A4.159,4.159,0,0,1,246.709,190.158Z" transform="translate(-242.949 -151.49)"/>
                </g>
              </g>
            </g>
            <path id="Trazado_740923" data-name="Trazado 740923" d="M341.089,151.49l0,36.467a4.134,4.134,0,0,1-.635,2.2l-1.563,2.486-1.564-2.485a4.137,4.137,0,0,1-.635-2.2l0-36.467Z" transform="translate(-279.481 -125.749)" fill="#acbadf"/>
            <g id="Grupo_929974" data-name="Grupo 929974" transform="translate(57.216 25.741)" opacity="0.12" style="isolation: isolate">
              <g id="Grupo_929973" data-name="Grupo 929973">
                <g id="Grupo_929972" data-name="Grupo 929972" clip-path="url(#clip-path-3)">
                  <path id="Trazado_740924" data-name="Trazado 740924" d="M340.482,190.158l-1.565,2.485-1.564-2.482a4.1,4.1,0,0,1-.631-2.2V185.7a23.813,23.813,0,0,0,3.048-8.49c.861-5.493-.222-21.219-2.739-25.724h4.085v36.467A4.159,4.159,0,0,1,340.482,190.158Z" transform="translate(-336.721 -151.49)"/>
                </g>
              </g>
            </g>
            <path id="Trazado_740925" data-name="Trazado 740925" d="M138.869,136.747c0,1.055-2.675,1.911-5.98,1.912s-5.974-.855-5.975-1.91,2.674-1.916,5.974-1.917,5.98.855,5.981,1.914" transform="translate(-105.349 -111.922)" fill="#acbadf"/>
            <path id="Trazado_740926" data-name="Trazado 740926" d="M232.641,136.747c0,1.055-2.675,1.911-5.98,1.912s-5.974-.855-5.975-1.91,2.674-1.916,5.974-1.917,5.98.855,5.981,1.915" transform="translate(-183.187 -111.921)" fill="#acbadf"/>
            <path id="Trazado_740927" data-name="Trazado 740927" d="M326.413,136.747c0,1.055-2.675,1.911-5.98,1.912s-5.974-.855-5.975-1.91,2.674-1.916,5.974-1.917,5.981.855,5.981,1.915" transform="translate(-261.025 -111.921)" fill="#acbadf"/>
            <path id="Rectángulo_320347" data-name="Rectángulo 320347" d="M5.6,0H43.154a5.6,5.6,0,0,1,5.6,5.6v0a5.6,5.6,0,0,1-5.6,5.6H5.6A5.6,5.6,0,0,1,0,5.6v0A5.6,5.6,0,0,1,5.6,0Z" transform="translate(19.099 39.301)" fill="#f78721"/>
            <g id="Grupo_929977" data-name="Grupo 929977" transform="translate(19.099 40.957)" opacity="0.12" style="isolation: isolate">
              <g id="Grupo_929976" data-name="Grupo 929976">
                <g id="Grupo_929975" data-name="Grupo 929975" clip-path="url(#clip-path-6)">
                  <path id="Trazado_740928" data-name="Trazado 740928" d="M161.154,241.452v7.054a2.074,2.074,0,0,1-2.075,2.075H114.472a2.074,2.074,0,0,1-2.075-2.075v-2.064a72.653,72.653,0,0,0,48.715-5.41,2.208,2.208,0,0,1,.042.42" transform="translate(-112.397 -241.032)"/>
                </g>
              </g>
            </g>
            <path id="Trazado_740929" data-name="Trazado 740929" d="M141.947,248.679a.519.519,0,1,0-.155-1.026c-1.888.285-3.872-.364-5.718-.924-5.685-1.718-6.432-.195-8.142.022a1.29,1.29,0,0,1-1.273-.458.519.519,0,0,0-.911.5,2.267,2.267,0,0,0,2.314.991c1.946-.246,2.351-1.677,7.712-.059C137.811,248.337,139.839,249,141.947,248.679Z" transform="translate(-104.327 -204.134)"/>
            <path id="Trazado_740930" data-name="Trazado 740930" d="M172.91,275.615a9.308,9.308,0,0,0-5.336-.125c-1.215.34-3.377,1.387-4.375.121a.519.519,0,0,0-.814.643c1.517,1.919,4.451.519,5.468.236a8.236,8.236,0,0,1,4.734.11.519.519,0,0,0,.324-.986Z" transform="translate(-134.699 -228.404)"/>
            <path id="Trazado_740931" data-name="Trazado 740931" d="M249.306,257.352a.518.518,0,0,0-.324-.658c-2.545-.869-4.848,1.428-6.8,2.02a4.991,4.991,0,0,1-3.281-.156.519.519,0,0,0-.393.96,5.97,5.97,0,0,0,3.974.188c2.1-.633,4.148-2.718,6.17-2.031A.516.516,0,0,0,249.306,257.352Z" transform="translate(-197.71 -212.915)"/>
            <path id="Trazado_740932" data-name="Trazado 740932" d="M225.773,242.512a.519.519,0,0,0-.264-1c-1.263.329-1.74-.622-2.514-1.09a2.57,2.57,0,0,0-2.45-.085.519.519,0,1,0,.473.923,1.511,1.511,0,0,1,1.442.051c.51.307,1.5,1.685,3.315,1.2" transform="translate(-182.834 -199.272)"/>
            <path id="Trazado_740933" data-name="Trazado 740933" d="M304.34,279.4c-.9.566-2.558-.555-5.648.154a.519.519,0,1,0,.232,1.011c3.14-.718,4.49.644,5.969-.288a.519.519,0,0,0-.553-.877Z" transform="translate(-247.604 -231.849)"/>
            <path id="Trazado_740934" data-name="Trazado 740934" d="M333.161,251.567a.519.519,0,0,0-.357-.641c-2.286-.651-4.685-1.029-6.64.331a.519.519,0,1,0,.593.851c1.657-1.154,3.828-.736,5.763-.184a.517.517,0,0,0,.641-.357" transform="translate(-270.557 -207.8)"/>
            <path id="Trazado_740935" data-name="Trazado 740935" d="M290.4,242.956h.008a7.45,7.45,0,0,1,2.962.572.519.519,0,0,0,.4-.956,8.456,8.456,0,0,0-3.379-.653.519.519,0,0,0,.008,1.037" transform="translate(-240.626 -200.811)"/>
            <path id="Trazado_740936" data-name="Trazado 740936" d="M357.884,271.659a2.87,2.87,0,0,1-3.153.109.519.519,0,1,0-.558.874,3.891,3.891,0,0,0,4.329-.15.519.519,0,0,0-.618-.834" transform="translate(-293.792 -225.414)"/>
            <path id="Trazado_740937" data-name="Trazado 740937" d="M156.544,148.17h-3.652V136.442c2.093-.324,3.778-1.048,3.778-2.229,0-.535-.366-1.29-2.111-1.849a14.987,14.987,0,0,0-4.384-.584h0c-3.127,0-6.493.763-6.493,2.435,0,.534.366,1.287,2.111,1.844a11.311,11.311,0,0,0,1.667.381v11.73h-10.5V136.442c2.093-.324,3.779-1.049,3.779-2.229,0-.535-.366-1.291-2.111-1.849a14.992,14.992,0,0,0-4.385-.584h0c-3.127,0-6.493.763-6.493,2.435,0,.534.366,1.287,2.111,1.844a11.311,11.311,0,0,0,1.667.381v11.73h-10.5V136.442c2.093-.324,3.779-1.049,3.779-2.229,0-.535-.366-1.291-2.111-1.849a14.992,14.992,0,0,0-4.385-.584h0c-1.984,0-6.495.452-6.493,2.435,0,.534.366,1.287,2.111,1.844a11.311,11.311,0,0,0,1.667.381v11.73h-3.651a2.6,2.6,0,0,0-2.594,2.593v7.056a2.6,2.6,0,0,0,2.594,2.593h3.651V171.6a4.643,4.643,0,0,0,.717,2.475l1.561,2.484a.519.519,0,0,0,.878,0l1.567-2.485a4.642,4.642,0,0,0,.712-2.476V160.413h10.5V171.6a4.642,4.642,0,0,0,.717,2.475l1.562,2.485a.519.519,0,0,0,.878,0l1.567-2.485a4.642,4.642,0,0,0,.712-2.476V160.413h10.5V171.6a4.638,4.638,0,0,0,.718,2.475l1.561,2.485a.519.519,0,0,0,.878,0l1.566-2.485a4.636,4.636,0,0,0,.713-2.476V160.413h3.652a2.6,2.6,0,0,0,2.593-2.593v-7.056A2.6,2.6,0,0,0,156.544,148.17Zm-11.828-13.954c0-.418,1.857-1.4,5.456-1.4h0a13.925,13.925,0,0,1,4.068.535c1.013.324,1.39.7,1.39.86,0,.416-1.858,1.393-5.461,1.394h0a13.927,13.927,0,0,1-4.064-.534c-1.012-.324-1.389-.7-1.389-.857m3.778,2.353c.54.049,1.1.076,1.675.076h0c.56,0,1.128-.026,1.683-.075v11.6h-3.361Zm-19.712-2.353c0-.418,1.856-1.4,5.455-1.4h0a13.926,13.926,0,0,1,4.069.535c1.013.324,1.39.7,1.39.86,0,.416-1.858,1.393-5.461,1.394h0a13.927,13.927,0,0,1-4.064-.534C129.158,134.748,128.782,134.375,128.782,134.215Zm3.778,2.353c.54.049,1.1.076,1.675.076h0c.56,0,1.128-.026,1.683-.075v11.6h-3.361Zm-19.711-2.353c0-.824,3.384-1.4,5.455-1.4h0a13.927,13.927,0,0,1,4.069.535c1.013.324,1.39.7,1.39.86,0,.416-1.858,1.393-5.461,1.394h0a13.927,13.927,0,0,1-4.064-.534c-1.012-.324-1.389-.7-1.389-.856m3.778,2.353c.54.049,1.1.076,1.675.076h0c.56,0,1.128-.026,1.683-.075v11.6h-3.361Zm3.361,35.03a3.6,3.6,0,0,1-.553,1.923l-1.127,1.788-1.123-1.788a3.6,3.6,0,0,1-.558-1.923V160.413h3.361Zm15.934,0a3.6,3.6,0,0,1-.553,1.923l-1.127,1.788-1.123-1.788a3.6,3.6,0,0,1-.558-1.923V160.413h3.361V171.6Zm15.934,0a3.6,3.6,0,0,1-.553,1.923l-1.127,1.788-1.123-1.788a3.6,3.6,0,0,1-.558-1.923V160.413h3.361V171.6Zm6.245-13.779a1.558,1.558,0,0,1-1.556,1.556H111.937a1.558,1.558,0,0,1-1.556-1.556v-7.056a1.558,1.558,0,0,1,1.556-1.556h44.607a1.558,1.558,0,0,1,1.556,1.556v7.056Z" transform="translate(-90.763 -109.388)"/>
            <path id="Trazado_740938" data-name="Trazado 740938" d="M92.817,146.722,145.941,93.6l-6.372-6.372L85.732,141.062Z" transform="translate(-71.165 -72.403)" fill="#f40808"/>
            <path id="Trazado_740939" data-name="Trazado 740939" d="M132.314,183.319l51-51,.834,3.557-47.7,47.7Z" transform="translate(-109.831 -109.832)"/>
            <path id="Trazado_740940" data-name="Trazado 740940" d="M84.314,135.273l50.154-50.324,3,1.394L85.814,137.991Z" transform="translate(-69.987 -70.514)"/>
          </g>
        </g>
      </g>
    </g>
  </g>
</svg>
