<svg xmlns="http://www.w3.org/2000/svg" xmlns:xlink="http://www.w3.org/1999/xlink" width="815.951" height="752.063" viewBox="0 0 815.951 752.063">
  <defs>
    <clipPath id="clip-path">
      <rect id="Rectángulo_320103" data-name="Rectángulo 320103" width="137.295" height="97.083" fill="none"/>
    </clipPath>
    <clipPath id="clip-path-3">
      <rect id="Rectángulo_320104" data-name="Rectángulo 320104" width="102.251" height="142.571" fill="none"/>
    </clipPath>
    <clipPath id="clip-path-8">
      <rect id="Rectángulo_320398" data-name="Rectángulo 320398" width="79.931" height="147.538" fill="none"/>
    </clipPath>
  </defs>
  <g id="Grupo_930120" data-name="Grupo 930120" transform="translate(-391.5 -6371.524)">
    <path id="Trazado_736429" data-name="Trazado 736429" d="M320.479,449.263a337.409,337.409,0,0,0,95.267-230H90.482Z" transform="translate(653.681 6604.397) rotate(-22)" fill="#feca2e"/>
    <path id="Trazado_736478" data-name="Trazado 736478" d="M185.749,449.263a337.409,337.409,0,0,1-95.267-230H415.746Z" transform="translate(315.743 6740.934) rotate(-22)" fill="#4dd0e1"/>
    <path id="Trazado_736430" data-name="Trazado 736430" d="M322.778,219.266A324.631,324.631,0,0,1,231.269,440.2l9.067,9.066a337.4,337.4,0,0,0,95.267-230Z" transform="translate(727.988 6574.375) rotate(-22)" fill="#fd9927"/>
    <path id="Trazado_736479" data-name="Trazado 736479" d="M244.094,219.266A324.631,324.631,0,0,0,335.6,440.2l-9.067,9.066a337.4,337.4,0,0,1-95.267-230Z" transform="translate(185.207 6793.673) rotate(-22)" fill="#0b5999"/>
    <g id="Grupo_929432" data-name="Grupo 929432" transform="translate(819.712 6773.803) rotate(-22)" opacity="0.2">
      <g id="Grupo_929431" data-name="Grupo 929431">
        <g id="Grupo_929430" data-name="Grupo 929430" clip-path="url(#clip-path)">
          <path id="Trazado_736431" data-name="Trazado 736431" d="M187.565,316.349a150.091,150.091,0,0,0,40.214-97.083H90.482Z" transform="translate(-90.482 -219.266)" fill="#2e333a"/>
        </g>
      </g>
    </g>
    <g id="Grupo_929443" data-name="Grupo 929443" transform="translate(656.057 6839.924) rotate(-22)" opacity="0.2">
      <g id="Grupo_929431-2" data-name="Grupo 929431" transform="translate(0)">
        <g id="Grupo_929430-2" data-name="Grupo 929430" clip-path="url(#clip-path)">
          <path id="Trazado_736431-2" data-name="Trazado 736431" d="M130.7,316.349a150.091,150.091,0,0,1-40.214-97.083h137.3Z" transform="translate(-90.484 -219.266)" fill="#2e333a"/>
        </g>
      </g>
    </g>
    <path id="Trazado_736432" data-name="Trazado 736432" d="M82.239,220.922v330.5A337.448,337.448,0,0,0,317.4,456.088Z" transform="translate(649.684 6607.03) rotate(-22)" fill="#4dd0e1"/>
    <path id="Trazado_736433" data-name="Trazado 736433" d="M82.239,456.576V469.4A337.448,337.448,0,0,0,317.4,374.07L308.338,365a324.666,324.666,0,0,1-226.1,91.573" transform="translate(680.408 6683.075) rotate(-22)" fill="#0b5999"/>
    <g id="Grupo_929435" data-name="Grupo 929435" transform="translate(808.693 6781.058) rotate(-22)" opacity="0.2">
      <g id="Grupo_929434" data-name="Grupo 929434">
        <g id="Grupo_929433" data-name="Grupo 929433" clip-path="url(#clip-path-3)">
          <path id="Trazado_736434" data-name="Trazado 736434" d="M184.49,323.173,82.239,220.922V363.493a150.123,150.123,0,0,0,102.251-40.32" transform="translate(-82.238 -220.922)" fill="#2e333a"/>
        </g>
      </g>
    </g>
    <path id="Trazado_736435" data-name="Trazado 736435" d="M90.482,295.7H415.746a337.41,337.41,0,0,0-95.267-230Z" transform="translate(620.934 6523.346) rotate(-22)" fill="#4dd0e1"/>
    <path id="Trazado_736476" data-name="Trazado 736476" d="M415.746,295.7H90.482a337.41,337.41,0,0,1,95.267-230Z" transform="translate(282.995 6659.881) rotate(-22)" fill="#feca2e"/>
    <path id="Trazado_736436" data-name="Trazado 736436" d="M322.777,295.7H335.6a337.41,337.41,0,0,0-95.267-230l-9.066,9.067A324.633,324.633,0,0,1,322.777,295.7" transform="translate(695.241 6493.323) rotate(-22)" fill="#0b5999"/>
    <path id="Trazado_736477" data-name="Trazado 736477" d="M244.1,295.7H231.27a337.41,337.41,0,0,1,95.267-230l9.066,9.067A324.633,324.633,0,0,0,244.1,295.7" transform="translate(152.459 6712.622) rotate(-22)" fill="#fd9927"/>
    <g id="Grupo_929438" data-name="Grupo 929438" transform="translate(779.229 6673.603) rotate(-22)" opacity="0.2">
      <g id="Grupo_929437" data-name="Grupo 929437">
        <g id="Grupo_929436" data-name="Grupo 929436" clip-path="url(#clip-path)">
          <path id="Trazado_736437" data-name="Trazado 736437" d="M227.778,247.482A150.091,150.091,0,0,0,187.564,150.4L90.481,247.482Z" transform="translate(-90.482 -150.399)" fill="#2e333a"/>
        </g>
      </g>
    </g>
    <g id="Grupo_929444" data-name="Grupo 929444" transform="translate(615.573 6739.724) rotate(-22)" opacity="0.2">
      <g id="Grupo_929437-2" data-name="Grupo 929437" transform="translate(0)">
        <g id="Grupo_929436-2" data-name="Grupo 929436" clip-path="url(#clip-path)">
          <path id="Trazado_736437-2" data-name="Trazado 736437" d="M90.481,247.482A150.091,150.091,0,0,1,130.695,150.4l97.083,97.083Z" transform="translate(-90.481 -150.399)" fill="#2e333a"/>
        </g>
      </g>
    </g>
    <path id="Trazado_736438" data-name="Trazado 736438" d="M317.4,95.331A337.451,337.451,0,0,0,82.239,0V330.5Z" transform="translate(602.573 6490.427) rotate(-22)" fill="#feca2e"/>
    <path id="Trazado_736467" data-name="Trazado 736467" d="M82.239,95.331A337.451,337.451,0,0,1,317.4,0V330.5Z" transform="translate(370.913 6584.024) rotate(-22)" fill="#4dd0e1"/>
    <path id="Trazado_736439" data-name="Trazado 736439" d="M308.337,104.4l9.067-9.067A337.448,337.448,0,0,0,82.238,0V12.825a324.659,324.659,0,0,1,226.1,91.573" transform="translate(602.573 6490.428) rotate(-22)" fill="#fd9927"/>
    <path id="Trazado_736468" data-name="Trazado 736468" d="M91.305,104.4l-9.067-9.067A337.448,337.448,0,0,1,317.4,0V12.825A324.659,324.659,0,0,0,91.305,104.4" transform="translate(370.915 6584.023) rotate(-22)" fill="#0b5999"/>
    <g id="Grupo_929441" data-name="Grupo 929441" transform="translate(749.222 6633.863) rotate(-22)" opacity="0.2">
      <g id="Grupo_929440" data-name="Grupo 929440">
        <g id="Grupo_929439" data-name="Grupo 929439" clip-path="url(#clip-path-3)">
          <path id="Trazado_736440" data-name="Trazado 736440" d="M82.239,119.756V262.327L184.49,160.076a150.113,150.113,0,0,0-102.251-40.32" transform="translate(-82.238 -119.756)" fill="#2e333a"/>
        </g>
      </g>
    </g>
    <g id="Grupo_929442" data-name="Grupo 929442" transform="translate(640.799 6677.669) rotate(-22)" opacity="0.2">
      <g id="Grupo_929440-2" data-name="Grupo 929440" transform="translate(0)">
        <g id="Grupo_929439-2" data-name="Grupo 929439" clip-path="url(#clip-path-3)">
          <path id="Trazado_736440-2" data-name="Trazado 736440" d="M184.49,119.756V262.327L82.239,160.076a150.113,150.113,0,0,1,102.251-40.32" transform="translate(-82.239 -119.756)" fill="#2e333a"/>
        </g>
      </g>
    </g>
    <path id="Trazado_741380" data-name="Trazado 741380" d="M15.672,14.667a4.673,4.673,0,0,1-.721,2.36,4.35,4.35,0,0,1-1.85,1.586,6.3,6.3,0,0,1-2.72.563,5.025,5.025,0,0,1-3.973-1.644,6.786,6.786,0,0,1-1.45-4.641v-.633a7.746,7.746,0,0,1,.655-3.292A4.961,4.961,0,0,1,7.5,6.788a5.26,5.26,0,0,1,2.848-.769A5.516,5.516,0,0,1,14.09,7.245,4.844,4.844,0,0,1,15.7,10.624H12.623a2.292,2.292,0,0,0-.589-1.679,2.422,2.422,0,0,0-1.687-.51A1.843,1.843,0,0,0,8.659,9.3,5.536,5.536,0,0,0,8.1,12.048v.905A6.126,6.126,0,0,0,8.61,15.88a1.882,1.882,0,0,0,1.771.879,2.369,2.369,0,0,0,1.626-.5,2.126,2.126,0,0,0,.6-1.591ZM21.6,19.176a4.889,4.889,0,0,1-3.542-1.305,4.507,4.507,0,0,1-1.354-3.4v-.246a5.84,5.84,0,0,1,.541-2.575,3.955,3.955,0,0,1,1.578-1.727,4.763,4.763,0,0,1,2.461-.611,4.117,4.117,0,0,1,3.164,1.244,4.887,4.887,0,0,1,1.16,3.467v1.151H19.715a2.135,2.135,0,0,0,.694,1.257,2.066,2.066,0,0,0,1.389.457,2.662,2.662,0,0,0,2.2-.984l1.354,1.6a3.784,3.784,0,0,1-1.569,1.217A5.3,5.3,0,0,1,21.6,19.176ZM21.262,11.6q-1.3,0-1.547,1.723H22.7v-.229a1.467,1.467,0,0,0-.36-1.1A1.434,1.434,0,0,0,21.262,11.6ZM29.515,9.49l.1,1.116a3.225,3.225,0,0,1,2.716-1.292,2.713,2.713,0,0,1,2.219.888,4.226,4.226,0,0,1,.76,2.672V19H32.336V13a1.6,1.6,0,0,0-.29-1.059,1.342,1.342,0,0,0-1.055-.338,1.413,1.413,0,0,0-1.292.686V19H26.738V9.49ZM40.4,7.126V9.49H41.96v2.057H40.4V15.9a1.111,1.111,0,0,0,.193.747,1.037,1.037,0,0,0,.765.211,4.345,4.345,0,0,0,.738-.053v2.118a5.466,5.466,0,0,1-1.67.255,3.1,3.1,0,0,1-2.259-.721,2.954,2.954,0,0,1-.729-2.188v-4.72H36.221V9.49h1.213V7.126Zm8.481,5.045L47.9,12.1a1.752,1.752,0,0,0-1.793.879V19H43.147V9.49h2.777l.1,1.222a2.294,2.294,0,0,1,2.083-1.4,2.888,2.888,0,0,1,.826.105Zm.378,1.986a5.613,5.613,0,0,1,.554-2.536A3.96,3.96,0,0,1,51.4,9.912a4.791,4.791,0,0,1,2.435-.6A4.373,4.373,0,0,1,57.2,10.637a5.076,5.076,0,0,1,1.23,3.6v.105A4.925,4.925,0,0,1,57.2,17.871a4.384,4.384,0,0,1-3.344,1.305,4.434,4.434,0,0,1-3.261-1.217,4.761,4.761,0,0,1-1.327-3.3Zm2.962.185a3.538,3.538,0,0,0,.413,1.934,1.376,1.376,0,0,0,1.222.615q1.582,0,1.617-2.435v-.3q0-2.558-1.635-2.558-1.485,0-1.608,2.206Zm12.5,1.986a.684.684,0,0,0-.4-.606,6.016,6.016,0,0,0-1.5-.475,6.853,6.853,0,0,1-1.828-.646,3.062,3.062,0,0,1-1.1-.971,2.319,2.319,0,0,1-.378-1.31,2.628,2.628,0,0,1,1.081-2.158,4.453,4.453,0,0,1,2.83-.848,4.934,4.934,0,0,1,3.023.853,2.666,2.666,0,0,1,1.143,2.241H64.619q0-1.143-1.2-1.143a1.194,1.194,0,0,0-.782.259.8.8,0,0,0-.316.646.737.737,0,0,0,.387.642,3.654,3.654,0,0,0,1.235.4,10.671,10.671,0,0,1,1.49.378,2.706,2.706,0,0,1,2.145,2.646,2.491,2.491,0,0,1-1.156,2.118,5.068,5.068,0,0,1-2.993.817,5.172,5.172,0,0,1-2.18-.439,3.645,3.645,0,0,1-1.494-1.2,2.707,2.707,0,0,1-.536-1.591h2.769a1.145,1.145,0,0,0,.439.962,1.808,1.808,0,0,0,1.081.3,1.422,1.422,0,0,0,.91-.246A.787.787,0,0,0,64.715,16.328Zm8.35-2.153a5.809,5.809,0,0,1,.976-3.56,3.211,3.211,0,0,1,2.725-1.3,2.731,2.731,0,0,1,2.145,1V5.5H81.88V19H79.217l-.149-1.02a2.8,2.8,0,0,1-2.32,1.2,3.205,3.205,0,0,1-2.689-1.3A5.993,5.993,0,0,1,73.065,14.175Zm2.962.185q0,2.531,1.477,2.531a1.458,1.458,0,0,0,1.406-.826V12.443a1.419,1.419,0,0,0-1.389-.844q-1.371,0-1.485,2.215Zm12.138,4.816a4.889,4.889,0,0,1-3.542-1.305,4.507,4.507,0,0,1-1.354-3.4v-.246a5.84,5.84,0,0,1,.541-2.575,3.955,3.955,0,0,1,1.578-1.727,4.763,4.763,0,0,1,2.461-.611,4.117,4.117,0,0,1,3.164,1.244,4.887,4.887,0,0,1,1.16,3.467v1.151H86.284a2.135,2.135,0,0,0,.694,1.257,2.066,2.066,0,0,0,1.389.457,2.662,2.662,0,0,0,2.2-.984l1.354,1.6a3.784,3.784,0,0,1-1.569,1.217A5.3,5.3,0,0,1,88.165,19.176ZM87.831,11.6q-1.3,0-1.547,1.723h2.988v-.229a1.467,1.467,0,0,0-.36-1.1A1.434,1.434,0,0,0,87.831,11.6Zm14.036,5.291a1.317,1.317,0,0,0,.967-.338,1.241,1.241,0,0,0,.334-.945h2.777a3.288,3.288,0,0,1-1.121,2.566,4.168,4.168,0,0,1-2.887,1,4.22,4.22,0,0,1-3.27-1.3,5.125,5.125,0,0,1-1.2-3.6v-.123A5.792,5.792,0,0,1,98,11.6a3.872,3.872,0,0,1,1.534-1.7,4.573,4.573,0,0,1,2.373-.593,4.116,4.116,0,0,1,2.944,1.028,3.647,3.647,0,0,1,1.09,2.786h-2.777a1.626,1.626,0,0,0-.36-1.134,1.244,1.244,0,0,0-.967-.4q-1.151,0-1.345,1.468a10.357,10.357,0,0,0-.062,1.283,4.068,4.068,0,0,0,.343,1.986A1.187,1.187,0,0,0,101.867,16.891ZM112.554,19a3.344,3.344,0,0,1-.281-.853,2.754,2.754,0,0,1-2.285,1.028,3.374,3.374,0,0,1-2.285-.813,2.588,2.588,0,0,1-.94-2.043,2.66,2.66,0,0,1,1.143-2.338,5.821,5.821,0,0,1,3.322-.791h.914v-.5q0-1.316-1.134-1.316a.927.927,0,0,0-1.055,1.042h-2.962a2.655,2.655,0,0,1,1.173-2.239,4.931,4.931,0,0,1,2.993-.86,4.323,4.323,0,0,1,2.874.888,3.086,3.086,0,0,1,1.081,2.435v4.21a4.311,4.311,0,0,0,.4,2V19ZM110.7,17.066a1.652,1.652,0,0,0,.918-.237,1.487,1.487,0,0,0,.523-.536V14.772h-.861q-1.547,0-1.547,1.389a.848.848,0,0,0,.272.655A.986.986,0,0,0,110.7,17.066Zm11.8-4.9-.976-.07a1.752,1.752,0,0,0-1.793.879V19h-2.962V9.49h2.777l.1,1.222a2.294,2.294,0,0,1,2.083-1.4,2.888,2.888,0,0,1,.826.105Zm.721,2a6.421,6.421,0,0,1,.475-2.549,3.821,3.821,0,0,1,1.362-1.709,3.591,3.591,0,0,1,2.065-.6,2.855,2.855,0,0,1,2.32,1l.105-.826h2.689V18.64a4.009,4.009,0,0,1-.584,2.184,3.75,3.75,0,0,1-1.692,1.424,6.219,6.219,0,0,1-2.566.5,5.365,5.365,0,0,1-2.026-.4,3.657,3.657,0,0,1-1.5-1.028l1.239-1.74a2.716,2.716,0,0,0,2.18.976,1.764,1.764,0,0,0,1.969-2.021v-.3a2.781,2.781,0,0,1-2.153.94,3.437,3.437,0,0,1-2.812-1.332,5.517,5.517,0,0,1-1.072-3.564Zm2.971.185a3.383,3.383,0,0,0,.439,1.85,1.387,1.387,0,0,0,1.23.681,1.573,1.573,0,0,0,1.4-.642v-4a1.534,1.534,0,0,0-1.38-.65,1.4,1.4,0,0,0-1.239.708A3.858,3.858,0,0,0,126.195,14.359ZM139.282,19a3.344,3.344,0,0,1-.281-.853,2.754,2.754,0,0,1-2.285,1.028,3.374,3.374,0,0,1-2.285-.813,2.588,2.588,0,0,1-.94-2.043,2.66,2.66,0,0,1,1.143-2.338,5.821,5.821,0,0,1,3.322-.791h.914v-.5q0-1.316-1.134-1.316a.927.927,0,0,0-1.055,1.042h-2.962a2.655,2.655,0,0,1,1.173-2.239,4.931,4.931,0,0,1,2.993-.86,4.323,4.323,0,0,1,2.874.888,3.086,3.086,0,0,1,1.081,2.435v4.21a4.311,4.311,0,0,0,.4,2V19Zm-1.854-1.934a1.652,1.652,0,0,0,.918-.237,1.487,1.487,0,0,0,.523-.536V14.772h-.861q-1.547,0-1.547,1.389a.848.848,0,0,0,.272.655A.986.986,0,0,0,137.427,17.066ZM39.719,39.157a5.613,5.613,0,0,1,.554-2.536,3.96,3.96,0,0,1,1.591-1.709,4.791,4.791,0,0,1,2.435-.6,4.373,4.373,0,0,1,3.366,1.323,5.076,5.076,0,0,1,1.23,3.6v.105a4.925,4.925,0,0,1-1.235,3.529,4.384,4.384,0,0,1-3.344,1.305,4.434,4.434,0,0,1-3.261-1.217,4.761,4.761,0,0,1-1.327-3.3Zm2.962.185a3.538,3.538,0,0,0,.413,1.934,1.376,1.376,0,0,0,1.222.615q1.582,0,1.617-2.435v-.3q0-2.558-1.635-2.558-1.485,0-1.608,2.206Zm11.628-.167a5.809,5.809,0,0,1,.976-3.56,3.211,3.211,0,0,1,2.725-1.3,2.731,2.731,0,0,1,2.145,1V30.5h2.971V44H60.461l-.149-1.02a2.8,2.8,0,0,1-2.32,1.2,3.205,3.205,0,0,1-2.689-1.3A5.993,5.993,0,0,1,54.309,39.175Zm2.962.185q0,2.531,1.477,2.531a1.458,1.458,0,0,0,1.406-.826V37.443a1.419,1.419,0,0,0-1.389-.844q-1.371,0-1.485,2.215Zm12.138,4.816a4.889,4.889,0,0,1-3.542-1.305,4.507,4.507,0,0,1-1.354-3.4v-.246a5.84,5.84,0,0,1,.541-2.575,3.955,3.955,0,0,1,1.578-1.727,4.763,4.763,0,0,1,2.461-.611,4.117,4.117,0,0,1,3.164,1.244,4.887,4.887,0,0,1,1.16,3.467v1.151H67.528a2.135,2.135,0,0,0,.694,1.257,2.066,2.066,0,0,0,1.389.457,2.662,2.662,0,0,0,2.2-.984l1.354,1.6a3.784,3.784,0,0,1-1.569,1.217A5.3,5.3,0,0,1,69.409,44.176ZM69.075,36.6q-1.3,0-1.547,1.723h2.988v-.229a1.467,1.467,0,0,0-.36-1.1A1.434,1.434,0,0,0,69.075,36.6Zm15.68,6.372a3.054,3.054,0,0,1-2.54,1.2,3,3,0,0,1-2.369-.91,3.826,3.826,0,0,1-.8-2.615V34.49H82v6.179a1.065,1.065,0,0,0,1.187,1.222,1.548,1.548,0,0,0,1.45-.729V34.49H87.62V44H84.842Zm9.466-1.644a.684.684,0,0,0-.4-.606,6.016,6.016,0,0,0-1.5-.475,6.853,6.853,0,0,1-1.828-.646,3.062,3.062,0,0,1-1.1-.971,2.319,2.319,0,0,1-.378-1.31A2.628,2.628,0,0,1,90.1,35.163a4.453,4.453,0,0,1,2.83-.848,4.934,4.934,0,0,1,3.023.853,2.666,2.666,0,0,1,1.143,2.241H94.124q0-1.143-1.2-1.143a1.194,1.194,0,0,0-.782.259.8.8,0,0,0-.316.646.737.737,0,0,0,.387.642,3.654,3.654,0,0,0,1.235.4,10.671,10.671,0,0,1,1.49.378,2.706,2.706,0,0,1,2.145,2.646,2.491,2.491,0,0,1-1.156,2.118,5.068,5.068,0,0,1-2.993.817,5.172,5.172,0,0,1-2.18-.439,3.645,3.645,0,0,1-1.494-1.2,2.707,2.707,0,0,1-.536-1.591h2.769a1.145,1.145,0,0,0,.439.962,1.808,1.808,0,0,0,1.081.3,1.422,1.422,0,0,0,.91-.246A.787.787,0,0,0,94.22,41.328Zm3.867-2.171a5.613,5.613,0,0,1,.554-2.536,3.96,3.96,0,0,1,1.591-1.709,4.791,4.791,0,0,1,2.435-.6,4.373,4.373,0,0,1,3.366,1.323,5.076,5.076,0,0,1,1.23,3.6v.105a4.925,4.925,0,0,1-1.235,3.529,4.384,4.384,0,0,1-3.344,1.305,4.434,4.434,0,0,1-3.261-1.217,4.761,4.761,0,0,1-1.327-3.3Zm2.962.185a3.538,3.538,0,0,0,.413,1.934,1.376,1.376,0,0,0,1.222.615q1.582,0,1.617-2.435v-.3q0-2.558-1.635-2.558-1.485,0-1.608,2.206ZM35.25,62.171l-.976-.07a1.752,1.752,0,0,0-1.793.879V69H29.52V59.49H32.3l.1,1.222a2.294,2.294,0,0,1,2.083-1.4,2.888,2.888,0,0,1,.826.105Zm5.669,7a4.889,4.889,0,0,1-3.542-1.305,4.507,4.507,0,0,1-1.354-3.4v-.246a5.84,5.84,0,0,1,.541-2.575,3.955,3.955,0,0,1,1.578-1.727,4.763,4.763,0,0,1,2.461-.611,4.117,4.117,0,0,1,3.164,1.244,4.887,4.887,0,0,1,1.16,3.467v1.151H39.038a2.135,2.135,0,0,0,.694,1.257,2.066,2.066,0,0,0,1.389.457,2.662,2.662,0,0,0,2.2-.984l1.354,1.6A3.784,3.784,0,0,1,43.1,68.723,5.3,5.3,0,0,1,40.919,69.176ZM40.585,61.6q-1.3,0-1.547,1.723h2.988v-.229a1.467,1.467,0,0,0-.36-1.1A1.434,1.434,0,0,0,40.585,61.6ZM51.1,66.328a.684.684,0,0,0-.4-.606,6.016,6.016,0,0,0-1.5-.475A6.853,6.853,0,0,1,47.37,64.6a3.062,3.062,0,0,1-1.1-.971,2.319,2.319,0,0,1-.378-1.31,2.628,2.628,0,0,1,1.081-2.158,4.453,4.453,0,0,1,2.83-.848,4.934,4.934,0,0,1,3.023.853,2.666,2.666,0,0,1,1.143,2.241H51q0-1.143-1.2-1.143a1.194,1.194,0,0,0-.782.259.8.8,0,0,0-.316.646.737.737,0,0,0,.387.642,3.654,3.654,0,0,0,1.235.4,10.671,10.671,0,0,1,1.49.378,2.706,2.706,0,0,1,2.145,2.646A2.491,2.491,0,0,1,52.8,68.358a5.068,5.068,0,0,1-2.993.817,5.172,5.172,0,0,1-2.18-.439,3.645,3.645,0,0,1-1.494-1.2,2.707,2.707,0,0,1-.536-1.591h2.769a1.145,1.145,0,0,0,.439.962,1.808,1.808,0,0,0,1.081.3,1.422,1.422,0,0,0,.91-.246A.787.787,0,0,0,51.1,66.328ZM58.462,69H55.491V59.49h2.971ZM55.315,57.038A1.322,1.322,0,0,1,55.772,56a1.943,1.943,0,0,1,2.373,0,1.405,1.405,0,0,1,0,2.074,1.943,1.943,0,0,1-2.373,0A1.322,1.322,0,0,1,55.315,57.038Zm4.6,7.137a5.809,5.809,0,0,1,.976-3.56,3.211,3.211,0,0,1,2.725-1.3,2.731,2.731,0,0,1,2.145,1V55.5h2.971V69H66.064l-.149-1.02a2.8,2.8,0,0,1-2.32,1.2,3.205,3.205,0,0,1-2.689-1.3A5.993,5.993,0,0,1,59.912,64.175Zm2.962.185q0,2.531,1.477,2.531a1.458,1.458,0,0,0,1.406-.826V62.443a1.419,1.419,0,0,0-1.389-.844q-1.371,0-1.485,2.215Zm12.138,4.816a4.889,4.889,0,0,1-3.542-1.305,4.507,4.507,0,0,1-1.354-3.4v-.246a5.84,5.84,0,0,1,.541-2.575,3.955,3.955,0,0,1,1.578-1.727,4.763,4.763,0,0,1,2.461-.611,4.117,4.117,0,0,1,3.164,1.244,4.887,4.887,0,0,1,1.16,3.467v1.151H73.131a2.135,2.135,0,0,0,.694,1.257,2.066,2.066,0,0,0,1.389.457,2.662,2.662,0,0,0,2.2-.984l1.354,1.6A3.784,3.784,0,0,1,77.2,68.723,5.3,5.3,0,0,1,75.012,69.176ZM74.678,61.6q-1.3,0-1.547,1.723h2.988v-.229a1.467,1.467,0,0,0-.36-1.1A1.434,1.434,0,0,0,74.678,61.6Zm8.253-2.109.1,1.116a3.225,3.225,0,0,1,2.716-1.292,2.713,2.713,0,0,1,2.219.888,4.226,4.226,0,0,1,.76,2.672V69H85.752V63a1.6,1.6,0,0,0-.29-1.059,1.342,1.342,0,0,0-1.055-.338,1.413,1.413,0,0,0-1.292.686V69H80.153V59.49Zm11.452,7.4a1.317,1.317,0,0,0,.967-.338,1.241,1.241,0,0,0,.334-.945h2.777a3.288,3.288,0,0,1-1.121,2.566,4.168,4.168,0,0,1-2.887,1,4.22,4.22,0,0,1-3.27-1.3,5.125,5.125,0,0,1-1.2-3.6v-.123A5.792,5.792,0,0,1,90.52,61.6a3.872,3.872,0,0,1,1.534-1.7,4.573,4.573,0,0,1,2.373-.593,4.116,4.116,0,0,1,2.944,1.028,3.647,3.647,0,0,1,1.09,2.786H95.684A1.626,1.626,0,0,0,95.323,62a1.244,1.244,0,0,0-.967-.4q-1.151,0-1.345,1.468a10.357,10.357,0,0,0-.062,1.283,4.068,4.068,0,0,0,.343,1.986A1.187,1.187,0,0,0,94.383,66.891ZM102.838,69H99.867V59.49h2.971ZM99.691,57.038A1.322,1.322,0,0,1,100.148,56a1.943,1.943,0,0,1,2.373,0,1.405,1.405,0,0,1,0,2.074,1.943,1.943,0,0,1-2.373,0A1.322,1.322,0,0,1,99.691,57.038ZM110.019,69a3.344,3.344,0,0,1-.281-.853,2.754,2.754,0,0,1-2.285,1.028,3.374,3.374,0,0,1-2.285-.813,2.588,2.588,0,0,1-.94-2.043,2.66,2.66,0,0,1,1.143-2.338,5.821,5.821,0,0,1,3.322-.791h.914v-.5q0-1.316-1.134-1.316a.927.927,0,0,0-1.055,1.042h-2.962a2.655,2.655,0,0,1,1.173-2.239,4.931,4.931,0,0,1,2.993-.86,4.323,4.323,0,0,1,2.874.888,3.086,3.086,0,0,1,1.081,2.435v4.21a4.311,4.311,0,0,0,.4,2V69Zm-1.854-1.934a1.652,1.652,0,0,0,.918-.237,1.487,1.487,0,0,0,.523-.536V64.772h-.861q-1.547,0-1.547,1.389a.848.848,0,0,0,.272.655A.986.986,0,0,0,108.164,67.066ZM117.34,69h-2.971V55.5h2.971Z" transform="translate(540.5 6905.587)" fill="#12263f"/>
    <path id="Trazado_741381" data-name="Trazado 741381" d="M44.887,14.667a4.673,4.673,0,0,1-.721,2.36,4.35,4.35,0,0,1-1.85,1.586,6.3,6.3,0,0,1-2.72.563,5.025,5.025,0,0,1-3.973-1.644,6.786,6.786,0,0,1-1.45-4.641v-.633a7.746,7.746,0,0,1,.655-3.292,4.961,4.961,0,0,1,1.885-2.18,5.26,5.26,0,0,1,2.848-.769,5.516,5.516,0,0,1,3.744,1.226,4.844,4.844,0,0,1,1.608,3.379H41.837a2.292,2.292,0,0,0-.589-1.679,2.422,2.422,0,0,0-1.687-.51,1.843,1.843,0,0,0-1.687.861,5.536,5.536,0,0,0-.562,2.751v.905a6.126,6.126,0,0,0,.514,2.927,1.882,1.882,0,0,0,1.771.879,2.369,2.369,0,0,0,1.626-.5,2.126,2.126,0,0,0,.6-1.591Zm5.924,4.509a4.889,4.889,0,0,1-3.542-1.305,4.507,4.507,0,0,1-1.354-3.4v-.246a5.84,5.84,0,0,1,.541-2.575,3.955,3.955,0,0,1,1.578-1.727,4.763,4.763,0,0,1,2.461-.611,4.117,4.117,0,0,1,3.164,1.244,4.887,4.887,0,0,1,1.16,3.467v1.151H48.93a2.135,2.135,0,0,0,.694,1.257,2.066,2.066,0,0,0,1.389.457,2.662,2.662,0,0,0,2.2-.984l1.354,1.6A3.784,3.784,0,0,1,53,18.723,5.3,5.3,0,0,1,50.811,19.176ZM50.477,11.6q-1.3,0-1.547,1.723h2.988v-.229a1.467,1.467,0,0,0-.36-1.1A1.434,1.434,0,0,0,50.477,11.6ZM59.134,19H56.164V5.5h2.971Zm1.45-4.825a5.809,5.809,0,0,1,.976-3.56,3.211,3.211,0,0,1,2.725-1.3,2.731,2.731,0,0,1,2.145,1V5.5H69.4V19H66.737l-.149-1.02a2.8,2.8,0,0,1-2.32,1.2,3.205,3.205,0,0,1-2.689-1.3A5.993,5.993,0,0,1,60.584,14.175Zm2.962.185q0,2.531,1.477,2.531a1.458,1.458,0,0,0,1.406-.826V12.443a1.419,1.419,0,0,0-1.389-.844q-1.371,0-1.485,2.215ZM76.44,19a3.344,3.344,0,0,1-.281-.853,2.754,2.754,0,0,1-2.285,1.028,3.374,3.374,0,0,1-2.285-.813,2.588,2.588,0,0,1-.94-2.043,2.66,2.66,0,0,1,1.143-2.338,5.821,5.821,0,0,1,3.322-.791h.914v-.5q0-1.316-1.134-1.316a.927.927,0,0,0-1.055,1.042H70.876a2.655,2.655,0,0,1,1.173-2.239,4.931,4.931,0,0,1,2.993-.86,4.323,4.323,0,0,1,2.874.888A3.086,3.086,0,0,1,79,12.637v4.21a4.311,4.311,0,0,0,.4,2V19Zm-1.854-1.934a1.652,1.652,0,0,0,.918-.237,1.487,1.487,0,0,0,.523-.536V14.772h-.861q-1.547,0-1.547,1.389a.848.848,0,0,0,.272.655A.986.986,0,0,0,74.585,17.066Zm11.03-.738a.684.684,0,0,0-.4-.606,6.016,6.016,0,0,0-1.5-.475,6.853,6.853,0,0,1-1.828-.646,3.062,3.062,0,0,1-1.1-.971,2.319,2.319,0,0,1-.378-1.31,2.628,2.628,0,0,1,1.081-2.158,4.453,4.453,0,0,1,2.83-.848,4.934,4.934,0,0,1,3.023.853,2.666,2.666,0,0,1,1.143,2.241H85.519q0-1.143-1.2-1.143a1.194,1.194,0,0,0-.782.259.8.8,0,0,0-.316.646.737.737,0,0,0,.387.642,3.654,3.654,0,0,0,1.235.4,10.671,10.671,0,0,1,1.49.378,2.706,2.706,0,0,1,2.145,2.646,2.491,2.491,0,0,1-1.156,2.118,5.068,5.068,0,0,1-2.993.817,5.172,5.172,0,0,1-2.18-.439,3.645,3.645,0,0,1-1.494-1.2,2.707,2.707,0,0,1-.536-1.591h2.769a1.145,1.145,0,0,0,.439.962,1.808,1.808,0,0,0,1.081.3,1.422,1.422,0,0,0,.91-.246A.787.787,0,0,0,85.616,16.328Zm8.35-2.153a5.809,5.809,0,0,1,.976-3.56,3.211,3.211,0,0,1,2.725-1.3,2.731,2.731,0,0,1,2.145,1V5.5h2.971V19h-2.663l-.149-1.02a2.8,2.8,0,0,1-2.32,1.2,3.205,3.205,0,0,1-2.689-1.3A5.993,5.993,0,0,1,93.965,14.175Zm2.962.185q0,2.531,1.477,2.531a1.458,1.458,0,0,0,1.406-.826V12.443a1.419,1.419,0,0,0-1.389-.844q-1.371,0-1.485,2.215Zm12.138,4.816a4.889,4.889,0,0,1-3.542-1.305,4.507,4.507,0,0,1-1.354-3.4v-.246a5.84,5.84,0,0,1,.541-2.575,3.955,3.955,0,0,1,1.578-1.727,4.763,4.763,0,0,1,2.461-.611,4.117,4.117,0,0,1,3.164,1.244,4.887,4.887,0,0,1,1.16,3.467v1.151h-5.889a2.135,2.135,0,0,0,.694,1.257,2.066,2.066,0,0,0,1.389.457,2.662,2.662,0,0,0,2.2-.984l1.354,1.6a3.784,3.784,0,0,1-1.569,1.217A5.3,5.3,0,0,1,109.065,19.176Zm-.334-7.576q-1.3,0-1.547,1.723h2.988v-.229a1.467,1.467,0,0,0-.36-1.1A1.434,1.434,0,0,0,108.731,11.6ZM14.855,41.328a.684.684,0,0,0-.4-.606,6.016,6.016,0,0,0-1.5-.475,6.853,6.853,0,0,1-1.828-.646,3.062,3.062,0,0,1-1.1-.971,2.319,2.319,0,0,1-.378-1.31,2.628,2.628,0,0,1,1.081-2.158,4.453,4.453,0,0,1,2.83-.848,4.934,4.934,0,0,1,3.023.853,2.666,2.666,0,0,1,1.143,2.241H14.758q0-1.143-1.2-1.143a1.194,1.194,0,0,0-.782.259.8.8,0,0,0-.316.646.737.737,0,0,0,.387.642,3.654,3.654,0,0,0,1.235.4,10.671,10.671,0,0,1,1.49.378,2.706,2.706,0,0,1,2.145,2.646,2.491,2.491,0,0,1-1.156,2.118,5.068,5.068,0,0,1-2.993.817,5.172,5.172,0,0,1-2.18-.439,3.645,3.645,0,0,1-1.494-1.2,2.707,2.707,0,0,1-.536-1.591h2.769a1.145,1.145,0,0,0,.439.962,1.808,1.808,0,0,0,1.081.3,1.422,1.422,0,0,0,.91-.246A.787.787,0,0,0,14.855,41.328ZM23.7,44.176a4.889,4.889,0,0,1-3.542-1.305,4.507,4.507,0,0,1-1.354-3.4v-.246a5.84,5.84,0,0,1,.541-2.575,3.955,3.955,0,0,1,1.578-1.727,4.763,4.763,0,0,1,2.461-.611,4.117,4.117,0,0,1,3.164,1.244,4.887,4.887,0,0,1,1.16,3.467v1.151H21.816a2.135,2.135,0,0,0,.694,1.257,2.066,2.066,0,0,0,1.389.457,2.662,2.662,0,0,0,2.2-.984l1.354,1.6a3.784,3.784,0,0,1-1.569,1.217A5.3,5.3,0,0,1,23.7,44.176ZM23.363,36.6q-1.3,0-1.547,1.723H24.8v-.229a1.467,1.467,0,0,0-.36-1.1A1.434,1.434,0,0,0,23.363,36.6Zm9.554,5.291a1.317,1.317,0,0,0,.967-.338,1.241,1.241,0,0,0,.334-.945h2.777a3.288,3.288,0,0,1-1.121,2.566,4.168,4.168,0,0,1-2.887,1,4.22,4.22,0,0,1-3.27-1.3,5.125,5.125,0,0,1-1.2-3.6v-.123a5.792,5.792,0,0,1,.532-2.544,3.872,3.872,0,0,1,1.534-1.7,4.573,4.573,0,0,1,2.373-.593A4.116,4.116,0,0,1,35.9,35.343a3.647,3.647,0,0,1,1.09,2.786H34.217A1.626,1.626,0,0,0,33.857,37a1.244,1.244,0,0,0-.967-.4q-1.151,0-1.345,1.468a10.357,10.357,0,0,0-.062,1.283,4.068,4.068,0,0,0,.343,1.986A1.187,1.187,0,0,0,32.917,41.891Zm9.352,0a1.317,1.317,0,0,0,.967-.338,1.241,1.241,0,0,0,.334-.945h2.777a3.288,3.288,0,0,1-1.121,2.566,4.168,4.168,0,0,1-2.887,1,4.22,4.22,0,0,1-3.27-1.3,5.125,5.125,0,0,1-1.2-3.6v-.123a5.792,5.792,0,0,1,.532-2.544,3.872,3.872,0,0,1,1.534-1.7,4.573,4.573,0,0,1,2.373-.593,4.116,4.116,0,0,1,2.944,1.028,3.647,3.647,0,0,1,1.09,2.786H43.569A1.626,1.626,0,0,0,43.208,37a1.244,1.244,0,0,0-.967-.4q-1.151,0-1.345,1.468a10.357,10.357,0,0,0-.062,1.283,4.068,4.068,0,0,0,.343,1.986A1.187,1.187,0,0,0,42.268,41.891ZM50.723,44H47.752V34.49h2.971ZM47.577,32.038A1.322,1.322,0,0,1,48.034,31a1.943,1.943,0,0,1,2.373,0,1.405,1.405,0,0,1,0,2.074,1.943,1.943,0,0,1-2.373,0A1.322,1.322,0,0,1,47.577,32.038Zm4.6,7.119a5.613,5.613,0,0,1,.554-2.536,3.96,3.96,0,0,1,1.591-1.709,4.791,4.791,0,0,1,2.435-.6,4.373,4.373,0,0,1,3.366,1.323,5.076,5.076,0,0,1,1.23,3.6v.105a4.925,4.925,0,0,1-1.235,3.529,4.384,4.384,0,0,1-3.344,1.305,4.434,4.434,0,0,1-3.261-1.217,4.761,4.761,0,0,1-1.327-3.3Zm2.962.185a3.538,3.538,0,0,0,.413,1.934,1.376,1.376,0,0,0,1.222.615q1.582,0,1.617-2.435v-.3q0-2.558-1.635-2.558-1.485,0-1.608,2.206ZM65.375,34.49l.1,1.116a3.225,3.225,0,0,1,2.716-1.292,2.713,2.713,0,0,1,2.219.888,4.226,4.226,0,0,1,.76,2.672V44H68.2V38a1.6,1.6,0,0,0-.29-1.059,1.342,1.342,0,0,0-1.055-.338,1.413,1.413,0,0,0-1.292.686V44H62.6V34.49ZM78.163,44a3.344,3.344,0,0,1-.281-.853A2.754,2.754,0,0,1,75.6,44.176a3.374,3.374,0,0,1-2.285-.813,2.588,2.588,0,0,1-.94-2.043,2.66,2.66,0,0,1,1.143-2.338,5.821,5.821,0,0,1,3.322-.791h.914v-.5q0-1.316-1.134-1.316a.927.927,0,0,0-1.055,1.042H72.6a2.655,2.655,0,0,1,1.173-2.239,4.931,4.931,0,0,1,2.993-.86,4.323,4.323,0,0,1,2.874.888,3.086,3.086,0,0,1,1.081,2.435v4.21a4.311,4.311,0,0,0,.4,2V44Zm-1.854-1.934a1.652,1.652,0,0,0,.918-.237,1.487,1.487,0,0,0,.523-.536V39.772h-.861q-1.547,0-1.547,1.389a.848.848,0,0,0,.272.655A.986.986,0,0,0,76.308,42.066Zm8.851-7.576.1,1.116a3.27,3.27,0,0,1,2.716-1.292,2.407,2.407,0,0,1,2.435,1.433A3.165,3.165,0,0,1,93.2,34.314q2.892,0,2.971,3.5V44H93.2V38a1.813,1.813,0,0,0-.246-1.063,1.048,1.048,0,0,0-.9-.334,1.4,1.4,0,0,0-1.31.782l.009.123V44H87.787V38.015a1.906,1.906,0,0,0-.237-1.081,1.045,1.045,0,0,0-.905-.334,1.42,1.42,0,0,0-1.3.782V44H82.381V34.49ZM100.988,44H98.017V34.49h2.971ZM97.841,32.038A1.322,1.322,0,0,1,98.3,31a1.943,1.943,0,0,1,2.373,0,1.405,1.405,0,0,1,0,2.074,1.943,1.943,0,0,1-2.373,0A1.322,1.322,0,0,1,97.841,32.038Zm9.571,12.138a4.889,4.889,0,0,1-3.542-1.305,4.507,4.507,0,0,1-1.354-3.4v-.246a5.84,5.84,0,0,1,.541-2.575,3.955,3.955,0,0,1,1.578-1.727,4.763,4.763,0,0,1,2.461-.611,4.117,4.117,0,0,1,3.164,1.244,4.887,4.887,0,0,1,1.16,3.467v1.151h-5.889a2.135,2.135,0,0,0,.694,1.257,2.066,2.066,0,0,0,1.389.457,2.662,2.662,0,0,0,2.2-.984l1.354,1.6a3.784,3.784,0,0,1-1.569,1.217A5.3,5.3,0,0,1,107.413,44.176Zm-.334-7.576q-1.3,0-1.547,1.723h2.988v-.229a1.467,1.467,0,0,0-.36-1.1A1.434,1.434,0,0,0,107.079,36.6Zm8.253-2.109.1,1.116a3.225,3.225,0,0,1,2.716-1.292,2.713,2.713,0,0,1,2.219.888,4.226,4.226,0,0,1,.76,2.672V44h-2.971V38a1.6,1.6,0,0,0-.29-1.059,1.342,1.342,0,0,0-1.055-.338,1.413,1.413,0,0,0-1.292.686V44h-2.962V34.49Zm10.881-2.364V34.49h1.564v2.057h-1.564V40.9a1.111,1.111,0,0,0,.193.747,1.037,1.037,0,0,0,.765.211,4.345,4.345,0,0,0,.738-.053v2.118a5.466,5.466,0,0,1-1.67.255,3.1,3.1,0,0,1-2.259-.721,2.954,2.954,0,0,1-.729-2.188v-4.72h-1.213V34.49h1.213V32.126Zm2.092,7.031a5.613,5.613,0,0,1,.554-2.536,3.96,3.96,0,0,1,1.591-1.709,4.791,4.791,0,0,1,2.435-.6,4.373,4.373,0,0,1,3.366,1.323,5.076,5.076,0,0,1,1.23,3.6v.105a4.925,4.925,0,0,1-1.235,3.529,4.384,4.384,0,0,1-3.344,1.305,4.434,4.434,0,0,1-3.261-1.217,4.761,4.761,0,0,1-1.327-3.3Zm2.962.185a3.538,3.538,0,0,0,.413,1.934,1.376,1.376,0,0,0,1.222.615q1.582,0,1.617-2.435v-.3q0-2.558-1.635-2.558-1.485,0-1.608,2.206Z" transform="translate(477.5 6752.587)" fill="#12263f"/>
    <path id="Trazado_741382" data-name="Trazado 741382" d="M14.424,14.667a4.673,4.673,0,0,1-.721,2.36,4.35,4.35,0,0,1-1.85,1.586,6.3,6.3,0,0,1-2.72.563,5.025,5.025,0,0,1-3.973-1.644,6.786,6.786,0,0,1-1.45-4.641v-.633a7.746,7.746,0,0,1,.655-3.292A4.961,4.961,0,0,1,6.25,6.788,5.26,5.26,0,0,1,9.1,6.019a5.516,5.516,0,0,1,3.744,1.226,4.844,4.844,0,0,1,1.608,3.379H11.375a2.292,2.292,0,0,0-.589-1.679A2.422,2.422,0,0,0,9.1,8.436,1.843,1.843,0,0,0,7.411,9.3a5.536,5.536,0,0,0-.562,2.751v.905a6.125,6.125,0,0,0,.514,2.927,1.882,1.882,0,0,0,1.771.879,2.369,2.369,0,0,0,1.626-.5,2.126,2.126,0,0,0,.6-1.591Zm5.924,4.509a4.889,4.889,0,0,1-3.542-1.305,4.507,4.507,0,0,1-1.354-3.4v-.246a5.84,5.84,0,0,1,.541-2.575,3.955,3.955,0,0,1,1.578-1.727,4.763,4.763,0,0,1,2.461-.611A4.117,4.117,0,0,1,23.2,10.558a4.887,4.887,0,0,1,1.16,3.467v1.151H18.467a2.135,2.135,0,0,0,.694,1.257,2.066,2.066,0,0,0,1.389.457,2.662,2.662,0,0,0,2.2-.984l1.354,1.6a3.784,3.784,0,0,1-1.569,1.217A5.3,5.3,0,0,1,20.348,19.176ZM20.014,11.6q-1.3,0-1.547,1.723h2.988v-.229a1.467,1.467,0,0,0-.36-1.1A1.434,1.434,0,0,0,20.014,11.6ZM28.267,9.49l.1,1.116A3.225,3.225,0,0,1,31.08,9.314,2.713,2.713,0,0,1,33.3,10.2a4.226,4.226,0,0,1,.76,2.672V19H31.088V13a1.6,1.6,0,0,0-.29-1.059,1.342,1.342,0,0,0-1.055-.338,1.413,1.413,0,0,0-1.292.686V19H25.49V9.49ZM39.148,7.126V9.49h1.564v2.057H39.148V15.9a1.111,1.111,0,0,0,.193.747,1.037,1.037,0,0,0,.765.211,4.345,4.345,0,0,0,.738-.053v2.118a5.466,5.466,0,0,1-1.67.255,3.1,3.1,0,0,1-2.259-.721,2.954,2.954,0,0,1-.729-2.188v-4.72H34.973V9.49h1.213V7.126Zm8.481,5.045-.976-.07a1.752,1.752,0,0,0-1.793.879V19H41.9V9.49h2.777l.1,1.222a2.294,2.294,0,0,1,2.083-1.4,2.888,2.888,0,0,1,.826.105Zm.378,1.986a5.613,5.613,0,0,1,.554-2.536,3.96,3.96,0,0,1,1.591-1.709,4.791,4.791,0,0,1,2.435-.6,4.373,4.373,0,0,1,3.366,1.323,5.076,5.076,0,0,1,1.23,3.6v.105a4.925,4.925,0,0,1-1.235,3.529A4.384,4.384,0,0,1,52.6,19.176a4.434,4.434,0,0,1-3.261-1.217,4.761,4.761,0,0,1-1.327-3.3Zm2.962.185a3.538,3.538,0,0,0,.413,1.934,1.376,1.376,0,0,0,1.222.615q1.582,0,1.617-2.435v-.3q0-2.558-1.635-2.558-1.485,0-1.608,2.206ZM62.6,14.175a5.809,5.809,0,0,1,.976-3.56,3.211,3.211,0,0,1,2.725-1.3,2.731,2.731,0,0,1,2.145,1V5.5h2.971V19H68.75L68.6,17.98a2.8,2.8,0,0,1-2.32,1.2,3.205,3.205,0,0,1-2.689-1.3A5.993,5.993,0,0,1,62.6,14.175Zm2.962.185q0,2.531,1.477,2.531a1.458,1.458,0,0,0,1.406-.826V12.443a1.419,1.419,0,0,0-1.389-.844q-1.371,0-1.485,2.215ZM77.7,19.176a4.889,4.889,0,0,1-3.542-1.305,4.507,4.507,0,0,1-1.354-3.4v-.246a5.84,5.84,0,0,1,.541-2.575,3.955,3.955,0,0,1,1.578-1.727,4.763,4.763,0,0,1,2.461-.611,4.117,4.117,0,0,1,3.164,1.244,4.887,4.887,0,0,1,1.16,3.467v1.151H75.816a2.135,2.135,0,0,0,.694,1.257,2.066,2.066,0,0,0,1.389.457,2.662,2.662,0,0,0,2.2-.984l1.354,1.6a3.784,3.784,0,0,1-1.569,1.217A5.3,5.3,0,0,1,77.7,19.176ZM77.363,11.6q-1.3,0-1.547,1.723H78.8v-.229a1.467,1.467,0,0,0-.36-1.1A1.434,1.434,0,0,0,77.363,11.6ZM91.4,16.891a1.317,1.317,0,0,0,.967-.338,1.241,1.241,0,0,0,.334-.945h2.777a3.288,3.288,0,0,1-1.121,2.566,4.168,4.168,0,0,1-2.887,1,4.22,4.22,0,0,1-3.27-1.3,5.125,5.125,0,0,1-1.2-3.6v-.123a5.792,5.792,0,0,1,.532-2.544,3.872,3.872,0,0,1,1.534-1.7,4.573,4.573,0,0,1,2.373-.593,4.116,4.116,0,0,1,2.944,1.028,3.647,3.647,0,0,1,1.09,2.786H92.7A1.626,1.626,0,0,0,92.339,12a1.244,1.244,0,0,0-.967-.4q-1.151,0-1.345,1.468a10.357,10.357,0,0,0-.062,1.283,4.068,4.068,0,0,0,.343,1.986A1.187,1.187,0,0,0,91.4,16.891Zm4.957-2.733a5.613,5.613,0,0,1,.554-2.536A3.96,3.96,0,0,1,98.5,9.912a4.791,4.791,0,0,1,2.435-.6,4.373,4.373,0,0,1,3.366,1.323,5.076,5.076,0,0,1,1.23,3.6v.105a4.925,4.925,0,0,1-1.235,3.529,4.384,4.384,0,0,1-3.344,1.305,4.434,4.434,0,0,1-3.261-1.217,4.761,4.761,0,0,1-1.327-3.3Zm2.962.185a3.538,3.538,0,0,0,.413,1.934,1.376,1.376,0,0,0,1.222.615q1.582,0,1.617-2.435v-.3q0-2.558-1.635-2.558-1.485,0-1.608,2.206ZM109.557,9.49l.1,1.116a3.225,3.225,0,0,1,2.716-1.292,2.713,2.713,0,0,1,2.219.888,4.226,4.226,0,0,1,.76,2.672V19h-2.971V13a1.6,1.6,0,0,0-.29-1.059,1.342,1.342,0,0,0-1.055-.338,1.413,1.413,0,0,0-1.292.686V19H106.78V9.49Zm10.881-2.364V9.49H122v2.057h-1.564V15.9a1.111,1.111,0,0,0,.193.747,1.037,1.037,0,0,0,.765.211,4.345,4.345,0,0,0,.738-.053v2.118a5.466,5.466,0,0,1-1.67.255,3.1,3.1,0,0,1-2.259-.721,2.954,2.954,0,0,1-.729-2.188v-4.72h-1.213V9.49h1.213V7.126Zm8.481,5.045-.976-.07a1.752,1.752,0,0,0-1.793.879V19h-2.962V9.49h2.777l.1,1.222a2.294,2.294,0,0,1,2.083-1.4,2.888,2.888,0,0,1,.826.105Zm.378,1.986a5.613,5.613,0,0,1,.554-2.536,3.96,3.96,0,0,1,1.591-1.709,4.791,4.791,0,0,1,2.435-.6,4.373,4.373,0,0,1,3.366,1.323,5.076,5.076,0,0,1,1.23,3.6v.105a4.925,4.925,0,0,1-1.235,3.529,4.384,4.384,0,0,1-3.344,1.305,4.434,4.434,0,0,1-3.261-1.217,4.761,4.761,0,0,1-1.327-3.3Zm2.962.185a3.538,3.538,0,0,0,.413,1.934,1.376,1.376,0,0,0,1.222.615q1.582,0,1.617-2.435v-.3q0-2.558-1.635-2.558-1.485,0-1.608,2.206ZM142.9,19h-2.971V5.5H142.9ZM28.017,39.175a5.809,5.809,0,0,1,.976-3.56,3.211,3.211,0,0,1,2.725-1.3,2.731,2.731,0,0,1,2.145,1V30.5h2.971V44H34.169l-.149-1.02a2.8,2.8,0,0,1-2.32,1.2,3.205,3.205,0,0,1-2.689-1.3A5.993,5.993,0,0,1,28.017,39.175Zm2.962.185q0,2.531,1.477,2.531a1.458,1.458,0,0,0,1.406-.826V37.443a1.419,1.419,0,0,0-1.389-.844q-1.371,0-1.485,2.215Zm12.138,4.816a4.889,4.889,0,0,1-3.542-1.305,4.507,4.507,0,0,1-1.354-3.4v-.246a5.84,5.84,0,0,1,.541-2.575,3.955,3.955,0,0,1,1.578-1.727,4.763,4.763,0,0,1,2.461-.611,4.117,4.117,0,0,1,3.164,1.244,4.887,4.887,0,0,1,1.16,3.467v1.151H41.235a2.135,2.135,0,0,0,.694,1.257,2.066,2.066,0,0,0,1.389.457,2.662,2.662,0,0,0,2.2-.984l1.354,1.6A3.784,3.784,0,0,1,45.3,43.723,5.3,5.3,0,0,1,43.116,44.176ZM42.782,36.6q-1.3,0-1.547,1.723h2.988v-.229a1.467,1.467,0,0,0-.36-1.1A1.434,1.434,0,0,0,42.782,36.6ZM55.6,34.49l.1,1.116a3.27,3.27,0,0,1,2.716-1.292,2.407,2.407,0,0,1,2.435,1.433,3.165,3.165,0,0,1,2.795-1.433q2.892,0,2.971,3.5V44H63.639V38a1.813,1.813,0,0,0-.246-1.063,1.048,1.048,0,0,0-.9-.334,1.4,1.4,0,0,0-1.31.782l.009.123V44H58.225V38.015a1.906,1.906,0,0,0-.237-1.081,1.045,1.045,0,0,0-.905-.334,1.42,1.42,0,0,0-1.3.782V44H52.819V34.49Zm12.331,4.667a5.613,5.613,0,0,1,.554-2.536,3.96,3.96,0,0,1,1.591-1.709,4.791,4.791,0,0,1,2.435-.6,4.373,4.373,0,0,1,3.366,1.323,5.076,5.076,0,0,1,1.23,3.6v.105a4.925,4.925,0,0,1-1.235,3.529,4.384,4.384,0,0,1-3.344,1.305,4.434,4.434,0,0,1-3.261-1.217,4.761,4.761,0,0,1-1.327-3.3Zm2.962.185a3.538,3.538,0,0,0,.413,1.934,1.376,1.376,0,0,0,1.222.615q1.582,0,1.617-2.435v-.3q0-2.558-1.635-2.558-1.485,0-1.608,2.206Zm10.969-7.216V34.49h1.564v2.057H81.858V40.9a1.111,1.111,0,0,0,.193.747,1.037,1.037,0,0,0,.765.211,4.345,4.345,0,0,0,.738-.053v2.118a5.466,5.466,0,0,1-1.67.255,3.1,3.1,0,0,1-2.259-.721,2.954,2.954,0,0,1-.729-2.188v-4.72H77.684V34.49H78.9V32.126Zm2.092,7.031a5.613,5.613,0,0,1,.554-2.536,3.96,3.96,0,0,1,1.591-1.709,4.791,4.791,0,0,1,2.435-.6A4.373,4.373,0,0,1,91.9,35.637a5.076,5.076,0,0,1,1.23,3.6v.105a4.925,4.925,0,0,1-1.235,3.529,4.384,4.384,0,0,1-3.344,1.305,4.434,4.434,0,0,1-3.261-1.217,4.761,4.761,0,0,1-1.327-3.3Zm2.962.185a3.538,3.538,0,0,0,.413,1.934,1.376,1.376,0,0,0,1.222.615q1.582,0,1.617-2.435v-.3q0-2.558-1.635-2.558-1.485,0-1.608,2.206Zm13.271-2.171-.976-.07a1.752,1.752,0,0,0-1.793.879V44H94.453V34.49H97.23l.1,1.222a2.294,2.294,0,0,1,2.083-1.4,2.888,2.888,0,0,1,.826.105Zm5.669,7a4.889,4.889,0,0,1-3.542-1.305,4.507,4.507,0,0,1-1.354-3.4v-.246a5.84,5.84,0,0,1,.541-2.575,3.955,3.955,0,0,1,1.578-1.727,4.763,4.763,0,0,1,2.461-.611,4.117,4.117,0,0,1,3.164,1.244,4.887,4.887,0,0,1,1.16,3.467v1.151h-5.889a2.135,2.135,0,0,0,.694,1.257,2.066,2.066,0,0,0,1.389.457,2.662,2.662,0,0,0,2.2-.984l1.354,1.6a3.784,3.784,0,0,1-1.569,1.217A5.3,5.3,0,0,1,105.853,44.176Zm-.334-7.576q-1.3,0-1.547,1.723h2.988v-.229a1.467,1.467,0,0,0-.36-1.1A1.434,1.434,0,0,0,105.519,36.6Zm10.512,4.729a.684.684,0,0,0-.4-.606,6.016,6.016,0,0,0-1.5-.475A6.853,6.853,0,0,1,112.3,39.6a3.062,3.062,0,0,1-1.1-.971,2.319,2.319,0,0,1-.378-1.31,2.628,2.628,0,0,1,1.081-2.158,4.453,4.453,0,0,1,2.83-.848,4.934,4.934,0,0,1,3.023.853,2.666,2.666,0,0,1,1.143,2.241h-2.971q0-1.143-1.2-1.143a1.194,1.194,0,0,0-.782.259.8.8,0,0,0-.316.646.737.737,0,0,0,.387.642,3.654,3.654,0,0,0,1.235.4,10.671,10.671,0,0,1,1.49.378,2.706,2.706,0,0,1,2.145,2.646,2.491,2.491,0,0,1-1.156,2.118,5.068,5.068,0,0,1-2.993.817,5.172,5.172,0,0,1-2.18-.439,3.645,3.645,0,0,1-1.494-1.2,2.707,2.707,0,0,1-.536-1.591H113.3a1.145,1.145,0,0,0,.439.962,1.808,1.808,0,0,0,1.081.3,1.422,1.422,0,0,0,.91-.246A.787.787,0,0,0,116.03,41.328Z" transform="translate(551.5 6589.587)" fill="#12263f"/>
    <path id="Trazado_741383" data-name="Trazado 741383" d="M17.043,14.667a4.673,4.673,0,0,1-.721,2.36,4.35,4.35,0,0,1-1.85,1.586,6.3,6.3,0,0,1-2.72.563A5.025,5.025,0,0,1,7.78,17.532a6.786,6.786,0,0,1-1.45-4.641v-.633a7.746,7.746,0,0,1,.655-3.292A4.961,4.961,0,0,1,8.87,6.788a5.26,5.26,0,0,1,2.848-.769,5.516,5.516,0,0,1,3.744,1.226,4.844,4.844,0,0,1,1.608,3.379H13.994A2.292,2.292,0,0,0,13.4,8.945a2.422,2.422,0,0,0-1.687-.51A1.843,1.843,0,0,0,10.03,9.3a5.536,5.536,0,0,0-.562,2.751v.905a6.126,6.126,0,0,0,.514,2.927,1.882,1.882,0,0,0,1.771.879,2.369,2.369,0,0,0,1.626-.5,2.126,2.126,0,0,0,.6-1.591Zm5.924,4.509a4.889,4.889,0,0,1-3.542-1.305,4.507,4.507,0,0,1-1.354-3.4v-.246a5.84,5.84,0,0,1,.541-2.575A3.955,3.955,0,0,1,20.19,9.925a4.763,4.763,0,0,1,2.461-.611,4.117,4.117,0,0,1,3.164,1.244,4.887,4.887,0,0,1,1.16,3.467v1.151H21.086a2.135,2.135,0,0,0,.694,1.257,2.066,2.066,0,0,0,1.389.457,2.662,2.662,0,0,0,2.2-.984l1.354,1.6a3.784,3.784,0,0,1-1.569,1.217A5.3,5.3,0,0,1,22.967,19.176ZM22.633,11.6q-1.3,0-1.547,1.723h2.988v-.229a1.467,1.467,0,0,0-.36-1.1A1.434,1.434,0,0,0,22.633,11.6ZM30.886,9.49l.1,1.116A3.225,3.225,0,0,1,33.7,9.314a2.713,2.713,0,0,1,2.219.888,4.226,4.226,0,0,1,.76,2.672V19H33.708V13a1.6,1.6,0,0,0-.29-1.059,1.342,1.342,0,0,0-1.055-.338,1.413,1.413,0,0,0-1.292.686V19H28.109V9.49ZM41.767,7.126V9.49h1.564v2.057H41.767V15.9a1.111,1.111,0,0,0,.193.747,1.037,1.037,0,0,0,.765.211,4.345,4.345,0,0,0,.738-.053v2.118a5.466,5.466,0,0,1-1.67.255,3.1,3.1,0,0,1-2.259-.721,2.954,2.954,0,0,1-.729-2.188v-4.72H37.592V9.49h1.213V7.126Zm8.481,5.045-.976-.07a1.752,1.752,0,0,0-1.793.879V19H44.518V9.49H47.3l.1,1.222a2.294,2.294,0,0,1,2.083-1.4,2.888,2.888,0,0,1,.826.105Zm.378,1.986a5.613,5.613,0,0,1,.554-2.536,3.96,3.96,0,0,1,1.591-1.709,4.791,4.791,0,0,1,2.435-.6,4.373,4.373,0,0,1,3.366,1.323,5.076,5.076,0,0,1,1.23,3.6v.105a4.925,4.925,0,0,1-1.235,3.529,4.384,4.384,0,0,1-3.344,1.305,4.434,4.434,0,0,1-3.261-1.217,4.761,4.761,0,0,1-1.327-3.3Zm2.962.185A3.538,3.538,0,0,0,54,16.275a1.376,1.376,0,0,0,1.222.615q1.582,0,1.617-2.435v-.3q0-2.558-1.635-2.558-1.485,0-1.608,2.206Zm11.628-.167a5.809,5.809,0,0,1,.976-3.56,3.211,3.211,0,0,1,2.725-1.3,2.731,2.731,0,0,1,2.145,1V5.5h2.971V19H71.369l-.149-1.02a2.8,2.8,0,0,1-2.32,1.2,3.205,3.205,0,0,1-2.689-1.3A5.993,5.993,0,0,1,65.216,14.175Zm2.962.185q0,2.531,1.477,2.531a1.458,1.458,0,0,0,1.406-.826V12.443a1.419,1.419,0,0,0-1.389-.844q-1.371,0-1.485,2.215Zm12.138,4.816a4.889,4.889,0,0,1-3.542-1.305,4.507,4.507,0,0,1-1.354-3.4v-.246a5.84,5.84,0,0,1,.541-2.575,3.955,3.955,0,0,1,1.578-1.727A4.763,4.763,0,0,1,80,9.314a4.117,4.117,0,0,1,3.164,1.244,4.887,4.887,0,0,1,1.16,3.467v1.151H78.435a2.135,2.135,0,0,0,.694,1.257,2.066,2.066,0,0,0,1.389.457,2.662,2.662,0,0,0,2.2-.984l1.354,1.6A3.784,3.784,0,0,1,82.5,18.723,5.3,5.3,0,0,1,80.316,19.176ZM79.982,11.6q-1.3,0-1.547,1.723h2.988v-.229a1.467,1.467,0,0,0-.36-1.1A1.434,1.434,0,0,0,79.982,11.6ZM90.652,19V11.547h-1.38V9.49h1.38V8.734a3.286,3.286,0,0,1,.958-2.522,3.785,3.785,0,0,1,2.689-.9,5.89,5.89,0,0,1,1.389.185L95.7,7.68a2.706,2.706,0,0,0-.729-.079q-1.345,0-1.345,1.16V9.49h1.854v2.057H93.623V19Zm11.531-1.028a3.054,3.054,0,0,1-2.54,1.2,3,3,0,0,1-2.369-.91,3.826,3.826,0,0,1-.8-2.615V9.49h2.962v6.179a1.065,1.065,0,0,0,1.187,1.222,1.548,1.548,0,0,0,1.45-.729V9.49h2.979V19h-2.777Zm9.088,1.2a4.889,4.889,0,0,1-3.542-1.305,4.507,4.507,0,0,1-1.354-3.4v-.246a5.84,5.84,0,0,1,.541-2.575,3.955,3.955,0,0,1,1.578-1.727,4.763,4.763,0,0,1,2.461-.611,4.117,4.117,0,0,1,3.164,1.244,4.887,4.887,0,0,1,1.16,3.467v1.151H109.39a2.135,2.135,0,0,0,.694,1.257,2.066,2.066,0,0,0,1.389.457,2.662,2.662,0,0,0,2.2-.984l1.354,1.6a3.784,3.784,0,0,1-1.569,1.217A5.3,5.3,0,0,1,111.271,19.176Zm-.334-7.576q-1.3,0-1.547,1.723h2.988v-.229a1.467,1.467,0,0,0-.36-1.1A1.434,1.434,0,0,0,110.937,11.6Zm11.285.571-.976-.07a1.752,1.752,0,0,0-1.793.879V19h-2.962V9.49h2.777l.1,1.222a2.294,2.294,0,0,1,2.083-1.4,2.888,2.888,0,0,1,.826.105Zm4.562,4.544h4.333V19H123.04V17.348l4.219-5.572h-4.034V9.49h7.8v1.6ZM137.911,19a3.344,3.344,0,0,1-.281-.853,2.754,2.754,0,0,1-2.285,1.028,3.374,3.374,0,0,1-2.285-.813,2.588,2.588,0,0,1-.94-2.043,2.66,2.66,0,0,1,1.143-2.338,5.821,5.821,0,0,1,3.322-.791h.914v-.5q0-1.316-1.134-1.316a.927.927,0,0,0-1.055,1.042h-2.962a2.655,2.655,0,0,1,1.173-2.239,4.931,4.931,0,0,1,2.993-.86,4.323,4.323,0,0,1,2.874.888,3.086,3.086,0,0,1,1.081,2.435v4.21a4.311,4.311,0,0,0,.4,2V19Zm-1.854-1.934a1.652,1.652,0,0,0,.918-.237,1.487,1.487,0,0,0,.523-.536V14.772h-.861q-1.547,0-1.547,1.389a.848.848,0,0,0,.272.655A.986.986,0,0,0,136.056,17.066Z" transform="translate(906.5 6598.587)" fill="#12263f"/>
    <path id="Trazado_741384" data-name="Trazado 741384" d="M43.84,14.667a4.673,4.673,0,0,1-.721,2.36,4.35,4.35,0,0,1-1.85,1.586,6.3,6.3,0,0,1-2.72.563,5.025,5.025,0,0,1-3.973-1.644,6.786,6.786,0,0,1-1.45-4.641v-.633a7.746,7.746,0,0,1,.655-3.292,4.961,4.961,0,0,1,1.885-2.18,5.26,5.26,0,0,1,2.848-.769,5.516,5.516,0,0,1,3.744,1.226,4.844,4.844,0,0,1,1.608,3.379H40.79A2.292,2.292,0,0,0,40.2,8.945a2.422,2.422,0,0,0-1.687-.51,1.843,1.843,0,0,0-1.687.861,5.536,5.536,0,0,0-.562,2.751v.905a6.126,6.126,0,0,0,.514,2.927,1.882,1.882,0,0,0,1.771.879,2.369,2.369,0,0,0,1.626-.5,2.126,2.126,0,0,0,.6-1.591Zm5.924,4.509a4.889,4.889,0,0,1-3.542-1.305,4.507,4.507,0,0,1-1.354-3.4v-.246a5.84,5.84,0,0,1,.541-2.575,3.955,3.955,0,0,1,1.578-1.727,4.763,4.763,0,0,1,2.461-.611,4.117,4.117,0,0,1,3.164,1.244,4.887,4.887,0,0,1,1.16,3.467v1.151H47.883a2.135,2.135,0,0,0,.694,1.257,2.066,2.066,0,0,0,1.389.457,2.662,2.662,0,0,0,2.2-.984l1.354,1.6a3.784,3.784,0,0,1-1.569,1.217A5.3,5.3,0,0,1,49.764,19.176ZM49.43,11.6q-1.3,0-1.547,1.723h2.988v-.229a1.467,1.467,0,0,0-.36-1.1A1.434,1.434,0,0,0,49.43,11.6ZM57.683,9.49l.1,1.116A3.225,3.225,0,0,1,60.5,9.314a2.713,2.713,0,0,1,2.219.888,4.226,4.226,0,0,1,.76,2.672V19H60.5V13a1.6,1.6,0,0,0-.29-1.059,1.342,1.342,0,0,0-1.055-.338,1.413,1.413,0,0,0-1.292.686V19H54.905V9.49ZM68.563,7.126V9.49h1.564v2.057H68.563V15.9a1.111,1.111,0,0,0,.193.747,1.037,1.037,0,0,0,.765.211,4.345,4.345,0,0,0,.738-.053v2.118a5.466,5.466,0,0,1-1.67.255,3.1,3.1,0,0,1-2.259-.721,2.954,2.954,0,0,1-.729-2.188v-4.72H64.389V9.49H65.6V7.126Zm8.481,5.045-.976-.07a1.752,1.752,0,0,0-1.793.879V19H71.314V9.49h2.777l.1,1.222a2.294,2.294,0,0,1,2.083-1.4,2.888,2.888,0,0,1,.826.105Zm.378,1.986a5.613,5.613,0,0,1,.554-2.536,3.96,3.96,0,0,1,1.591-1.709A4.791,4.791,0,0,1,82,9.314a4.373,4.373,0,0,1,3.366,1.323,5.076,5.076,0,0,1,1.23,3.6v.105a4.925,4.925,0,0,1-1.235,3.529,4.384,4.384,0,0,1-3.344,1.305,4.434,4.434,0,0,1-3.261-1.217,4.761,4.761,0,0,1-1.327-3.3Zm2.962.185a3.538,3.538,0,0,0,.413,1.934,1.376,1.376,0,0,0,1.222.615q1.582,0,1.617-2.435v-.3Q83.637,11.6,82,11.6q-1.485,0-1.608,2.206Zm11.628-.167a5.809,5.809,0,0,1,.976-3.56,3.211,3.211,0,0,1,2.725-1.3,2.731,2.731,0,0,1,2.145,1V5.5h2.971V19H98.165l-.149-1.02a2.8,2.8,0,0,1-2.32,1.2,3.205,3.205,0,0,1-2.689-1.3A5.993,5.993,0,0,1,92.013,14.175Zm2.962.185q0,2.531,1.477,2.531a1.458,1.458,0,0,0,1.406-.826V12.443a1.419,1.419,0,0,0-1.389-.844q-1.371,0-1.485,2.215Zm12.138,4.816a4.889,4.889,0,0,1-3.542-1.305,4.507,4.507,0,0,1-1.354-3.4v-.246a5.84,5.84,0,0,1,.541-2.575,3.955,3.955,0,0,1,1.578-1.727,4.763,4.763,0,0,1,2.461-.611,4.117,4.117,0,0,1,3.164,1.244,4.887,4.887,0,0,1,1.16,3.467v1.151h-5.889a2.135,2.135,0,0,0,.694,1.257,2.066,2.066,0,0,0,1.389.457,2.662,2.662,0,0,0,2.2-.984l1.354,1.6a3.784,3.784,0,0,1-1.569,1.217A5.3,5.3,0,0,1,107.112,19.176Zm-.334-7.576q-1.3,0-1.547,1.723h2.988v-.229a1.467,1.467,0,0,0-.36-1.1A1.434,1.434,0,0,0,106.778,11.6ZM11.711,39.175a5.809,5.809,0,0,1,.976-3.56,3.211,3.211,0,0,1,2.725-1.3,2.731,2.731,0,0,1,2.145,1V30.5h2.971V44H17.864l-.149-1.02a2.8,2.8,0,0,1-2.32,1.2,3.205,3.205,0,0,1-2.689-1.3A5.993,5.993,0,0,1,11.711,39.175Zm2.962.185q0,2.531,1.477,2.531a1.458,1.458,0,0,0,1.406-.826V37.443a1.419,1.419,0,0,0-1.389-.844q-1.371,0-1.485,2.215ZM25.334,44H22.364V34.49h2.971ZM22.188,32.038A1.322,1.322,0,0,1,22.645,31a1.943,1.943,0,0,1,2.373,0,1.405,1.405,0,0,1,0,2.074,1.943,1.943,0,0,1-2.373,0A1.322,1.322,0,0,1,22.188,32.038Zm9.949,9.29a.684.684,0,0,0-.4-.606,6.016,6.016,0,0,0-1.5-.475,6.853,6.853,0,0,1-1.828-.646,3.062,3.062,0,0,1-1.1-.971,2.319,2.319,0,0,1-.378-1.31,2.628,2.628,0,0,1,1.081-2.158,4.453,4.453,0,0,1,2.83-.848,4.934,4.934,0,0,1,3.023.853,2.666,2.666,0,0,1,1.143,2.241H32.041q0-1.143-1.2-1.143a1.194,1.194,0,0,0-.782.259.8.8,0,0,0-.316.646.737.737,0,0,0,.387.642,3.654,3.654,0,0,0,1.235.4,10.671,10.671,0,0,1,1.49.378,2.706,2.706,0,0,1,2.145,2.646,2.491,2.491,0,0,1-1.156,2.118,5.068,5.068,0,0,1-2.993.817,5.172,5.172,0,0,1-2.18-.439,3.645,3.645,0,0,1-1.494-1.2,2.707,2.707,0,0,1-.536-1.591H29.4a1.145,1.145,0,0,0,.439.962,1.808,1.808,0,0,0,1.081.3,1.422,1.422,0,0,0,.91-.246A.787.787,0,0,0,32.137,41.328Zm7.69-9.2V34.49h1.564v2.057H39.828V40.9a1.111,1.111,0,0,0,.193.747,1.037,1.037,0,0,0,.765.211,4.345,4.345,0,0,0,.738-.053v2.118a5.466,5.466,0,0,1-1.67.255,3.1,3.1,0,0,1-2.259-.721,2.954,2.954,0,0,1-.729-2.188v-4.72H35.653V34.49h1.213V32.126Zm8.481,5.045-.976-.07a1.752,1.752,0,0,0-1.793.879V44H42.579V34.49h2.777l.1,1.222a2.294,2.294,0,0,1,2.083-1.4,2.888,2.888,0,0,1,.826.105ZM52.5,44H49.531V34.49H52.5ZM49.355,32.038A1.322,1.322,0,0,1,49.812,31a1.943,1.943,0,0,1,2.373,0,1.405,1.405,0,0,1,0,2.074,1.943,1.943,0,0,1-2.373,0A1.322,1.322,0,0,1,49.355,32.038Zm13.8,7.286a5.8,5.8,0,0,1-.967,3.595,3.238,3.238,0,0,1-2.725,1.257,2.81,2.81,0,0,1-2.338-1.151L57,44H54.347V30.5h2.962v4.755a2.711,2.711,0,0,1,2.136-.94,3.239,3.239,0,0,1,2.742,1.274,5.826,5.826,0,0,1,.967,3.586Zm-2.971-.189a3.866,3.866,0,0,0-.365-1.952A1.229,1.229,0,0,0,58.7,36.6a1.418,1.418,0,0,0-1.389.763v3.773a1.426,1.426,0,0,0,1.406.755,1.258,1.258,0,0,0,1.327-1.018A7.309,7.309,0,0,0,60.183,39.135Zm9.94,3.836a3.054,3.054,0,0,1-2.54,1.2,3,3,0,0,1-2.369-.91,3.826,3.826,0,0,1-.8-2.615V34.49h2.962v6.179a1.065,1.065,0,0,0,1.187,1.222,1.548,1.548,0,0,0,1.45-.729V34.49h2.979V44H70.211Zm8.508-1.081a1.317,1.317,0,0,0,.967-.338,1.241,1.241,0,0,0,.334-.945h2.777a3.288,3.288,0,0,1-1.121,2.566,4.168,4.168,0,0,1-2.887,1,4.22,4.22,0,0,1-3.27-1.3,5.125,5.125,0,0,1-1.2-3.6v-.123a5.792,5.792,0,0,1,.532-2.544,3.872,3.872,0,0,1,1.534-1.7,4.573,4.573,0,0,1,2.373-.593,4.116,4.116,0,0,1,2.944,1.028,3.647,3.647,0,0,1,1.09,2.786H79.932A1.626,1.626,0,0,0,79.572,37a1.244,1.244,0,0,0-.967-.4q-1.151,0-1.345,1.468a10.357,10.357,0,0,0-.062,1.283,4.068,4.068,0,0,0,.343,1.986A1.187,1.187,0,0,0,78.631,41.891ZM87.086,44H84.116V34.49h2.971ZM83.94,32.038A1.322,1.322,0,0,1,84.4,31a1.943,1.943,0,0,1,2.373,0,1.405,1.405,0,0,1,0,2.074,1.943,1.943,0,0,1-2.373,0A1.322,1.322,0,0,1,83.94,32.038Zm4.6,7.119a5.613,5.613,0,0,1,.554-2.536,3.96,3.96,0,0,1,1.591-1.709,4.791,4.791,0,0,1,2.435-.6,4.373,4.373,0,0,1,3.366,1.323,5.076,5.076,0,0,1,1.23,3.6v.105a4.925,4.925,0,0,1-1.235,3.529,4.384,4.384,0,0,1-3.344,1.305,4.434,4.434,0,0,1-3.261-1.217,4.761,4.761,0,0,1-1.327-3.3Zm2.962.185a3.538,3.538,0,0,0,.413,1.934,1.376,1.376,0,0,0,1.222.615q1.582,0,1.617-2.435v-.3q0-2.558-1.635-2.558-1.485,0-1.608,2.206ZM93.52,30.5h3.129l-2.443,2.76-2.417,0Zm8.218,3.99.1,1.116a3.225,3.225,0,0,1,2.716-1.292,2.713,2.713,0,0,1,2.219.888,4.226,4.226,0,0,1,.76,2.672V44h-2.971V38a1.6,1.6,0,0,0-.29-1.059,1.342,1.342,0,0,0-1.055-.338,1.413,1.413,0,0,0-1.292.686V44H98.96V34.49Zm11.54,4.685a5.809,5.809,0,0,1,.976-3.56,3.211,3.211,0,0,1,2.725-1.3,2.731,2.731,0,0,1,2.145,1V30.5h2.971V44H119.43l-.149-1.02a2.8,2.8,0,0,1-2.32,1.2,3.205,3.205,0,0,1-2.689-1.3A5.993,5.993,0,0,1,113.278,39.175Zm2.962.185q0,2.531,1.477,2.531a1.458,1.458,0,0,0,1.406-.826V37.443a1.419,1.419,0,0,0-1.389-.844q-1.371,0-1.485,2.215Zm12.138,4.816a4.889,4.889,0,0,1-3.542-1.305,4.507,4.507,0,0,1-1.354-3.4v-.246a5.84,5.84,0,0,1,.541-2.575,3.955,3.955,0,0,1,1.578-1.727,4.763,4.763,0,0,1,2.461-.611,4.117,4.117,0,0,1,3.164,1.244,4.887,4.887,0,0,1,1.16,3.467v1.151H126.5a2.135,2.135,0,0,0,.694,1.257,2.066,2.066,0,0,0,1.389.457,2.662,2.662,0,0,0,2.2-.984l1.354,1.6a3.784,3.784,0,0,1-1.569,1.217A5.3,5.3,0,0,1,128.377,44.176Zm-.334-7.576q-1.3,0-1.547,1.723h2.988v-.229a1.467,1.467,0,0,0-.36-1.1A1.434,1.434,0,0,0,128.043,36.6ZM23.471,64.315a5.735,5.735,0,0,1-1,3.538,3.2,3.2,0,0,1-2.694,1.323,2.742,2.742,0,0,1-2.153-.958v4.438H14.665V59.49h2.769l.088.879a2.742,2.742,0,0,1,2.241-1.055,3.224,3.224,0,0,1,2.733,1.3,5.805,5.805,0,0,1,.976,3.564Zm-2.962-.185q0-2.531-1.477-2.531a1.394,1.394,0,0,0-1.406.756V66.1a1.439,1.439,0,0,0,1.424.791q1.415,0,1.459-2.443Zm3.894.026a5.613,5.613,0,0,1,.554-2.536,3.96,3.96,0,0,1,1.591-1.709,4.791,4.791,0,0,1,2.435-.6,4.373,4.373,0,0,1,3.366,1.323,5.076,5.076,0,0,1,1.23,3.6v.105a4.925,4.925,0,0,1-1.235,3.529A4.384,4.384,0,0,1,29,69.176a4.434,4.434,0,0,1-3.261-1.217,4.761,4.761,0,0,1-1.327-3.3Zm2.962.185a3.538,3.538,0,0,0,.413,1.934A1.376,1.376,0,0,0,29,66.891q1.582,0,1.617-2.435v-.3q0-2.558-1.635-2.558-1.485,0-1.608,2.206Zm10.969-7.216V59.49H39.9v2.057H38.333V65.9a1.111,1.111,0,0,0,.193.747,1.037,1.037,0,0,0,.765.211,4.345,4.345,0,0,0,.738-.053v2.118a5.466,5.466,0,0,1-1.67.255,3.1,3.1,0,0,1-2.259-.721,2.954,2.954,0,0,1-.729-2.188v-4.72H34.159V59.49h1.213V57.126Zm7.33,12.05a4.889,4.889,0,0,1-3.542-1.305,4.507,4.507,0,0,1-1.354-3.4v-.246a5.84,5.84,0,0,1,.541-2.575,3.955,3.955,0,0,1,1.578-1.727,4.763,4.763,0,0,1,2.461-.611,4.117,4.117,0,0,1,3.164,1.244,4.887,4.887,0,0,1,1.16,3.467v1.151H43.783a2.135,2.135,0,0,0,.694,1.257,2.066,2.066,0,0,0,1.389.457,2.662,2.662,0,0,0,2.2-.984l1.354,1.6a3.784,3.784,0,0,1-1.569,1.217A5.3,5.3,0,0,1,45.664,69.176ZM45.33,61.6q-1.3,0-1.547,1.723h2.988v-.229a1.467,1.467,0,0,0-.36-1.1A1.434,1.434,0,0,0,45.33,61.6Zm8.253-2.109.1,1.116A3.225,3.225,0,0,1,56.4,59.314a2.713,2.713,0,0,1,2.219.888,4.226,4.226,0,0,1,.76,2.672V69H56.4V63a1.6,1.6,0,0,0-.29-1.059,1.342,1.342,0,0,0-1.055-.338,1.413,1.413,0,0,0-1.292.686V69H50.805V59.49Zm11.452,7.4A1.317,1.317,0,0,0,66,66.552a1.241,1.241,0,0,0,.334-.945h2.777a3.288,3.288,0,0,1-1.121,2.566,4.168,4.168,0,0,1-2.887,1,4.22,4.22,0,0,1-3.27-1.3,5.125,5.125,0,0,1-1.2-3.6v-.123a5.792,5.792,0,0,1,.532-2.544,3.872,3.872,0,0,1,1.534-1.7,4.573,4.573,0,0,1,2.373-.593,4.116,4.116,0,0,1,2.944,1.028,3.647,3.647,0,0,1,1.09,2.786H66.335A1.626,1.626,0,0,0,65.975,62a1.244,1.244,0,0,0-.967-.4q-1.151,0-1.345,1.468a10.357,10.357,0,0,0-.062,1.283,4.068,4.068,0,0,0,.343,1.986A1.187,1.187,0,0,0,65.035,66.891ZM73.49,69H70.519V59.49H73.49ZM70.343,57.038A1.322,1.322,0,0,1,70.8,56a1.943,1.943,0,0,1,2.373,0,1.405,1.405,0,0,1,0,2.074,1.943,1.943,0,0,1-2.373,0A1.322,1.322,0,0,1,70.343,57.038ZM80.67,69a3.344,3.344,0,0,1-.281-.853A2.754,2.754,0,0,1,78.1,69.176a3.374,3.374,0,0,1-2.285-.813,2.588,2.588,0,0,1-.94-2.043,2.66,2.66,0,0,1,1.143-2.338,5.821,5.821,0,0,1,3.322-.791h.914v-.5q0-1.316-1.134-1.316a.927.927,0,0,0-1.055,1.042H75.107a2.655,2.655,0,0,1,1.173-2.239,4.931,4.931,0,0,1,2.993-.86,4.323,4.323,0,0,1,2.874.888,3.086,3.086,0,0,1,1.081,2.435v4.21a4.311,4.311,0,0,0,.4,2V69Zm-1.854-1.934a1.652,1.652,0,0,0,.918-.237,1.487,1.487,0,0,0,.523-.536V64.772H79.4q-1.547,0-1.547,1.389a.848.848,0,0,0,.272.655A.986.986,0,0,0,78.816,67.066ZM89.574,63.8a13.431,13.431,0,0,1,.571-3.99,9.629,9.629,0,0,1,1.578-3.129,5.6,5.6,0,0,1,2.237-1.793l.563,1.459a5.73,5.73,0,0,0-1.9,2.826,13.782,13.782,0,0,0-.681,4.5v.387a14.051,14.051,0,0,0,.672,4.588A5.706,5.706,0,0,0,94.522,71.5l-.562,1.459a5.547,5.547,0,0,1-2.237-1.8,9.484,9.484,0,0,1-1.578-3.116,13.5,13.5,0,0,1-.571-3.85Zm9.352.861V69H95.84V56.2h5.106a5.948,5.948,0,0,1,2.6.541,4.074,4.074,0,0,1,1.749,1.538,4.2,4.2,0,0,1,.62,2.263,3.7,3.7,0,0,1-1.34,2.993,5.561,5.561,0,0,1-3.678,1.121Zm0-2.382h2.021a1.906,1.906,0,0,0,1.367-.448,1.665,1.665,0,0,0,.47-1.266,2.059,2.059,0,0,0-.483-1.433,1.712,1.712,0,0,0-1.318-.545H98.925ZM107.556,69V56.2h4.122a6.064,6.064,0,0,1,3.05.769,5.406,5.406,0,0,1,2.114,2.171,6.554,6.554,0,0,1,.769,3.142v.589a6.592,6.592,0,0,1-.743,3.151,5.429,5.429,0,0,1-2.092,2.18,5.93,5.93,0,0,1-3.01.8Zm3.085-10.415v8.042h1.072a2.4,2.4,0,0,0,2.039-.945,4.63,4.63,0,0,0,.712-2.808V62.32a4.592,4.592,0,0,0-.712-2.795,2.442,2.442,0,0,0-2.074-.94ZM129.23,56.2v8.376a4.814,4.814,0,0,1-.606,2.465,3.929,3.929,0,0,1-1.74,1.586,6.131,6.131,0,0,1-2.681.545,5.3,5.3,0,0,1-3.683-1.213,4.326,4.326,0,0,1-1.371-3.322V56.2h3.1v8.5q.053,2.1,1.951,2.1a1.889,1.889,0,0,0,1.45-.527,2.465,2.465,0,0,0,.492-1.714V56.2ZM13.012,89.315a5.735,5.735,0,0,1-1,3.538,3.2,3.2,0,0,1-2.694,1.323,2.742,2.742,0,0,1-2.153-.958v4.438H4.206V84.49H6.974l.088.879A2.742,2.742,0,0,1,9.3,84.314a3.224,3.224,0,0,1,2.733,1.3,5.805,5.805,0,0,1,.976,3.564Zm-2.962-.185q0-2.531-1.477-2.531a1.394,1.394,0,0,0-1.406.756V91.1a1.439,1.439,0,0,0,1.424.791q1.415,0,1.459-2.443Zm3.894.026a5.613,5.613,0,0,1,.554-2.536,3.96,3.96,0,0,1,1.591-1.709,4.791,4.791,0,0,1,2.435-.6,4.373,4.373,0,0,1,3.366,1.323,5.076,5.076,0,0,1,1.23,3.6v.105a4.925,4.925,0,0,1-1.235,3.529,4.384,4.384,0,0,1-3.344,1.305,4.434,4.434,0,0,1-3.261-1.217,4.761,4.761,0,0,1-1.327-3.3Zm2.962.185a3.538,3.538,0,0,0,.413,1.934,1.376,1.376,0,0,0,1.222.615q1.582,0,1.617-2.435v-.3q0-2.558-1.635-2.558-1.485,0-1.608,2.206Zm13.271-2.171L29.2,87.1a1.752,1.752,0,0,0-1.793.879V94H24.447V84.49h2.777l.1,1.222a2.294,2.294,0,0,1,2.083-1.4,2.888,2.888,0,0,1,.826.105Zm10.529,4.157a.684.684,0,0,0-.4-.606,6.016,6.016,0,0,0-1.5-.475A6.853,6.853,0,0,1,36.98,89.6a3.062,3.062,0,0,1-1.1-.971,2.319,2.319,0,0,1-.378-1.31,2.628,2.628,0,0,1,1.081-2.158,4.453,4.453,0,0,1,2.83-.848,4.934,4.934,0,0,1,3.023.853,2.666,2.666,0,0,1,1.143,2.241H40.61q0-1.143-1.2-1.143a1.194,1.194,0,0,0-.782.259.8.8,0,0,0-.316.646.737.737,0,0,0,.387.642,3.654,3.654,0,0,0,1.235.4,10.671,10.671,0,0,1,1.49.378,2.706,2.706,0,0,1,2.145,2.646,2.491,2.491,0,0,1-1.156,2.118,5.068,5.068,0,0,1-2.993.817,5.172,5.172,0,0,1-2.18-.439,3.645,3.645,0,0,1-1.494-1.2A2.707,2.707,0,0,1,35.2,90.95h2.769a1.145,1.145,0,0,0,.439.962,1.808,1.808,0,0,0,1.081.3,1.422,1.422,0,0,0,.91-.246A.787.787,0,0,0,40.707,91.328Zm9.905,1.644a3.054,3.054,0,0,1-2.54,1.2,3,3,0,0,1-2.369-.91,3.826,3.826,0,0,1-.8-2.615V84.49h2.962v6.179a1.065,1.065,0,0,0,1.187,1.222,1.548,1.548,0,0,0,1.45-.729V84.49h2.979V94H50.7Zm9.466-1.644a.684.684,0,0,0-.4-.606,6.016,6.016,0,0,0-1.5-.475,6.853,6.853,0,0,1-1.828-.646,3.062,3.062,0,0,1-1.1-.971,2.319,2.319,0,0,1-.378-1.31,2.628,2.628,0,0,1,1.081-2.158,4.453,4.453,0,0,1,2.83-.848,4.934,4.934,0,0,1,3.023.853,2.666,2.666,0,0,1,1.143,2.241H59.981q0-1.143-1.2-1.143a1.194,1.194,0,0,0-.782.259.8.8,0,0,0-.316.646.737.737,0,0,0,.387.642,3.654,3.654,0,0,0,1.235.4,10.671,10.671,0,0,1,1.49.378,2.706,2.706,0,0,1,2.145,2.646,2.491,2.491,0,0,1-1.156,2.118,5.068,5.068,0,0,1-2.993.817,5.172,5.172,0,0,1-2.18-.439,3.645,3.645,0,0,1-1.494-1.2,2.707,2.707,0,0,1-.536-1.591h2.769a1.145,1.145,0,0,0,.439.962,1.808,1.808,0,0,0,1.081.3,1.422,1.422,0,0,0,.91-.246A.787.787,0,0,0,60.078,91.328Zm13.7,0a.684.684,0,0,0-.4-.606,6.016,6.016,0,0,0-1.5-.475,6.853,6.853,0,0,1-1.828-.646,3.062,3.062,0,0,1-1.1-.971,2.319,2.319,0,0,1-.378-1.31,2.628,2.628,0,0,1,1.081-2.158,4.453,4.453,0,0,1,2.83-.848,4.934,4.934,0,0,1,3.023.853,2.666,2.666,0,0,1,1.143,2.241H73.683q0-1.143-1.2-1.143a1.194,1.194,0,0,0-.782.259.8.8,0,0,0-.316.646.737.737,0,0,0,.387.642,3.654,3.654,0,0,0,1.235.4,10.671,10.671,0,0,1,1.49.378,2.706,2.706,0,0,1,2.145,2.646,2.491,2.491,0,0,1-1.156,2.118,5.068,5.068,0,0,1-2.993.817,5.172,5.172,0,0,1-2.18-.439,3.645,3.645,0,0,1-1.494-1.2,2.707,2.707,0,0,1-.536-1.591h2.769a1.145,1.145,0,0,0,.439.962,1.808,1.808,0,0,0,1.081.3,1.422,1.422,0,0,0,.91-.246A.787.787,0,0,0,73.78,91.328ZM81.145,94H78.174V84.49h2.971ZM78,82.038A1.322,1.322,0,0,1,78.456,81a1.943,1.943,0,0,1,2.373,0,1.405,1.405,0,0,1,0,2.074,1.943,1.943,0,0,1-2.373,0A1.322,1.322,0,0,1,78,82.038Zm4.623,7.137a6.421,6.421,0,0,1,.475-2.549,3.821,3.821,0,0,1,1.362-1.709,3.591,3.591,0,0,1,2.065-.6,2.855,2.855,0,0,1,2.32,1l.105-.826h2.689V93.64a4.009,4.009,0,0,1-.584,2.184,3.75,3.75,0,0,1-1.692,1.424,6.219,6.219,0,0,1-2.566.5,5.365,5.365,0,0,1-2.026-.4,3.657,3.657,0,0,1-1.5-1.028l1.239-1.74a2.716,2.716,0,0,0,2.18.976,1.764,1.764,0,0,0,1.969-2.021v-.3a2.781,2.781,0,0,1-2.153.94,3.437,3.437,0,0,1-2.812-1.332,5.517,5.517,0,0,1-1.072-3.564Zm2.971.185a3.383,3.383,0,0,0,.439,1.85,1.387,1.387,0,0,0,1.23.681,1.573,1.573,0,0,0,1.4-.642v-4a1.534,1.534,0,0,0-1.38-.65,1.4,1.4,0,0,0-1.239.708A3.858,3.858,0,0,0,85.592,89.359ZM96.447,94H93.476V80.5h2.971Zm7.181,0a3.344,3.344,0,0,1-.281-.853,2.754,2.754,0,0,1-2.285,1.028,3.374,3.374,0,0,1-2.285-.813,2.588,2.588,0,0,1-.94-2.043,2.66,2.66,0,0,1,1.143-2.338,5.821,5.821,0,0,1,3.322-.791h.914v-.5q0-1.316-1.134-1.316a.927.927,0,0,0-1.055,1.042H98.064a2.655,2.655,0,0,1,1.173-2.239,4.931,4.931,0,0,1,2.993-.86,4.323,4.323,0,0,1,2.874.888,3.086,3.086,0,0,1,1.081,2.435v4.21a4.311,4.311,0,0,0,.4,2V94Zm-1.854-1.934a1.652,1.652,0,0,0,.918-.237,1.487,1.487,0,0,0,.523-.536V89.772h-.861q-1.547,0-1.547,1.389a.848.848,0,0,0,.272.655A.986.986,0,0,0,101.773,92.066Zm11.03-.738a.684.684,0,0,0-.4-.606,6.016,6.016,0,0,0-1.5-.475,6.853,6.853,0,0,1-1.828-.646,3.062,3.062,0,0,1-1.1-.971,2.319,2.319,0,0,1-.378-1.31,2.628,2.628,0,0,1,1.081-2.158,4.453,4.453,0,0,1,2.83-.848,4.934,4.934,0,0,1,3.023.853,2.666,2.666,0,0,1,1.143,2.241h-2.971q0-1.143-1.2-1.143a1.194,1.194,0,0,0-.782.259.8.8,0,0,0-.316.646.737.737,0,0,0,.387.642,3.654,3.654,0,0,0,1.235.4,10.671,10.671,0,0,1,1.49.378,2.706,2.706,0,0,1,2.145,2.646,2.491,2.491,0,0,1-1.156,2.118,5.068,5.068,0,0,1-2.993.817,5.172,5.172,0,0,1-2.18-.439,3.645,3.645,0,0,1-1.494-1.2,2.707,2.707,0,0,1-.536-1.591h2.769a1.145,1.145,0,0,0,.439.962,1.808,1.808,0,0,0,1.081.3,1.422,1.422,0,0,0,.91-.246A.787.787,0,0,0,112.8,91.328Zm13.324,2.848a4.889,4.889,0,0,1-3.542-1.305,4.507,4.507,0,0,1-1.354-3.4v-.246a5.84,5.84,0,0,1,.541-2.575,3.955,3.955,0,0,1,1.578-1.727,4.763,4.763,0,0,1,2.461-.611,4.117,4.117,0,0,1,3.164,1.244,4.887,4.887,0,0,1,1.16,3.467v1.151h-5.889a2.135,2.135,0,0,0,.694,1.257,2.066,2.066,0,0,0,1.389.457,2.662,2.662,0,0,0,2.2-.984l1.354,1.6a3.784,3.784,0,0,1-1.569,1.217A5.3,5.3,0,0,1,126.127,94.176Zm-.334-7.576q-1.3,0-1.547,1.723h2.988v-.229a1.467,1.467,0,0,0-.36-1.1A1.434,1.434,0,0,0,125.793,86.6Zm8.253-2.109.1,1.116a3.225,3.225,0,0,1,2.716-1.292,2.713,2.713,0,0,1,2.219.888,4.226,4.226,0,0,1,.76,2.672V94h-2.971V88a1.6,1.6,0,0,0-.29-1.059,1.342,1.342,0,0,0-1.055-.338,1.413,1.413,0,0,0-1.292.686V94h-2.962V84.49ZM48.076,119H45.105v-9.51h2.971ZM44.93,107.038A1.322,1.322,0,0,1,45.387,106a1.943,1.943,0,0,1,2.373,0,1.405,1.405,0,0,1,0,2.074,1.943,1.943,0,0,1-2.373,0A1.322,1.322,0,0,1,44.93,107.038Zm7.69,2.452.1,1.116a3.225,3.225,0,0,1,2.716-1.292,2.713,2.713,0,0,1,2.219.888,4.226,4.226,0,0,1,.76,2.672V119H55.441v-6a1.6,1.6,0,0,0-.29-1.059A1.342,1.342,0,0,0,54.1,111.6a1.413,1.413,0,0,0-1.292.686V119H49.843v-9.51Zm7.084,4.685a6.421,6.421,0,0,1,.475-2.549,3.821,3.821,0,0,1,1.362-1.709,3.591,3.591,0,0,1,2.065-.6,2.855,2.855,0,0,1,2.32,1l.105-.826h2.689v9.149a4.009,4.009,0,0,1-.584,2.184,3.75,3.75,0,0,1-1.692,1.424,6.219,6.219,0,0,1-2.566.5,5.365,5.365,0,0,1-2.026-.4,3.657,3.657,0,0,1-1.5-1.028l1.239-1.74a2.716,2.716,0,0,0,2.18.976,1.764,1.764,0,0,0,1.969-2.021v-.3a2.781,2.781,0,0,1-2.153.94,3.437,3.437,0,0,1-2.812-1.332A5.517,5.517,0,0,1,59.7,114.28Zm2.971.185a3.383,3.383,0,0,0,.439,1.85,1.387,1.387,0,0,0,1.23.681,1.573,1.573,0,0,0,1.4-.642v-4a1.534,1.534,0,0,0-1.38-.65,1.4,1.4,0,0,0-1.239.708A3.858,3.858,0,0,0,62.675,114.359ZM73.529,119H70.559V105.5h2.971Zm6.425.176a4.889,4.889,0,0,1-3.542-1.305,4.507,4.507,0,0,1-1.354-3.4v-.246a5.84,5.84,0,0,1,.541-2.575,3.955,3.955,0,0,1,1.578-1.727,4.763,4.763,0,0,1,2.461-.611,4.117,4.117,0,0,1,3.164,1.244,4.887,4.887,0,0,1,1.16,3.467v1.151H78.073a2.135,2.135,0,0,0,.694,1.257,2.066,2.066,0,0,0,1.389.457,2.662,2.662,0,0,0,2.2-.984l1.354,1.6a3.784,3.784,0,0,1-1.569,1.217A5.3,5.3,0,0,1,79.954,119.176ZM79.62,111.6q-1.3,0-1.547,1.723h2.988v-.229a1.467,1.467,0,0,0-.36-1.1A1.434,1.434,0,0,0,79.62,111.6Zm-.035-6.108h3.129l-2.443,2.76-2.417,0Zm10.547,10.837a.684.684,0,0,0-.4-.606,6.016,6.016,0,0,0-1.5-.475,6.853,6.853,0,0,1-1.828-.646,3.062,3.062,0,0,1-1.1-.971,2.319,2.319,0,0,1-.378-1.31,2.628,2.628,0,0,1,1.081-2.158,4.453,4.453,0,0,1,2.83-.848,4.934,4.934,0,0,1,3.023.853,2.666,2.666,0,0,1,1.143,2.241H90.035q0-1.143-1.2-1.143a1.194,1.194,0,0,0-.782.259.8.8,0,0,0-.316.646.737.737,0,0,0,.387.642,3.654,3.654,0,0,0,1.235.4,10.671,10.671,0,0,1,1.49.378,2.706,2.706,0,0,1,2.145,2.646,2.491,2.491,0,0,1-1.156,2.118,5.068,5.068,0,0,1-2.993.817,5.172,5.172,0,0,1-2.18-.439,3.645,3.645,0,0,1-1.494-1.2,2.707,2.707,0,0,1-.536-1.591H87.4a1.145,1.145,0,0,0,.439.962,1.808,1.808,0,0,0,1.081.3,1.422,1.422,0,0,0,.91-.246A.787.787,0,0,0,90.132,116.328Zm8.912-2.285a12.532,12.532,0,0,1-.606,3.92,10.008,10.008,0,0,1-1.674,3.186,5.574,5.574,0,0,1-2.307,1.806l-.562-1.459a5.787,5.787,0,0,0,1.89-2.812,13.577,13.577,0,0,0,.694-4.368v-.536a14.051,14.051,0,0,0-.672-4.588,5.706,5.706,0,0,0-1.912-2.848l.563-1.459a5.676,5.676,0,0,1,2.29,1.789,9.885,9.885,0,0,1,1.67,3.138,12.426,12.426,0,0,1,.628,3.845Z" transform="translate(730.5 6465.587)" fill="#12263f"/>
    <path id="Trazado_741385" data-name="Trazado 741385" d="M37.065,16.609H32.837L32.1,19H28.8L33.5,6.2h2.9L41.125,19H37.812Zm-3.489-2.382h2.751l-1.38-4.438ZM45.045,19H42.075V5.5h2.971Zm7.488-1.028a3.054,3.054,0,0,1-2.54,1.2,3,3,0,0,1-2.369-.91,3.826,3.826,0,0,1-.8-2.615V9.49h2.962v6.179a1.065,1.065,0,0,0,1.187,1.222,1.548,1.548,0,0,0,1.45-.729V9.49H55.4V19H52.622ZM59.82,9.49l.1,1.116a3.27,3.27,0,0,1,2.716-1.292,2.407,2.407,0,0,1,2.435,1.433,3.165,3.165,0,0,1,2.795-1.433q2.892,0,2.971,3.5V19H67.862V13a1.813,1.813,0,0,0-.246-1.063,1.048,1.048,0,0,0-.9-.334,1.4,1.4,0,0,0-1.31.782l.009.123V19H62.448V13.015a1.906,1.906,0,0,0-.237-1.081,1.045,1.045,0,0,0-.905-.334,1.42,1.42,0,0,0-1.3.782V19H57.042V9.49Zm21.533,4.834a5.8,5.8,0,0,1-.967,3.595,3.238,3.238,0,0,1-2.725,1.257,2.81,2.81,0,0,1-2.338-1.151L75.2,19H72.546V5.5h2.962v4.755a2.711,2.711,0,0,1,2.136-.94,3.239,3.239,0,0,1,2.742,1.274,5.826,5.826,0,0,1,.967,3.586Zm-2.971-.189a3.866,3.866,0,0,0-.365-1.952A1.229,1.229,0,0,0,76.9,11.6a1.418,1.418,0,0,0-1.389.763v3.773a1.426,1.426,0,0,0,1.406.755,1.258,1.258,0,0,0,1.327-1.018A7.309,7.309,0,0,0,78.382,14.135Zm10.028-1.964-.976-.07a1.752,1.752,0,0,0-1.793.879V19H82.68V9.49h2.777l.1,1.222a2.294,2.294,0,0,1,2.083-1.4,2.888,2.888,0,0,1,.826.105ZM94.572,19a3.344,3.344,0,0,1-.281-.853,2.754,2.754,0,0,1-2.285,1.028,3.374,3.374,0,0,1-2.285-.813,2.588,2.588,0,0,1-.94-2.043,2.66,2.66,0,0,1,1.143-2.338,5.821,5.821,0,0,1,3.322-.791h.914v-.5q0-1.316-1.134-1.316a.927.927,0,0,0-1.055,1.042H89.008a2.655,2.655,0,0,1,1.173-2.239,4.931,4.931,0,0,1,2.993-.86,4.323,4.323,0,0,1,2.874.888,3.086,3.086,0,0,1,1.081,2.435v4.21a4.311,4.311,0,0,0,.4,2V19Zm-1.854-1.934a1.652,1.652,0,0,0,.918-.237,1.487,1.487,0,0,0,.523-.536V14.772H93.3q-1.547,0-1.547,1.389a.848.848,0,0,0,.272.655A.986.986,0,0,0,92.717,17.066ZM98.4,14.175a5.809,5.809,0,0,1,.976-3.56,3.211,3.211,0,0,1,2.725-1.3,2.731,2.731,0,0,1,2.145,1V5.5h2.971V19h-2.663l-.149-1.02a2.8,2.8,0,0,1-2.32,1.2,3.205,3.205,0,0,1-2.689-1.3A5.993,5.993,0,0,1,98.4,14.175Zm2.962.185q0,2.531,1.477,2.531a1.458,1.458,0,0,0,1.406-.826V12.443a1.419,1.419,0,0,0-1.389-.844q-1.371,0-1.485,2.215Zm7.163-.2a5.613,5.613,0,0,1,.554-2.536,3.96,3.96,0,0,1,1.591-1.709,4.791,4.791,0,0,1,2.435-.6,4.373,4.373,0,0,1,3.366,1.323,5.076,5.076,0,0,1,1.23,3.6v.105a4.925,4.925,0,0,1-1.235,3.529,4.384,4.384,0,0,1-3.344,1.305,4.434,4.434,0,0,1-3.261-1.217,4.761,4.761,0,0,1-1.327-3.3Zm2.962.185a3.538,3.538,0,0,0,.413,1.934,1.376,1.376,0,0,0,1.222.615q1.582,0,1.617-2.435v-.3q0-2.558-1.635-2.558-1.485,0-1.608,2.206Z" transform="translate(957.5 6766.587)" fill="#12263f"/>
    <path id="Trazado_741386" data-name="Trazado 741386" d="M21.126,15.6a1.268,1.268,0,0,0-.479-1.055,5.954,5.954,0,0,0-1.683-.782A16.147,16.147,0,0,1,17,12.979q-2.487-1.222-2.487-3.357a3.011,3.011,0,0,1,.62-1.876A4.008,4.008,0,0,1,16.881,6.48a6.823,6.823,0,0,1,2.549-.453A5.969,5.969,0,0,1,21.9,6.52a3.917,3.917,0,0,1,1.7,1.4A3.661,3.661,0,0,1,24.211,10H21.135a1.547,1.547,0,0,0-.479-1.213,1.867,1.867,0,0,0-1.3-.431,2.106,2.106,0,0,0-1.305.365,1.074,1.074,0,0,0,.048,1.819,6.65,6.65,0,0,0,1.854.826,11.36,11.36,0,0,1,2.18.918,3.663,3.663,0,0,1,2.074,3.3,3.125,3.125,0,0,1-1.266,2.637,5.629,5.629,0,0,1-3.472.958,6.888,6.888,0,0,1-2.817-.558,4.247,4.247,0,0,1-1.9-1.529,3.985,3.985,0,0,1-.637-2.237h3.094a1.963,1.963,0,0,0,.532,1.516,2.513,2.513,0,0,0,1.727.488,1.985,1.985,0,0,0,1.208-.33A1.088,1.088,0,0,0,21.126,15.6Zm10.2,2.373a3.054,3.054,0,0,1-2.54,1.2,3,3,0,0,1-2.369-.91,3.826,3.826,0,0,1-.8-2.615V9.49H28.57v6.179a1.065,1.065,0,0,0,1.187,1.222,1.548,1.548,0,0,0,1.45-.729V9.49h2.979V19H31.409Zm13.315-3.647a5.8,5.8,0,0,1-.967,3.595,3.238,3.238,0,0,1-2.725,1.257,2.81,2.81,0,0,1-2.338-1.151L38.484,19H35.83V5.5h2.962v4.755a2.711,2.711,0,0,1,2.136-.94,3.239,3.239,0,0,1,2.742,1.274,5.826,5.826,0,0,1,.967,3.586Zm-2.971-.189a3.866,3.866,0,0,0-.365-1.952,1.229,1.229,0,0,0-1.121-.584,1.418,1.418,0,0,0-1.389.763v3.773a1.426,1.426,0,0,0,1.406.755,1.258,1.258,0,0,0,1.327-1.018A7.309,7.309,0,0,0,41.666,14.135Zm8.877,5.04A4.889,4.889,0,0,1,47,17.871a4.507,4.507,0,0,1-1.354-3.4v-.246a5.84,5.84,0,0,1,.541-2.575,3.955,3.955,0,0,1,1.578-1.727,4.763,4.763,0,0,1,2.461-.611,4.117,4.117,0,0,1,3.164,1.244,4.887,4.887,0,0,1,1.16,3.467v1.151H48.662a2.135,2.135,0,0,0,.694,1.257,2.066,2.066,0,0,0,1.389.457,2.662,2.662,0,0,0,2.2-.984l1.354,1.6a3.784,3.784,0,0,1-1.569,1.217A5.3,5.3,0,0,1,50.543,19.176ZM50.209,11.6q-1.3,0-1.547,1.723H51.65v-.229a1.467,1.467,0,0,0-.36-1.1A1.434,1.434,0,0,0,50.209,11.6Zm10.512,4.729a.684.684,0,0,0-.4-.606,6.016,6.016,0,0,0-1.5-.475,6.853,6.853,0,0,1-1.828-.646,3.062,3.062,0,0,1-1.1-.971,2.319,2.319,0,0,1-.378-1.31A2.628,2.628,0,0,1,56.6,10.163a4.453,4.453,0,0,1,2.83-.848,4.934,4.934,0,0,1,3.023.853,2.666,2.666,0,0,1,1.143,2.241H60.624q0-1.143-1.2-1.143a1.194,1.194,0,0,0-.782.259.8.8,0,0,0-.316.646.737.737,0,0,0,.387.642,3.654,3.654,0,0,0,1.235.4,10.671,10.671,0,0,1,1.49.378,2.706,2.706,0,0,1,2.145,2.646,2.491,2.491,0,0,1-1.156,2.118,5.068,5.068,0,0,1-2.993.817,5.172,5.172,0,0,1-2.18-.439,3.645,3.645,0,0,1-1.494-1.2,2.707,2.707,0,0,1-.536-1.591h2.769a1.145,1.145,0,0,0,.439.962,1.808,1.808,0,0,0,1.081.3,1.422,1.422,0,0,0,.91-.246A.787.787,0,0,0,60.721,16.328Zm7.69-9.2V9.49h1.564v2.057H68.411V15.9a1.111,1.111,0,0,0,.193.747,1.037,1.037,0,0,0,.765.211,4.345,4.345,0,0,0,.738-.053v2.118a5.466,5.466,0,0,1-1.67.255,3.1,3.1,0,0,1-2.259-.721,2.954,2.954,0,0,1-.729-2.188v-4.72H64.236V9.49h1.213V7.126ZM76.5,19a3.344,3.344,0,0,1-.281-.853,2.754,2.754,0,0,1-2.285,1.028,3.374,3.374,0,0,1-2.285-.813,2.588,2.588,0,0,1-.94-2.043,2.66,2.66,0,0,1,1.143-2.338,5.821,5.821,0,0,1,3.322-.791h.914v-.5q0-1.316-1.134-1.316A.927.927,0,0,0,73.9,12.413H70.934a2.655,2.655,0,0,1,1.173-2.239,4.931,4.931,0,0,1,2.993-.86,4.323,4.323,0,0,1,2.874.888,3.086,3.086,0,0,1,1.081,2.435v4.21a4.311,4.311,0,0,0,.4,2V19Zm-1.854-1.934a1.652,1.652,0,0,0,.918-.237,1.487,1.487,0,0,0,.523-.536V14.772h-.861q-1.547,0-1.547,1.389a.848.848,0,0,0,.272.655A.986.986,0,0,0,74.643,17.066Zm10.072-.176a1.317,1.317,0,0,0,.967-.338,1.241,1.241,0,0,0,.334-.945h2.777a3.288,3.288,0,0,1-1.121,2.566,4.168,4.168,0,0,1-2.887,1,4.22,4.22,0,0,1-3.27-1.3,5.125,5.125,0,0,1-1.2-3.6v-.123a5.792,5.792,0,0,1,.532-2.544,3.872,3.872,0,0,1,1.534-1.7,4.573,4.573,0,0,1,2.373-.593A4.116,4.116,0,0,1,87.7,10.343a3.647,3.647,0,0,1,1.09,2.786H86.016A1.626,1.626,0,0,0,85.655,12a1.244,1.244,0,0,0-.967-.4q-1.151,0-1.345,1.468a10.357,10.357,0,0,0-.062,1.283,4.068,4.068,0,0,0,.343,1.986A1.187,1.187,0,0,0,84.715,16.891ZM93.17,19H90.2V9.49H93.17ZM90.023,7.038A1.322,1.322,0,0,1,90.48,6a1.943,1.943,0,0,1,2.373,0,1.322,1.322,0,0,1,.457,1.037,1.322,1.322,0,0,1-.457,1.037,1.943,1.943,0,0,1-2.373,0A1.322,1.322,0,0,1,90.023,7.038Zm4.6,7.119a5.613,5.613,0,0,1,.554-2.536,3.96,3.96,0,0,1,1.591-1.709,4.791,4.791,0,0,1,2.435-.6,4.373,4.373,0,0,1,3.366,1.323,5.076,5.076,0,0,1,1.23,3.6v.105a4.925,4.925,0,0,1-1.235,3.529,4.384,4.384,0,0,1-3.344,1.305,4.434,4.434,0,0,1-3.261-1.217,4.761,4.761,0,0,1-1.327-3.3Zm2.962.185A3.538,3.538,0,0,0,98,16.275a1.376,1.376,0,0,0,1.222.615q1.582,0,1.617-2.435v-.3q0-2.558-1.635-2.558-1.485,0-1.608,2.206ZM107.821,9.49l.1,1.116a3.225,3.225,0,0,1,2.716-1.292,2.713,2.713,0,0,1,2.219.888,4.226,4.226,0,0,1,.76,2.672V19h-2.971V13a1.6,1.6,0,0,0-.29-1.059A1.342,1.342,0,0,0,109.3,11.6a1.413,1.413,0,0,0-1.292.686V19h-2.962V9.49Zm12.032,9.686a4.889,4.889,0,0,1-3.542-1.305,4.507,4.507,0,0,1-1.354-3.4v-.246a5.84,5.84,0,0,1,.541-2.575,3.955,3.955,0,0,1,1.578-1.727,4.763,4.763,0,0,1,2.461-.611,4.117,4.117,0,0,1,3.164,1.244,4.887,4.887,0,0,1,1.16,3.467v1.151h-5.889a2.135,2.135,0,0,0,.694,1.257,2.066,2.066,0,0,0,1.389.457,2.662,2.662,0,0,0,2.2-.984l1.354,1.6a3.784,3.784,0,0,1-1.569,1.217A5.3,5.3,0,0,1,119.854,19.176ZM119.52,11.6q-1.3,0-1.547,1.723h2.988v-.229a1.467,1.467,0,0,0-.36-1.1A1.434,1.434,0,0,0,119.52,11.6Zm10.512,4.729a.684.684,0,0,0-.4-.606,6.016,6.016,0,0,0-1.5-.475A6.853,6.853,0,0,1,126.3,14.6a3.062,3.062,0,0,1-1.1-.971,2.319,2.319,0,0,1-.378-1.31,2.628,2.628,0,0,1,1.081-2.158,4.453,4.453,0,0,1,2.83-.848,4.934,4.934,0,0,1,3.023.853,2.666,2.666,0,0,1,1.143,2.241h-2.971q0-1.143-1.2-1.143a1.194,1.194,0,0,0-.782.259.8.8,0,0,0-.316.646.737.737,0,0,0,.387.642,3.654,3.654,0,0,0,1.235.4,10.671,10.671,0,0,1,1.49.378,2.706,2.706,0,0,1,2.145,2.646,2.491,2.491,0,0,1-1.156,2.118,5.068,5.068,0,0,1-2.993.817,5.172,5.172,0,0,1-2.18-.439,3.645,3.645,0,0,1-1.494-1.2,2.707,2.707,0,0,1-.536-1.591H127.3a1.145,1.145,0,0,0,.439.962,1.808,1.808,0,0,0,1.081.3,1.422,1.422,0,0,0,.91-.246A.787.787,0,0,0,130.031,16.328Z" transform="translate(897.5 6924.587)" fill="#12263f"/>
    <g id="Grupo_930062" data-name="Grupo 930062" transform="translate(-0.5 -1009.412)">
      <g id="Grupo_929446" data-name="Grupo 929446" transform="translate(4.858 -63)">
        <path id="Trazado_736453" data-name="Trazado 736453" d="M257.455,262.461A128.728,128.728,0,1,1,128.728,133.734,128.727,128.727,0,0,1,257.455,262.461" transform="translate(666.142 7587.127)" fill="#f3f9ff"/>
        <circle id="Elipse_7684" data-name="Elipse 7684" cx="112.179" cy="112.179" r="112.179" transform="matrix(1, -0.003, 0.003, 1, 682.405, 7737.697)" fill="none" stroke="#12263f" stroke-miterlimit="10" stroke-width="1.513"/>
      </g>
      <g id="Grupo_930061" data-name="Grupo 930061" transform="translate(760 7669.737)">
        <path id="Trazado_741123" data-name="Trazado 741123" d="M0,160.406l6.645,3.651V57.816L0,54.165Z" transform="translate(0 -16.518)" fill="#ba6a1a"/>
        <path id="Trazado_741124" data-name="Trazado 741124" d="M9.56,42.9V149.141l65.205-37.647V5.253Z" transform="translate(-2.915 -1.602)" fill="#ce7d26"/>
        <path id="Trazado_741125" data-name="Trazado 741125" d="M65.205,0,0,37.647,6.645,41.3,71.85,3.651Z" transform="translate(0 0)" fill="#ea9139"/>
        <g id="Grupo_930060" data-name="Grupo 930060">
          <g id="Grupo_930059" data-name="Grupo 930059" clip-path="url(#clip-path-8)">
            <path id="Trazado_741126" data-name="Trazado 741126" d="M87.36,110.324l-8.185,4.726c-.538.31-.974-.019-.974-.737v-2.327a2.334,2.334,0,0,1,.974-1.861L87.36,105.4c.538-.311.974.019.974.736v2.327a2.333,2.333,0,0,1-.974,1.861" transform="translate(-23.848 -32.108)" fill="#ba6a1a"/>
            <path id="Trazado_741127" data-name="Trazado 741127" d="M92.684,116.463,84.5,121.189c-.538.311-.974-.019-.974-.737v-2.327a2.334,2.334,0,0,1,.974-1.861l8.185-4.726c.538-.311.974.019.974.736V114.6a2.333,2.333,0,0,1-.974,1.861" transform="translate(-25.472 -33.98)" fill="#ba6a1a"/>
            <path id="Trazado_741128" data-name="Trazado 741128" d="M46.854,47.421l-8.185,4.726c-.538.311-.974-.019-.974-.737V49.084a2.334,2.334,0,0,1,.974-1.861L46.854,42.5c.538-.311.974.019.974.736V45.56a2.333,2.333,0,0,1-.974,1.861" transform="translate(-11.495 -12.924)" fill="#ba6a1a"/>
            <path id="Trazado_741129" data-name="Trazado 741129" d="M52.177,53.559l-8.185,4.726c-.538.311-.974-.019-.974-.737V55.222a2.334,2.334,0,0,1,.974-1.861l8.185-4.726c.538-.311.974.019.974.736V51.7a2.333,2.333,0,0,1-.974,1.861" transform="translate(-13.119 -14.796)" fill="#ba6a1a"/>
            <path id="Trazado_741130" data-name="Trazado 741130" d="M81.783,104.421,73.6,109.147c-.538.31-.974-.019-.974-.737v-2.327a2.334,2.334,0,0,1,.974-1.861L81.783,99.5c.538-.311.974.019.974.736v2.327a2.333,2.333,0,0,1-.974,1.861" transform="translate(-22.148 -30.307)" fill="#ba6a1a"/>
            <path id="Trazado_741131" data-name="Trazado 741131" d="M81.72,86.174,73.534,90.9c-.538.311-.974-.019-.974-.737V87.837a2.331,2.331,0,0,1,.974-1.861L81.72,81.25c.538-.311.974.019.974.736v2.327a2.333,2.333,0,0,1-.974,1.861" transform="translate(-22.128 -24.743)" fill="#ba6a1a"/>
            <path id="Trazado_741132" data-name="Trazado 741132" d="M87.044,92.312l-8.185,4.726c-.538.311-.974-.019-.974-.737V93.975a2.334,2.334,0,0,1,.974-1.861l8.185-4.726c.538-.311.974.019.974.736v2.327a2.333,2.333,0,0,1-.974,1.861" transform="translate(-23.752 -26.615)" fill="#ba6a1a"/>
            <path id="Trazado_741133" data-name="Trazado 741133" d="M87.423,128.571,79.237,133.3c-.538.31-.974-.019-.974-.737v-2.327a2.334,2.334,0,0,1,.974-1.861l8.185-4.726c.538-.311.974.019.974.736v2.327a2.333,2.333,0,0,1-.974,1.861" transform="translate(-23.868 -37.672)" fill="#ba6a1a"/>
            <path id="Trazado_741134" data-name="Trazado 741134" d="M67.435,166.8l-8.185,4.726c-.538.311-.974-.019-.974-.737v-2.327a2.334,2.334,0,0,1,.974-1.861l8.185-4.726c.538-.311.974.019.974.736v2.327a2.333,2.333,0,0,1-.974,1.861" transform="translate(-17.772 -49.33)" fill="#ba6a1a"/>
            <path id="Trazado_741135" data-name="Trazado 741135" d="M79.678,141.63l-8.185,4.726c-.538.311-.974-.019-.974-.737v-2.327a2.334,2.334,0,0,1,.974-1.861l8.185-4.726c.538-.311.974.019.974.736v2.327a2.333,2.333,0,0,1-.974,1.861" transform="translate(-21.506 -41.655)" fill="#ba6a1a"/>
            <path id="Trazado_741136" data-name="Trazado 741136" d="M71.768,137.645l-8.185,4.726c-.538.311-.974-.019-.974-.737v-2.327a2.331,2.331,0,0,1,.974-1.861l8.185-4.726c.538-.311.974.019.974.736v2.327a2.333,2.333,0,0,1-.974,1.861" transform="translate(-19.093 -40.44)" fill="#ba6a1a"/>
            <path id="Trazado_741137" data-name="Trazado 741137" d="M87.423,146.032l-8.185,4.726c-.538.311-.974-.019-.974-.737v-2.327a2.334,2.334,0,0,1,.974-1.861l8.185-4.726c.538-.311.974.019.974.736v2.327a2.333,2.333,0,0,1-.974,1.861" transform="translate(-23.868 -42.997)" fill="#ba6a1a"/>
            <path id="Trazado_741138" data-name="Trazado 741138" d="M94.991,150.433l-8.185,4.726c-.538.311-.974-.019-.974-.737V152.1a2.334,2.334,0,0,1,.974-1.861l8.185-4.726c.538-.311.974.019.974.736v2.327a2.334,2.334,0,0,1-.974,1.861" transform="translate(-26.175 -44.339)" fill="#ba6a1a"/>
            <path id="Trazado_741139" data-name="Trazado 741139" d="M71.768,155.1l-8.185,4.726c-.538.311-.974-.019-.974-.737v-2.327a2.334,2.334,0,0,1,.974-1.861l8.185-4.726c.538-.311.974.019.974.736v2.327a2.333,2.333,0,0,1-.974,1.861" transform="translate(-19.093 -45.764)" fill="#ba6a1a"/>
            <path id="Trazado_741140" data-name="Trazado 741140" d="M25.583,192.971,17.4,197.7c-.538.31-.974-.019-.974-.737v-2.327a2.334,2.334,0,0,1,.974-1.861l8.185-4.726c.538-.311.974.019.974.736v2.327a2.333,2.333,0,0,1-.974,1.861" transform="translate(-5.008 -57.312)" fill="#ba6a1a"/>
            <path id="Trazado_741141" data-name="Trazado 741141" d="M31.142,180.358l-8.185,4.726c-.538.31-.974-.019-.974-.737v-2.327a2.334,2.334,0,0,1,.974-1.861l8.185-4.726c.538-.311.974.019.974.736V178.5a2.333,2.333,0,0,1-.974,1.861" transform="translate(-6.704 -53.466)" fill="#ba6a1a"/>
            <path id="Trazado_741142" data-name="Trazado 741142" d="M25.583,173.294,17.4,178.02c-.538.31-.974-.019-.974-.737v-2.327A2.334,2.334,0,0,1,17.4,173.1l8.185-4.726c.538-.311.974.019.974.736v2.327a2.333,2.333,0,0,1-.974,1.861" transform="translate(-5.008 -51.311)" fill="#ba6a1a"/>
            <path id="Trazado_741143" data-name="Trazado 741143" d="M31.142,160.682l-8.185,4.726c-.538.311-.974-.019-.974-.737v-2.327a2.334,2.334,0,0,1,.974-1.861l8.185-4.726c.538-.311.974.019.974.736v2.327a2.333,2.333,0,0,1-.974,1.861" transform="translate(-6.704 -47.465)" fill="#ba6a1a"/>
            <path id="Trazado_741144" data-name="Trazado 741144" d="M86.968,43.9l-8.185,4.726c-.538.31-.974-.019-.974-.737V45.562a2.334,2.334,0,0,1,.974-1.861l8.185-4.726c.538-.311.974.019.974.736v2.327a2.333,2.333,0,0,1-.974,1.861" transform="translate(-23.729 -11.85)" fill="#ba6a1a"/>
            <path id="Trazado_741145" data-name="Trazado 741145" d="M92.528,31.287l-8.185,4.726c-.538.31-.974-.019-.974-.737V32.95a2.334,2.334,0,0,1,.974-1.861l8.185-4.726c.538-.311.974.019.974.736v2.327a2.333,2.333,0,0,1-.974,1.861" transform="translate(-25.424 -8.004)" fill="#ba6a1a"/>
            <path id="Trazado_741146" data-name="Trazado 741146" d="M46.917,65.668l-8.185,4.726c-.538.31-.974-.019-.974-.737V67.331a2.334,2.334,0,0,1,.974-1.861l8.185-4.726c.538-.311.974.019.974.736v2.327a2.333,2.333,0,0,1-.974,1.861" transform="translate(-11.515 -18.489)" fill="#ba6a1a"/>
            <path id="Trazado_741147" data-name="Trazado 741147" d="M30.107,75.329l-8.185,4.726c-.538.311-.974-.019-.974-.737V76.992a2.334,2.334,0,0,1,.974-1.861L30.107,70.4c.538-.311.974.019.974.736v2.327a2.333,2.333,0,0,1-.974,1.861" transform="translate(-6.388 -21.435)" fill="#ba6a1a"/>
            <path id="Trazado_741148" data-name="Trazado 741148" d="M41.518,118.432l19.726-11.389V72.3L41.518,83.685Z" transform="translate(-12.661 -22.048)" fill="#a3a3a3"/>
            <path id="Trazado_741149" data-name="Trazado 741149" d="M42.7,117.668,60.73,107.179V74.545L42.7,85.034Z" transform="translate(-13.021 -22.734)" fill="#515151"/>
            <path id="Trazado_741150" data-name="Trazado 741150" d="M59.716,78.153l.081,25.278,6.123,3.748V74.545Z" transform="translate(-18.211 -22.734)" fill="#8e8e8e"/>
            <path id="Trazado_741151" data-name="Trazado 741151" d="M38.4,121.543V86.8l-7.114-4.3v34.747Z" transform="translate(-9.54 -25.159)" fill="#8e8e8e"/>
            <path id="Trazado_741152" data-name="Trazado 741152" d="M58.122,70.411l-7.114-4.3L31.281,77.5,38.4,81.8Z" transform="translate(-9.54 -20.162)" fill="#bcbcbc"/>
            <path id="Trazado_741153" data-name="Trazado 741153" d="M60.73,119.853l-6.123-3.748L42.7,122.982v7.36Z" transform="translate(-13.021 -35.408)" fill="#bcbcbc"/>
            <path id="Trazado_741154" data-name="Trazado 741154" d="M45.38,120A67.792,67.792,0,0,1,43.6,109.955l-.4.042A68.312,68.312,0,0,0,45,120.108a2.64,2.64,0,0,1-.19,2.191,3.619,3.619,0,0,1-2.11,1.388v.414a4.053,4.053,0,0,0,2.448-1.589A3.017,3.017,0,0,0,45.38,120" transform="translate(-13.021 -33.532)" fill="#eaeaea"/>
            <path id="Trazado_741155" data-name="Trazado 741155" d="M47.817,106.807l-.4.013c0,.067.216,6.733.216,9.879,0,3.023-2.522,4.138-4.937,4.183v.4c2.608-.046,5.336-1.266,5.336-4.582,0-3.151-.214-9.824-.216-9.891" transform="translate(-13.021 -32.572)" fill="#eaeaea"/>
            <path id="Trazado_741156" data-name="Trazado 741156" d="M51.072,112.859a14.68,14.68,0,0,1-.528-2.513,36.787,36.787,0,0,1,.3-6.2l-.4-.053a37.344,37.344,0,0,0-.306,6.282,14.8,14.8,0,0,0,.541,2.584c.437,1.617.815,3.014-.036,3.667s-1.772.042-2.823-.677a9.134,9.134,0,0,0-1.666-.972,3.652,3.652,0,0,0-3.466.819v.523c.142-.131,1.777-1.592,3.316-.973a8.886,8.886,0,0,1,1.591.933,4.477,4.477,0,0,0,2.267,1.029,1.639,1.639,0,0,0,1.024-.366c1.063-.815.634-2.4.178-4.087" transform="translate(-13.021 -31.746)" fill="#eaeaea"/>
            <path id="Trazado_741157" data-name="Trazado 741157" d="M54.156,109.705c.615-2,.472-7.713.466-7.956l-.4.01c0,.058.148,5.893-.448,7.829a9.239,9.239,0,0,0,.274,5.73.675.675,0,0,1-.02.542c-.27.519-1.328.842-2.551,1.217a15.284,15.284,0,0,0-3.551,1.426,12.057,12.057,0,0,0-2.809,2.77c-.869,1.069-1.626,1.991-2.419,2.124v.4c.968-.12,1.788-1.116,2.729-2.274a11.725,11.725,0,0,1,2.709-2.682,14.964,14.964,0,0,1,3.458-1.384c1.364-.418,2.442-.746,2.788-1.415a1.068,1.068,0,0,0,.046-.85,8.873,8.873,0,0,1-.271-5.489" transform="translate(-13.021 -31.03)" fill="#eaeaea"/>
            <path id="Trazado_741158" data-name="Trazado 741158" d="M59.155,78.189l-1.615-.976L42.7,85.848v1.841Z" transform="translate(-13.021 -23.547)" fill="#eaeaea"/>
            <path id="Trazado_741159" data-name="Trazado 741159" d="M42.7,88.116v5.229l16.459-9.5V78.613Z" transform="translate(-13.021 -23.974)" fill="#fff"/>
            <path id="Trazado_741160" data-name="Trazado 741160" d="M62.793,84.024v1.848l1.927-1.113V82.911Z" transform="translate(-19.15 -25.285)" fill="#feca2e"/>
            <path id="Trazado_741161" data-name="Trazado 741161" d="M58.135,86.712V88.56l1.927-1.113V85.6Z" transform="translate(-17.729 -26.105)" fill="#feca2e"/>
            <path id="Trazado_741162" data-name="Trazado 741162" d="M53.58,89.43v1.848l1.927-1.113V88.317Z" transform="translate(-16.34 -26.934)" fill="#feca2e"/>
            <path id="Trazado_741163" data-name="Trazado 741163" d="M48.922,92.119v1.848l1.927-1.113V91.006Z" transform="translate(-14.919 -27.754)" fill="#feca2e"/>
            <path id="Trazado_741164" data-name="Trazado 741164" d="M43.933,94.943V96.79l1.927-1.112V93.83Z" transform="translate(-13.398 -28.615)" fill="#fcd308"/>
            <path id="Trazado_741165" data-name="Trazado 741165" d="M61.771,81.208v5.229l.255-.147V81.061Z" transform="translate(-18.838 -24.721)" fill="#ccc"/>
            <path id="Trazado_741166" data-name="Trazado 741166" d="M57.112,83.9v5.229l.255-.147V83.749Z" transform="translate(-17.417 -25.541)" fill="#ccc"/>
            <path id="Trazado_741167" data-name="Trazado 741167" d="M52.454,86.585v5.229l.255-.147V86.438Z" transform="translate(-15.997 -26.361)" fill="#ccc"/>
            <path id="Trazado_741168" data-name="Trazado 741168" d="M47.8,89.273V94.5l.255-.147V89.126Z" transform="translate(-14.576 -27.18)" fill="#ccc"/>
            <path id="Trazado_741169" data-name="Trazado 741169" d="M42.7,89.863v.585l16.459-9.5V80.36Z" transform="translate(-13.021 -24.507)" fill="#3a3a3a"/>
            <path id="Trazado_741170" data-name="Trazado 741170" d="M57.32,91.782l-2.872-1.735L42.7,96.831v3.39Z" transform="translate(-13.021 -27.461)" fill="#666"/>
            <path id="Trazado_741171" data-name="Trazado 741171" d="M55.954,90.957l-1.506-.91L42.7,96.831v1.783Z" transform="translate(-13.021 -27.461)" fill="#515151"/>
            <path id="Trazado_741172" data-name="Trazado 741172" d="M42.7,100.982v5.228l14.623-8.443V92.538Z" transform="translate(-13.021 -28.221)" fill="#7c7c7c"/>
            <path id="Trazado_741173" data-name="Trazado 741173" d="M59.895,95.214v1.941L62.062,95.9V93.962Z" transform="translate(-18.266 -28.655)" fill="#eaeaea"/>
            <path id="Trazado_741174" data-name="Trazado 741174" d="M59.895,98.763v.4l2.168-1.251v-.4Z" transform="translate(-18.266 -29.738)" fill="#3a3a3a"/>
            <path id="Trazado_741175" data-name="Trazado 741175" d="M59.895,99.871v.4l2.168-1.252v-.4Z" transform="translate(-18.266 -30.075)" fill="#3a3a3a"/>
            <path id="Trazado_741176" data-name="Trazado 741176" d="M54.36,98.352v1.941l2.168-1.251V97.1Z" transform="translate(-16.578 -29.612)" fill="#eaeaea"/>
            <path id="Trazado_741177" data-name="Trazado 741177" d="M54.36,101.9v.4l2.168-1.251v-.4Z" transform="translate(-16.578 -30.695)" fill="#3a3a3a"/>
            <path id="Trazado_741178" data-name="Trazado 741178" d="M54.36,103.009v.4l2.168-1.252v-.4Z" transform="translate(-16.578 -31.032)" fill="#3a3a3a"/>
            <path id="Trazado_741179" data-name="Trazado 741179" d="M48.748,101.754v1.941l2.168-1.251V100.5Z" transform="translate(-14.867 -30.65)" fill="#eaeaea"/>
            <path id="Trazado_741180" data-name="Trazado 741180" d="M48.748,105.3v.4l2.168-1.252v-.4Z" transform="translate(-14.867 -31.732)" fill="#3a3a3a"/>
            <path id="Trazado_741181" data-name="Trazado 741181" d="M48.748,106.41v.4l2.168-1.251v-.4Z" transform="translate(-14.867 -32.07)" fill="#3a3a3a"/>
            <path id="Trazado_741182" data-name="Trazado 741182" d="M43.283,104.8v1.941l2.168-1.251v-1.941Z" transform="translate(-13.2 -31.58)" fill="#eaeaea"/>
            <path id="Trazado_741183" data-name="Trazado 741183" d="M43.283,108.353v.4l2.168-1.252v-.4Z" transform="translate(-13.2 -32.662)" fill="#3a3a3a"/>
            <path id="Trazado_741184" data-name="Trazado 741184" d="M43.283,109.46v.4l2.168-1.251v-.4Z" transform="translate(-13.2 -33)" fill="#3a3a3a"/>
            <path id="Trazado_741185" data-name="Trazado 741185" d="M58.4,95.545v5.229l.306-.177V95.368Z" transform="translate(-17.809 -29.084)" fill="#3a3a3a"/>
            <path id="Trazado_741186" data-name="Trazado 741186" d="M52.82,98.725v5.229l.306-.177V98.548Z" transform="translate(-16.108 -30.054)" fill="#3a3a3a"/>
            <path id="Trazado_741187" data-name="Trazado 741187" d="M47.2,102.026v5.229l.306-.177V101.85Z" transform="translate(-14.395 -31.061)" fill="#3a3a3a"/>
            <path id="Trazado_741188" data-name="Trazado 741188" d="M23.946,96.72a1.5,1.5,0,0,1-.707-.151c-1.882-.991-1.97-4.9-2.08-9.838-.042-1.883-.085-3.83-.233-5.792A186.956,186.956,0,0,1,20.9,61.808c.14-4.177.261-7.785.091-9.941-.405-5.172.917-7.084,7.449-10.772,2.529-1.428,4.31-2.592,6.373-3.94,3.082-2.014,6.576-4.3,13.725-8.215,11.78-6.455,29.334-16.926,29.51-17.032a.2.2,0,1,1,.2.343c-.176.1-17.737,10.58-29.523,17.039-7.136,3.91-10.622,6.189-13.7,8.2-2.068,1.352-3.855,2.52-6.4,3.953-6.423,3.625-7.642,5.373-7.248,10.393.171,2.179.05,5.8-.09,9.986a186.689,186.689,0,0,0,.026,19.087c.148,1.973.192,3.926.234,5.813.1,4.621.192,8.611,1.865,9.494,1.2.626,4.819-1.6,6.115-2.515a.2.2,0,0,1,.229.327c-.437.307-3.889,2.692-5.823,2.692" transform="translate(-6.301 -3.623)" fill="#eaeaea"/>
            <path id="Trazado_741189" data-name="Trazado 741189" d="M21.816,98.778a1.393,1.393,0,0,1-.773-.211C19.009,97.261,19,91.121,18.988,84.621a86.648,86.648,0,0,0-.381-10.134c-.113-.854-.242-1.783-.379-2.764-1.139-8.151-2.7-19.316.651-22.2A130.972,130.972,0,0,1,37.852,36.751c2.587-1.387,5.244-3.127,8.057-4.969a87.4,87.4,0,0,1,14.02-7.991A116.016,116.016,0,0,0,76.88,14.806a.2.2,0,0,1,.22.334,116.43,116.43,0,0,1-17.019,9.021,87.179,87.179,0,0,0-13.954,7.955c-2.82,1.848-5.484,3.593-8.086,4.988a130.521,130.521,0,0,0-18.9,12.722c-3.184,2.743-1.578,14.236-.516,21.841.138.982.268,1.912.38,2.768a87.135,87.135,0,0,1,.384,10.184c.01,6.108.019,12.424,1.87,13.612,1.525.972,5.555-2.989,6.984-4.6a.2.2,0,1,1,.3.265c-.489.551-4.405,4.879-6.724,4.879" transform="translate(-5.14 -4.505)" fill="#eaeaea"/>
            <path id="Trazado_741190" data-name="Trazado 741190" d="M22.144,96.114a2.46,2.46,0,0,1-1.731-.623c-1.494-1.358-1.6-4.887-1.294-9.769.231-3.708.074-11.293-.079-18.628-.139-6.656-.269-12.943-.054-14.879.378-3.42,1.275-3.93,4.244-5.617.582-.33,1.246-.707,2-1.161,2.4-1.439,4.84-4,7.2-6.476a41.851,41.851,0,0,1,6.321-5.84c3.15-2.1,5.96-2.823,9.213-3.662,1.227-.316,2.5-.644,3.86-1.065,3-.93,7.24-4.594,10.978-7.826a61.53,61.53,0,0,1,6.442-5.145c4.468-2.786,8.208-5.234,8.246-5.258a.2.2,0,0,1,.218.334c-.038.025-3.781,2.474-8.254,5.263a61.534,61.534,0,0,0-6.391,5.109c-3.768,3.258-8.039,6.95-11.121,7.9-1.373.426-2.647.754-3.878,1.072-3.219.83-6,1.546-9.092,3.608a41.537,41.537,0,0,0-6.253,5.783c-2.38,2.5-4.842,5.076-7.286,6.543-.761.457-1.428.835-2.011,1.166-2.907,1.651-3.688,2.095-4.045,5.313-.211,1.91-.081,8.184.057,14.827.153,7.343.311,14.936.079,18.66-.352,5.64-.014,8.379,1.163,9.45a2.361,2.361,0,0,0,2.073.467c3.231-.512,5.341-4.327,5.362-4.366a.2.2,0,0,1,.351.19c-.09.165-2.228,4.028-5.651,4.57a4.313,4.313,0,0,1-.673.056" transform="translate(-5.755 -3.089)" fill="#eaeaea"/>
            <path id="Trazado_741191" data-name="Trazado 741191" d="M21.566,119.708l-3.833,2.213v-2.1l3.833-2.213Z" transform="translate(-5.408 -35.868)" fill="#666"/>
            <path id="Trazado_741192" data-name="Trazado 741192" d="M20.979,87.308l-3.833,2.213v-2.1l3.833-2.213Z" transform="translate(-5.229 -25.987)" fill="#666"/>
            <path id="Trazado_741193" data-name="Trazado 741193" d="M61.948,38.607l-1.551.9V34.145l1.551-.9Z" transform="translate(-18.419 -10.14)" fill="#666"/>
            <path id="Trazado_741194" data-name="Trazado 741194" d="M24.974,62.009l-1.551.9V57.547l1.551-.9Z" transform="translate(-7.143 -17.277)" fill="#666"/>
            <path id="Trazado_741195" data-name="Trazado 741195" d="M95.806,18.529l-1.551.9V14.067l1.551-.9Z" transform="translate(-28.744 -4.017)" fill="#666"/>
            <path id="Trazado_741196" data-name="Trazado 741196" d="M80.49,188.32c.131,2.048.625,4.832-.176,4.855-1.385-.474-2.7-1.232-3.884-.51a2.46,2.46,0,0,0-1.039,3.03,6.71,6.71,0,0,0,2.294,1.872,16.725,16.725,0,0,0,4.176,1.243c.99.594,2.383,1.061,3.411.521,1.059-.555,1.59-1.021,1.276-2.193-.523-1.954-.271-2.064.416-5.338.377-1.8-6.581-5.143-6.475-3.481" transform="translate(-22.948 -57.294)" fill="#3a3a3a"/>
            <path id="Trazado_741197" data-name="Trazado 741197" d="M81.912,183.061c.543-1,2.314-.958,4.548-.252s3.057,1.019,3.091,1.686.32,2.431-2.463,2.235-4.835-1.718-5.019-2.353a4.694,4.694,0,0,1-.157-1.316" transform="translate(-24.98 -55.594)" fill="#3a3a3a"/>
            <path id="Trazado_741198" data-name="Trazado 741198" d="M92.234,104.092a2.511,2.511,0,0,1,1.3-1.625c.013,0,.031,0,.044,0a4.487,4.487,0,0,1,6.982,2.011c.969,2.483-.094,5.037-.969,7.5-.493,1.387.109,3.57-.8,4.748-.858,1.116-7.846-2.493-7.955-6.118a28.792,28.792,0,0,1,1.4-6.508" transform="translate(-27.701 -30.961)" fill="#0a487b"/>
            <path id="Trazado_741199" data-name="Trazado 741199" d="M90.311,96.456c.628,1.52,3.537,7.139,3.537,7.139l-6.624,3.319A27.935,27.935,0,0,0,85.7,99.077c-1.318-3.156,4.614-2.621,4.614-2.621" transform="translate(-26.076 -29.405)" fill="#ffb9a4"/>
            <path id="Trazado_741200" data-name="Trazado 741200" d="M109.479,182.656a23.453,23.453,0,0,0-.794-10.25,12.306,12.306,0,0,0-6.64,1.871c.514,1.856.7,2.37,1.03,3.709.186.756.406,1.5.653,2.239.373,1.118.277,1.143-.878,1.111-1.754-.048-3.378.288-3.383,2.246a4.815,4.815,0,0,0,1.581,2.144,5.509,5.509,0,0,0,5.035.547c.856.739,2.867.088,4.058-1.014.393-.365-.234-2.153-.662-2.6" transform="translate(-30.334 -52.578)" fill="#3a3a3a"/>
            <path id="Trazado_741201" data-name="Trazado 741201" d="M86.936,132.69c.43-1.127.636-1.5,1.834-1.569,1.241-.069,2.488.18,3.749.067a19.915,19.915,0,0,0,5.281-1.335c.694-.261,1.8,3.279,2,5.019a16.237,16.237,0,0,1-.386,5.57c.932,2.285,1.709,6.514.443,9.633a29.636,29.636,0,0,1,5.025,8.552c1.312,3.662,1.127,8.092,1.159,9.321.1,2.041-5.3,1.815-6.837,0-1.215-4.175-6.179-13.78-7.187-15.618-1.393-2.54-1.959-4.338-3.262-6.925-1-1.995-2.368-4.07-2.723-6.311a13.226,13.226,0,0,1,.906-6.4" transform="translate(-26.205 -39.596)" fill="#e5b72e"/>
            <path id="Trazado_741202" data-name="Trazado 741202" d="M79.007,108.019s-2.36-2.547-3.3-3.463-2.838-1.308-3.882-1.726-.908-.032-.86.173.379.338.379.338-.863-.124-.929.3.365.363.365.363a.525.525,0,0,0-.232.548c.066.379,1.175.645,1.175.645s-1.138.232-.758.63a4.425,4.425,0,0,0,1.708.631,10.623,10.623,0,0,1,1.2,1.12c.693.739,2.519,2.009,3.282,1.706a8.756,8.756,0,0,0,1.859-1.27" transform="translate(-21.47 -31.303)" fill="#ffc9b6"/>
            <path id="Trazado_741203" data-name="Trazado 741203" d="M82.437,137.269c.68-1.24,10.4-2.235,10.273-2.174.484,1.923,3.2,7.176-.9,9.354-.132.848-2.845,10.622-4.643,13.9.407,2.114,1.088,2.747.286,5.51a16.568,16.568,0,0,1,1.027,5.1c.172,4.225-.555,9.308-1.1,10.033-1.215,1.618-6.02.971-6.131-1.918-.221-2.342-2.593-19.143-2.923-23.66,1.132-6.906,2.026-12.357,4.106-16.152" transform="translate(-23.888 -41.198)" fill="#feca2e"/>
            <path id="Trazado_741204" data-name="Trazado 741204" d="M96.482,137.169s-1.375,2.244-5.939,2.8-7.065-1.4-7.065-1.4l.529-1.057s4.981,1.134,8.071-.116a41.143,41.143,0,0,1,4.091-1.509Z" transform="translate(-25.458 -41.441)" fill="#efb000"/>
            <path id="Trazado_741205" data-name="Trazado 741205" d="M82.385,133.673c-.391-.77,2.156-1.407,2.156-1.407l.662,1.8s-2.071,1.078-2.818-.391" transform="translate(-25.112 -40.337)" fill="#efb000"/>
            <path id="Trazado_741206" data-name="Trazado 741206" d="M81.289,107.98c.953-.6,10.182-5.495,11.031-5.042,2.215,1.181,3.7,5.254,3.944,7.818.155,1.653-.052,9.392.1,10.761.2.338.712,1.171.116,1.63.755.771.205,1.173-.541,1.964-.776.823-5.608,3.413-7.836,3.413-3.1,0-5.169-.043-5.976-.645-.562-.419-.284-1.3.224-1.731-.288-1.626-2.258-4.208-2.534-5.726-.566-3.114-1.454-5.332-1.613-8.511-.126-2.508,1.28-2.8,3.081-3.931" transform="translate(-23.848 -31.383)" fill="#0b5999"/>
            <path id="Trazado_741207" data-name="Trazado 741207" d="M94.448,103.143s-.179.62-1.929,1.517a33.213,33.213,0,0,1-5.043,1.773v-.375a39.763,39.763,0,0,1,3.723-2.167c1.884-.942,2.48-.846,2.48-.846Z" transform="translate(-26.677 -31.424)" fill="#0a487b"/>
            <path id="Trazado_741208" data-name="Trazado 741208" d="M82.246,92.079c.385-1.881,1.241-3.482,3.09-3.928a5.005,5.005,0,0,1,4.912,1.787c1.435,1.784,1,3.746-.27,5.48a8.8,8.8,0,0,1-2.684,2.357c-1.035.544-3.057,1.359-4.216-.271a7.284,7.284,0,0,1-.832-5.425" transform="translate(-25.028 -26.848)" fill="#ffc9b6"/>
            <path id="Trazado_741209" data-name="Trazado 741209" d="M82.517,88.768c.65-.113.395-.711.98-1.051a7.113,7.113,0,0,1,4.653-.618c2.935.615,4.682,2.114,3.524,4.458.225,1.205-.768,4.3-.525,5.911a3.375,3.375,0,0,1-4.283-2.636c-1.2.205-3.421-2.1-2.832-3.153-2.184.5-2.279-2.778-1.516-2.91" transform="translate(-25.033 -26.519)" fill="#3a3a3a"/>
            <path id="Trazado_741210" data-name="Trazado 741210" d="M84.4,95.6s.931-1.269,1.75.313c.677,1.307-.992,1.781-.992,1.781Z" transform="translate(-25.74 -29.008)" fill="#ffc9b6"/>
            <path id="Trazado_741211" data-name="Trazado 741211" d="M84.724,91s-2.176,1.941-5.633-.3-.411-4.672,1.986-4.366a7.075,7.075,0,0,1,3.646,1.431Z" transform="translate(-23.646 -26.32)" fill="#e5b72e"/>
            <path id="Trazado_741212" data-name="Trazado 741212" d="M82.707,88.014c.276-3.06,4.655-4.79,8-2.426,1.833,1.294,2.83,4.042,1.054,6.973-.4,1.179-8.331.79-9.058-4.547" transform="translate(-25.223 -25.765)" fill="#feca2e"/>
            <path id="Trazado_741213" data-name="Trazado 741213" d="M91.371,85.477c-.114.239.151.6.592.815s.892.189,1.006-.049-.151-.6-.592-.815-.892-.189-1.006.05" transform="translate(-27.857 -26.008)" fill="#e5b72e"/>
            <path id="Trazado_741214" data-name="Trazado 741214" d="M73.309,112.841a1.772,1.772,0,0,1-.584,2.085c-.639.457-2.5-.038-2.038-1.218-.467-.354-.067-.8.116-1.282-.2-.666.219-1.29.649-1.2,1.2.259,1.612.677,1.856,1.612" transform="translate(-21.491 -33.918)" fill="#ffc9b6"/>
            <path id="Trazado_741215" data-name="Trazado 741215" d="M88.022,169.348a3.488,3.488,0,0,1-2.146.534,2.277,2.277,0,0,1-1.472-.771,8.489,8.489,0,0,1,1.808,0c.694.119,1.809.238,1.809.238" transform="translate(-25.74 -51.557)" fill="#efb000"/>
            <path id="Trazado_741216" data-name="Trazado 741216" d="M87.527,167.431a10.207,10.207,0,0,0-2.195-1.226c-.688-.157-1.227-.25-1.227-.25a11.617,11.617,0,0,0,1.532,1.015,7.347,7.347,0,0,0,1.89.461" transform="translate(-25.649 -50.611)" fill="#efb000"/>
            <path id="Trazado_741217" data-name="Trazado 741217" d="M96.924,115.486l1.2,4.065s.042,4.423-.194,5.91c.236.567.625.687.194,1.355.9.033.6.917.166,1.63A8.274,8.274,0,0,1,94.7,131.42c-1.442.763-6.175,1.922-7.991,1.469s-4.045-.976-3.887-1.848a5.421,5.421,0,0,0,.136-1.158l-.555-1.328a5.632,5.632,0,0,0,4.306-.329c1.433-.686,4.05-3.958,3.347-9.339a34.512,34.512,0,0,0,6.869-3.4" transform="translate(-25.13 -35.219)" fill="#feca2e"/>
            <path id="Trazado_741218" data-name="Trazado 741218" d="M92.544,116.892c-.149-.095-.967-3.99-2.376-6.722-1.139-2.209-2.463-3.194-3.262-3.06a1.756,1.756,0,0,0-1.4,1.053,2.714,2.714,0,0,1,2.6,1.257c1.273,1.584,2.975,6.891,2.994,7.925s1.447-.454,1.447-.454" transform="translate(-26.076 -32.661)" fill="#fcd308"/>
            <path id="Trazado_741219" data-name="Trazado 741219" d="M95.769,103.262a6.651,6.651,0,0,1,2.274,3.208c.662,1.549,2.043,6.362,2.043,6.362l1-.694a48.067,48.067,0,0,0-1.883-5.856c-1-2.333-1.85-3.13-2.508-3.546a1.162,1.162,0,0,0-1.148.083,2.417,2.417,0,0,0,.224.442" transform="translate(-29.138 -31.295)" fill="#fcd308"/>
            <path id="Trazado_741220" data-name="Trazado 741220" d="M92.281,137.736a6.717,6.717,0,0,1-2.894.771,7.348,7.348,0,0,1-2.691-.729,12.3,12.3,0,0,1,2.506-.116,28.937,28.937,0,0,0,3.079.074" transform="translate(-26.439 -41.971)" fill="#efb000"/>
            <path id="Trazado_741221" data-name="Trazado 741221" d="M73.79,110.176a57.094,57.094,0,0,0-6.672-1.986,6.485,6.485,0,0,0-1.594-2.588,14.241,14.241,0,0,1-1.471-2.531,3.609,3.609,0,0,0-2.332.885,11.589,11.589,0,0,0,.523,3.506c1.064,2.741,1.039,3.3,1.984,4.2.139.557.031.637.955.947a15.35,15.35,0,0,0,5.432,2.627,30.713,30.713,0,0,1,4.664,2.087l.583-5.669a6.334,6.334,0,0,0-2.074-1.478" transform="translate(-18.823 -31.433)" fill="#ffc9b6"/>
            <path id="Trazado_741222" data-name="Trazado 741222" d="M74.473,110.449c1.059.1,1.889.261,2.118.726,1.7-.857,3.552-1.337,4.983-.015,2.195,2.027,2.74,7.375.254,9.606-1.637,1.47-3,1.081-4.928-1.116-.76-.307-1.663-1.169-3.33-1.924a5.513,5.513,0,0,1,.9-7.276" transform="translate(-22.146 -33.65)" fill="#0a487b"/>
            <path id="Trazado_741223" data-name="Trazado 741223" d="M62.308,102.05a7.5,7.5,0,0,0,.594-2.264c.017-.948-.306-4.434-.3-5.234s-.642-.417-.68.195.115,1.492-.229,1.644-1.606-.541-1.644-1.839A2.53,2.53,0,0,0,58.828,92.3c-.306,0,0,.727,0,.727s-.229.1-.344.583a3.658,3.658,0,0,0,0,1.176,5.226,5.226,0,0,0-.535,2.05c0,1.01,1.879,3.037,2.622,4.145a2.159,2.159,0,0,0,1.738,1.071" transform="translate(-17.672 -28.148)" fill="#ffc9b6"/>
            <path id="Trazado_741224" data-name="Trazado 741224" d="M61.243,99.958,41.517,88.569l.528-.257L61.771,99.7Z" transform="translate(-12.661 -26.932)" fill="#bcbcbc"/>
            <path id="Trazado_741225" data-name="Trazado 741225" d="M61.243,134.817,41.517,123.428V88.682l19.726,11.389Z" transform="translate(-12.661 -27.045)" fill="#a3a3a3"/>
            <path id="Trazado_741226" data-name="Trazado 741226" d="M69.9,104.955l.528-.257v34.746l-.528.257Z" transform="translate(-21.317 -31.929)" fill="#8e8e8e"/>
            <path id="Trazado_741227" data-name="Trazado 741227" d="M59.164,125.737l-12.315-7.11V100.9l12.315,7.11Z" transform="translate(-14.287 -30.771)" fill="#feca2e"/>
            <path id="Trazado_741228" data-name="Trazado 741228" d="M59.276,125.931l-12.714-7.34V100.4l12.714,7.34ZM46.962,118.36l11.915,6.879V107.975l-11.915-6.88Z" transform="translate(-14.2 -30.62)" fill="#fff"/>
            <path id="Trazado_741229" data-name="Trazado 741229" d="M54.174,109.117l-1.8,5.766,2.26,1.3-1.449,5.238,3.825-5.709-2.248-1.3,1.5-4.1Z" transform="translate(-15.972 -33.277)" fill="#3a3a3a"/>
          </g>
        </g>
      </g>
      <text id="Tableros_eléctricos_" data-name="Tableros eléctricos " transform="translate(720 7829)" fill="#12263f" font-size="18" font-family="Roboto-Black, Roboto" font-weight="800"><tspan x="0" y="19">Tableros eléctricos </tspan></text>
    </g>
  </g>
</svg>
