<svg xmlns="http://www.w3.org/2000/svg" xmlns:xlink="http://www.w3.org/1999/xlink" width="129" height="129" viewBox="0 0 129 129">
  <defs>
    <clipPath id="clip-path">
      <rect id="Rectángulo_320381" data-name="Rectángulo 320381" width="87" height="87" fill="none"/>
    </clipPath>
  </defs>
  <g id="Grupo_930115" data-name="Grupo 930115" transform="translate(-812 -3409)">
    <g id="Elipse_7683" data-name="Elipse 7683" transform="translate(812 3409)" fill="#f6f6f6" stroke="#fd9927" stroke-width="2">
      <circle cx="64.5" cy="64.5" r="64.5" stroke="none"/>
      <circle cx="64.5" cy="64.5" r="63.5" fill="none"/>
    </g>
    <g id="Grupo_930051" data-name="Grupo 930051" transform="translate(833 3430)">
      <g id="Grupo_930050" data-name="Grupo 930050" clip-path="url(#clip-path)">
        <path id="Trazado_741052" data-name="Trazado 741052" d="M63.165,23.69A39.475,39.475,0,1,1,23.69,63.165,39.475,39.475,0,0,1,63.165,23.69" transform="translate(-19.665 -19.665)" fill="#ededed"/>
        <path id="Trazado_741053" data-name="Trazado 741053" d="M48.364,90.869A42.5,42.5,0,0,1,18.308,18.31a42.5,42.5,0,1,1,60.11,60.106A42.216,42.216,0,0,1,48.364,90.869Zm0-78.14A35.636,35.636,0,1,0,84,48.364,35.676,35.676,0,0,0,48.364,12.728" transform="translate(-4.864 -4.864)" fill="#f40808"/>
        <path id="Trazado_741054" data-name="Trazado 741054" d="M77.052,40.42a36.632,36.632,0,1,0,36.632,36.632A36.674,36.674,0,0,0,77.052,40.42m0,71.272a34.64,34.64,0,1,1,34.64-34.64A34.679,34.679,0,0,1,77.052,111.692Z" transform="translate(-33.552 -33.552)"/>
        <path id="Trazado_741055" data-name="Trazado 741055" d="M74.259,12.741A43.5,43.5,0,0,0,12.741,74.259,43.5,43.5,0,0,0,74.259,12.741Zm-1.409,60.11a41.508,41.508,0,0,1-58.7-58.7,41.508,41.508,0,1,1,58.7,58.7Z"/>
        <path id="Trazado_741056" data-name="Trazado 741056" d="M319.782,151.99c0,3.09.309,4.481-1.185,5.7a5.151,5.151,0,0,0,1.185,8.725v-3.7l2.06-1.03,2.06,1.03v3.7a5.15,5.15,0,0,0,1.1-8.8c-1.422-1.092-1.1-2.658-1.1-5.624V130.182a2.956,2.956,0,0,1,1.1-2.359,5.151,5.151,0,0,0-1.1-8.8v3.7l-2.06,1.03-2.06-1.03v-3.7a5.151,5.151,0,0,0-1.185,8.725,3.162,3.162,0,0,1,1.185,2.431Z" transform="translate(-262.875 -98.801)" fill="#dad7e5"/>
        <path id="Trazado_741057" data-name="Trazado 741057" d="M335.1,127.823a2.957,2.957,0,0,0-1.1,2.359c0,5.563.072,5.326,0,5.326a2.06,2.06,0,0,0-1.267-1.545l-.793-.309c0-3.09.34-4.656-1.185-5.9a5.151,5.151,0,0,1-.876-7.087v2.06l2.06,1.03,2.06-1.03v-3.7a5.151,5.151,0,0,1,1.1,8.8Z" transform="translate(-272.97 -98.801)" fill="#edebf2"/>
        <path id="Trazado_741058" data-name="Trazado 741058" d="M334,327.441v-3.7l-2.06-1.03-2.06,1.03v2.06a5.151,5.151,0,0,1,.876-7.087c1.566-1.277,1.185-2.843,1.185-5.7H334c0,3.09-.288,4.553,1.1,5.624a5.151,5.151,0,0,1-1.1,8.8" transform="translate(-272.97 -259.83)" fill="#edebf2"/>
        <path id="Trazado_741059" data-name="Trazado 741059" d="M274.636,210.692a2.06,2.06,0,1,1,0,4.12h-1.03a2.06,2.06,0,0,1,0,4.12c-9.436,0-9.1.144-9.817-.412-4.265-3.193-2.73-2.678-7.695-2.678V204.511c3.513,0,3.956.144,4.708-.484l4.646-3.884a2.06,2.06,0,0,1,2.06-.33c2.74,1.1,3.029,1.154,3.4,1.545,1.349,1.339-1.03,1.092,3.7,1.092a2.06,2.06,0,0,1,.031,4.12h1.03a2.06,2.06,0,0,1,1.452,3.513C276.377,210.846,275.491,210.692,274.636,210.692Z" transform="translate(-212.578 -165.744)" fill="#f6ccaf"/>
        <path id="Trazado_741060" data-name="Trazado 741060" d="M362.953,223.284a4.8,4.8,0,0,0-3.8-1.082v-6.181h.937a2.143,2.143,0,0,1,2.153,1.875,2.06,2.06,0,0,1-1.866,2.237c-.064.006-.129.009-.194.008h1.03a2.06,2.06,0,0,1,1.741,3.142" transform="translate(-298.124 -179.315)" fill="#ffdec7"/>
        <rect id="Rectángulo_320379" data-name="Rectángulo 320379" width="5.151" height="15.452" transform="translate(38.365 36.707)" fill="#6fabe6"/>
        <path id="Trazado_741061" data-name="Trazado 741061" d="M241,216.023c0,14.133-.1,13.392,0,13.392a3.09,3.09,0,0,1-3.09-3.09v-10.3Z" transform="translate(-197.481 -179.316)" fill="#82bcf4"/>
        <rect id="Rectángulo_320380" data-name="Rectángulo 320380" width="20.602" height="15.452" transform="translate(17.763 36.707)" fill="#db5669"/>
        <path id="Trazado_741062" data-name="Trazado 741062" d="M135.2,216.023v13.392h-5.15a13.392,13.392,0,0,1-13.392-13.392Z" transform="translate(-96.838 -179.316)" fill="#f26674"/>
        <path id="Trazado_741063" data-name="Trazado 741063" d="M360.236,243.414c-.69,1.277-2.277.979-4.357.979.7-1.174.556-2.143.556-4.12h2.06a2.06,2.06,0,0,1,1.741,3.142" transform="translate(-295.407 -199.445)" fill="#ffdec7"/>
        <path id="Trazado_741064" data-name="Trazado 741064" d="M332.05,266.581a2.06,2.06,0,0,1-2.06,2.06h-5.15a2.06,2.06,0,0,1-2.06-2.06c0-1.03.154,0,2.06,0a4.059,4.059,0,0,0,3.564-2.06h1.586a2.06,2.06,0,0,1,2.06,2.06" transform="translate(-267.932 -219.573)" fill="#ffdec7"/>
        <path id="Trazado_741065" data-name="Trazado 741065" d="M331.02,290.83a2.06,2.06,0,0,1-2.06,2.06h-4.12a2.06,2.06,0,0,1,0-4.121h4.12a2.06,2.06,0,0,1,2.06,2.06" transform="translate(-267.932 -239.702)" fill="#ffdec7"/>
        <path id="Trazado_741066" data-name="Trazado 741066" d="M281.248,202.912c0,5.964.206,6.479-.608,7.273a2.06,2.06,0,0,1-3.513-1.452v-3.09a1.03,1.03,0,0,0-2.06,0c0,3.09-.165,3.9.556,5.15a4.017,4.017,0,0,0,0,4.12,3.836,3.836,0,0,0-.5,1.339L272.5,214.3c-1.164-.886-2.06.154-3.657-1.422-1.349-1.329-1.03-2.411-1.03-8.241,1.453,0,1.968.082,2.647-.484l4.646-3.884a2.06,2.06,0,0,1,2.06-.33l2.709,1.092A2.06,2.06,0,0,1,281.248,202.912Z" transform="translate(-222.28 -165.845)" fill="#ffdec7"/>
        <path id="Trazado_741067" data-name="Trazado 741067" d="M324.838,264.521h5.151a2.06,2.06,0,1,1,0,4.12h-5.151a2.06,2.06,0,1,1,0-4.12" transform="translate(-267.931 -219.573)" fill="#ffdec7"/>
        <path id="Trazado_741068" data-name="Trazado 741068" d="M324.838,288.77h4.12a2.06,2.06,0,1,1,0,4.12h-4.12a2.06,2.06,0,1,1,0-4.12" transform="translate(-267.931 -239.702)" fill="#ffdec7"/>
        <path id="Trazado_741069" data-name="Trazado 741069" d="M146.477,134.088a3.09,3.09,0,0,0-2.678-4.6c0-4.193-.237-5.151.711-5.841a6.181,6.181,0,0,0,2.38-4.883c0-3.78-3.544-6.335-4.687-5.593-.618.4-.464.773-.464,3.956l-1.03.515-1.03-.515c0-3.234.144-3.523-.464-3.925a1.031,1.031,0,0,0-.979-.113,6.181,6.181,0,0,0-1.422,10.466c1.03.855.8,1.834.8,3.585l-.536-.216a3.09,3.09,0,0,0-3.09.5l-4.656,3.884c-.371.3-.4.237-3.008.237v-1.03a1.03,1.03,0,0,0-1.03-1.03H99.5a1.03,1.03,0,1,0,0,2.06h19.572v13.392H99.5a1.03,1.03,0,1,0,0,2.06h25.753a1.03,1.03,0,0,0,1.03-1.03v-1.03c3.43,0,2.06-.515,6.047,2.472,1.03.773,1.648.618,5.285.618,0,1.967.237,3.018-.8,3.863a6.181,6.181,0,0,0,1.422,10.476,1.03,1.03,0,0,0,1.442-.948v-3.09l1.03-.515,1.03.515v3.09c0,2.606,5.15-.144,5.15-4.728a6.181,6.181,0,0,0-2.39-4.883c-.824-.639-.7-1.339-.7-3.966a3.091,3.091,0,0,0,1.648-4.419,3.09,3.09,0,0,0,1.03-4.12,3.09,3.09,0,0,0,0-5.212m-2.678,7.757h-5.15a1.03,1.03,0,0,1,0-2.06h5.15a1.03,1.03,0,1,1,0,2.06m-2.246-4.12a5.264,5.264,0,0,0,.185-2.06h3.09a1.03,1.03,0,0,1,.711,1.762c-.371.381-.391.3-3.986.3m2.246-4.12h-2.06v-2.06h2.06a1.03,1.03,0,1,1,0,2.06m-5.686-11.651a4.12,4.12,0,0,1-.612-5.8q.057-.07.117-.138c0,1.689-.144,2.276.567,2.627,2.132,1.03,2.39,1.329,2.987,1.03,3.018-1.525,2.627-.937,2.627-3.585a4.121,4.121,0,0,1,1.03,2.719c0,3.43-3.09,3-3.09,6.428v4.244h-.33a3.091,3.091,0,0,0-1.731-1.525c0-2.513.35-4.429-1.566-6.006m-13.886,22.982h-3.09V131.544h3.09Zm9.343.824c-4.337-3.245-3.162-2.884-7.283-2.884V133.6c2.163,0,3.245.185,4.326-.721,5.006-4.172,4.934-4.357,5.707-4.048,2.6,1.03,3.358,1.113,3.358,2.06v5.8a1.03,1.03,0,1,1-2.06,0V133.6a1.03,1.03,0,1,0-2.06,0c0,3.029-.216,4.017.8,5.15a3.09,3.09,0,0,0,0,4.12,3.018,3.018,0,0,0-.618,3.09c-1.628,0-1.823.062-2.173-.206m11.259,10.929a4.121,4.121,0,0,1-1.03,2.72c0-2.74.361-2.143-2.627-3.636-.6-.3-.855,0-2.987,1.03-.711.35-.567.937-.567,2.627a4.12,4.12,0,0,1,.345-5.817q.073-.065.15-.127c1.854-1.5,1.566-3.255,1.566-5.46h2.06v2.235C141.739,153.691,144.829,153.269,144.829,156.689Zm-2.06-10.723h-4.12a1.03,1.03,0,0,1,0-2.06h4.12a1.03,1.03,0,0,1,0,2.06" transform="translate(-81.741 -93.807)"/>
      </g>
    </g>
  </g>
</svg>
